<?xml version="1.0" encoding="UTF-8" standalone="no"?>
<!-- Created with Inkscape (http://www.inkscape.org/) -->

<svg
   width="38.326721mm"
   height="74.964371mm"
   viewBox="0 0 38.326721 74.964371"
   version="1.1"
   id="svg5"
   xml:space="preserve"
   inkscape:export-filename="croucher_stamp_darkbg.svg"
   inkscape:export-xdpi="96"
   inkscape:export-ydpi="96"
   xmlns:inkscape="http://www.inkscape.org/namespaces/inkscape"
   xmlns:sodipodi="http://sodipodi.sourceforge.net/DTD/sodipodi-0.dtd"
   xmlns="http://www.w3.org/2000/svg"
   xmlns:svg="http://www.w3.org/2000/svg"><sodipodi:namedview
     id="namedview7"
     pagecolor="#505050"
     bordercolor="#eeeeee"
     borderopacity="1"
     inkscape:showpageshadow="0"
     inkscape:pageopacity="0"
     inkscape:pagecheckerboard="0"
     inkscape:deskcolor="#505050"
     inkscape:document-units="mm"
     showgrid="false" /><defs
     id="defs2"><clipPath
       clipPathUnits="userSpaceOnUse"
       id="clipPath20"><path
         d="M 0,0 H 11900 V 8410 H 0 Z"
         id="path18" /></clipPath><style
       id="style1235">
      .cls-1 {
        fill: #ef3e42;
      }
    </style></defs><g
     inkscape:label="Layer 1"
     inkscape:groupmode="layer"
     id="layer1"
     transform="translate(-106.51384,-193.78977)"><g
       id="g16"
       clip-path="url(#clipPath20)"
       transform="matrix(0.03527778,0,0,-0.03527778,-115.34892,280.29124)"><g
         id="g1126"><path
           d="m 2686.56,2982.49 h -628.65 v 1475.54 h 628.65 V 2982.49"
           style="fill:#ffffff;fill-opacity:1;fill-rule:nonzero;stroke:#ffffff;stroke-width:3.82677;stroke-dasharray:none;stroke-opacity:1"
           id="path22" /><path
           d="m 3087.5,6347.36 c -224.11,0 -580.79,-44.61 -810.02,-291 62.11,-224.21 223.78,-407.09 435.14,-496.5 77.31,216.93 311.83,247.96 459.03,247.96 74.19,0 128.69,-9.93 128.69,-9.93 v 534.49 c 0,0 -84.1,14.98 -212.84,14.98"
           style="fill:#ffffff;fill-opacity:1;fill-rule:nonzero;stroke:#ffffff;stroke-width:3.82677;stroke-dasharray:none;stroke-opacity:1"
           id="path24" /><path
           d="m 9304.91,3527.23 c -41.69,-8.24 -84.21,-12.56 -128.33,-12.56 v -0.05 c -367.8,0 -666.1,298.16 -666.1,666.12 0,39.64 1.82,78.49 8.56,116.28 h -522.89 l -3.73,-116.28 c 0,-654.13 530.2,-1184.24 1184.16,-1184.24 73.64,0 146.45,7.89 216.32,20.71 -85.19,152.75 -117.66,326.37 -87.99,510.02"
           style="fill:#ffffff;fill-opacity:1;fill-rule:nonzero;stroke:#ffffff;stroke-width:3.82677;stroke-dasharray:none;stroke-opacity:1"
           id="path26" /><path
           d="m 10358.5,4180.8 c 0,653.79 -530.23,1183.96 -1184.12,1183.96 -614.7,0 -1119.87,-468.51 -1178.31,-1067.65 h 522.97 c 55.06,312.23 327.21,549.65 655.34,549.65 367.74,0 665.93,-298.23 665.93,-665.96 h 518.19"
           style="fill:#ffffff;fill-opacity:1;fill-rule:nonzero;stroke:#ffffff;stroke-width:3.82677;stroke-dasharray:none;stroke-opacity:1"
           id="path28" /><path
           d="m 9840.31,4180.8 v -45.83 c -18.39,-270.24 -197.06,-496.2 -442.41,-582.5 -30.04,-10.55 -61.12,-19.03 -92.99,-25.24 -6.84,-42 -11.46,-84.85 -11.46,-128.78 0,-138.57 36.3,-268.43 99.45,-381.24 533.55,98.47 940.6,554.05 965.6,1110.06 v 53.53 h -518.19"
           style="fill:#ffffff;fill-opacity:1;fill-rule:nonzero;stroke:#ffffff;stroke-width:3.82677;stroke-dasharray:none;stroke-opacity:1"
           id="path30" /><path
           d="m 5604.38,4574.31 h 9.18 c 0,0 22.69,-128.76 59.77,-253.55 l 29.24,-97.88 c 163.83,19.23 307.52,88.45 424.35,192.73 l -259.01,907.89 h -517.84 l -257.78,-913.32 c 115.97,-101.31 261.85,-169.22 422.97,-188.11 l 28.94,97.96 c 37.05,124.88 60.18,254.28 60.18,254.28"
           style="fill:#ffffff;fill-opacity:1;fill-rule:nonzero;stroke:#ffffff;stroke-width:3.9685;stroke-dasharray:none;stroke-opacity:1"
           id="path32" /><path
           d="m 5150.45,2979.28 249.47,844.37 c -106.65,114.54 -246.81,197.19 -405.4,231.52 l -75.22,-266.72 c -37.06,-124.83 -55.61,-249.67 -55.61,-249.67 h -9.14 c 0,0 -13.96,124.84 -46.26,249.67 l -73.91,278.75 c -203.48,-24.32 -383.03,-126.32 -507.73,-276.05 l 257.97,-811.87 h 665.83"
           style="fill:#ffffff;fill-opacity:1;fill-rule:nonzero;stroke:#ffffff;stroke-width:3.9685;stroke-dasharray:none;stroke-opacity:1"
           id="path34" /><path
           d="m 3916.83,4754.93 309.81,-963.78 c 124.41,149.48 304.63,251.54 507.73,276.05 l -276.58,1029.88 c -46.22,180.2 -138.72,240.41 -332.9,240.41 h -402.27 v -499.43 h 64.75 c 69.3,0 106.35,-13.76 129.46,-83.13"
           style="fill:#ffffff;fill-opacity:1;fill-rule:nonzero;stroke:#ffffff;stroke-width:3.9685;stroke-dasharray:none;stroke-opacity:1"
           id="path36" /><path
           d="m 7155.23,4297.02 h -604.86 l -132.98,-508.57 c -28.21,-108.72 -42.35,-217.33 -45.48,-243.51 v -565.66 h 364.57 l 418.75,1317.74"
           style="fill:#ffffff;fill-opacity:1;fill-rule:nonzero;stroke:#ffffff;stroke-width:3.9685;stroke-dasharray:none;stroke-opacity:1"
           id="path38" /><path
           d="M 2057.91,5337.54 H 1746 v -500.02 h 311.91 v -379.44 h 628.7 v 379.44 500.02 h -628.7"
           style="fill:#ffffff;fill-opacity:1;fill-rule:nonzero;stroke:#ffffff;stroke-opacity:1"
           id="path40" /><path
           d="m 2712.54,5559.96 c -211.36,89.41 -373,272.27 -435.17,496.53 -130.32,-140.14 -219.57,-344.98 -219.57,-644.65 v -74.3 h 628.7 v 59.54 c 0,63.67 9.72,117.17 26.04,162.88"
           style="fill:#ffffff;fill-opacity:1;fill-rule:nonzero;stroke:#ffffff;stroke-opacity:1"
           id="path42" /><path
           d="M 6370.18,3538.84 H 6361 c 0,0 -13.88,124.79 -50.84,249.61 l -183.28,627.17 c -115.82,-103.4 -262.21,-172.82 -424.3,-192.74 l 371.74,-1243.6 h 297.54 v 565.67"
           style="fill:#ffffff;fill-opacity:1;fill-rule:nonzero;stroke:#ffffff;stroke-width:3.9685;stroke-dasharray:none;stroke-opacity:1"
           id="path44" /><path
           d="m 2686.56,4837.58 h 539.48 v 499.97 h -539.48 v -499.97"
           style="fill:#ffffff;fill-opacity:1;fill-rule:nonzero;stroke:#ffffff;stroke-opacity:1"
           id="path46" /><path
           d="m 7091.5,5337.44 c -194.17,0 -286.68,-60.16 -332.93,-240.35 L 6550.3,4297.05 h 604.93 l 144.36,457.88 c 27.76,69.36 60.13,83.15 129.51,83.15 h 64.69 v 499.36 H 7091.5"
           style="fill:#ffffff;fill-opacity:1;fill-rule:nonzero;stroke:#ffffff;stroke-width:3.9685;stroke-dasharray:none;stroke-opacity:1"
           id="path48" /><path
           d="m 5515.27,4222.13 c -160.57,18.74 -307.08,87.37 -422.82,188.14 l -97.93,-355.15 c 158.26,-34.17 298.81,-117.36 405.41,-231.41 l 115.34,398.42"
           style="fill:#ffffff;fill-opacity:1;fill-rule:nonzero;stroke:#ffffff;stroke-width:3.9685;stroke-dasharray:none;stroke-opacity:1"
           id="path50" /></g><g
         id="g1255"
         transform="matrix(7.4999995,0,0,-7.4999995,6288.7244,2452.0102)"
         style="fill:#ffffff"><path
           class="cls-1"
           d="m 144.15,157.95 c 0,-0.48 0.13,-0.99 0.24,-1.5 0.14,-0.55 0.28,-1.12 0.25,-1.68 -0.03,-0.69 -0.28,-1.34 -0.51,-1.98 -0.24,-0.66 -0.48,-1.3 -0.48,-1.96 0,-0.76 0.24,-1.52 0.5,-2.31 0.2,-0.62 0.41,-1.27 0.5,-1.93 0.19,-1.59 0.12,-3.3 0.05,-4.97 -0.05,-1.18 -0.09,-2.29 -0.05,-3.32 0.01,-0.33 0.06,-0.65 0.09,-0.97 0.06,-0.55 0.13,-1.08 0.07,-1.58 -0.05,-0.41 -0.2,-0.8 -0.35,-1.17 -0.16,-0.38 -0.3,-0.75 -0.31,-1.09 0,-0.42 0.11,-0.84 0.24,-1.31 0.1,-0.36 0.21,-0.74 0.25,-1.12 0.11,-1.1 0.06,-2.21 0,-3.29 -0.06,-1.13 -0.13,-2.29 0,-3.48 0.01,-0.11 -0.1,-0.6 -0.17,-0.69 -1.65,-1.93 -4.47,-2.48 -7.27,-1.91 -0.06,0.02 -0.11,0.04 -0.16,0.08 -1.13,0.81 -1.13,2.31 -1.12,3.74 0,0.79 0.15,0.73 -0.04,1.37 -0.05,0.15 -0.06,0.97 0.05,1.08 0.19,0.18 0.11,1.19 0.13,1.76 0.03,0.87 0.13,1.42 0.31,2.21 -0.11,0.65 -0.05,1.5 -0.13,2.16 -0.19,1.71 -0.39,3.47 -1.19,4.5 -0.4,0.11 -0.77,0.17 -1.13,0.17 -1,0 -1.76,-0.43 -2.56,-0.89 -0.27,-0.16 -0.55,-0.31 -0.84,-0.45 -0.45,-0.23 -0.95,-0.48 -1.47,-0.75 -1.19,-0.61 -2.55,-1.3 -3.68,-1.75 -0.94,-0.37 -2.1,-0.49 -3.32,-0.6 -1.28,-0.12 -2.62,-0.24 -3.59,-0.7 -0.57,-0.27 -1.06,-0.73 -1.56,-1.21 -0.57,-0.53 -1.16,-1.09 -1.91,-1.43 -0.35,-0.16 -0.72,-0.21 -1.08,-0.27 -0.33,-0.05 -0.64,-0.1 -0.89,-0.23 -0.43,-0.2 -0.88,-0.6 -1.31,-0.99 -0.3,-0.28 -0.61,-0.55 -0.94,-0.78 -0.67,-0.48 -1.26,-0.85 -1.86,-1.19 -0.34,-0.19 -0.7,-0.33 -1.05,-0.48 -0.39,-0.16 -0.77,-0.31 -1.09,-0.5 -0.43,-0.26 -0.87,-0.65 -1.31,-1.02 -0.32,-0.27 -0.65,-0.55 -0.98,-0.78 -0.49,-0.36 -1,-0.71 -1.51,-1.08 -2.05,-1.43 -4.16,-2.89 -5.32,-4.61 -0.07,-0.1 -0.18,-0.17 -0.3,-0.18 -1.07,-0.13 -1.55,-0.75 -2.11,-1.47 -0.28,-0.36 -0.58,-0.75 -0.97,-1.08 -0.7,-0.59 -1.5,-1.09 -2.27,-1.59 -0.88,-0.55 -1.71,-1.08 -2.34,-1.69 -0.38,-0.37 -0.7,-0.79 -1.02,-1.2 -0.39,-0.5 -0.79,-1.03 -1.31,-1.46 -0.46,-0.39 -0.93,-0.72 -1.38,-1.04 -0.58,-0.42 -1.13,-0.8 -1.57,-1.25 -0.17,-0.17 -0.33,-0.28 -0.47,-0.38 -0.13,-0.09 -0.25,-0.16 -0.33,-0.26 -0.54,-0.61 -1.08,-1.32 -1.59,-2.01 -0.87,-1.16 -1.77,-2.37 -2.76,-3.15 -0.31,-0.25 -0.67,-0.44 -1.03,-0.61 -0.79,-0.4 -1.26,-0.68 -1.29,-1.23 -0.04,-0.82 1.05,-1.75 1.93,-2.5 0.7,-0.6 1.3,-1.1 1.5,-1.63 0.17,-0.41 0.19,-0.89 0.21,-1.36 0.02,-0.39 0.03,-0.81 0.13,-1.15 0.07,-0.24 0.25,-0.48 0.44,-0.72 0.21,-0.28 0.44,-0.57 0.55,-0.93 0.09,-0.29 0.09,-0.6 0.09,-0.91 0,-0.27 0,-0.52 0.07,-0.72 0.12,-0.33 0.32,-0.65 0.53,-1 0.16,-0.25 0.31,-0.51 0.44,-0.78 0.18,-0.36 0.31,-0.71 0.44,-1.05 0.12,-0.34 0.24,-0.66 0.39,-0.92 0.28,-0.55 0.67,-0.98 1.05,-1.41 0.52,-0.57 1.04,-1.17 1.3,-1.98 0.22,-0.75 0.28,-1.77 0.35,-2.75 0.04,-0.6 0.08,-1.24 0.16,-1.77 0.03,-0.19 0.13,-0.42 0.24,-0.63 0.12,-0.24 0.23,-0.47 0.26,-0.71 0.05,-0.43 0,-0.81 -0.06,-1.14 -0.06,-0.4 -0.09,-0.66 0.02,-0.85 0.22,-0.4 0.57,-0.59 1.09,-0.59 1.33,0 3.14,1.22 3.73,1.7 0.41,0.34 0.78,0.81 1.17,1.33 0.39,0.51 0.8,1.04 1.3,1.47 0.43,0.37 0.89,0.7 1.34,1.02 0.53,0.37 1.02,0.72 1.46,1.12 0.43,0.4 0.72,0.76 1.08,1.23 l 0.04,0.05 c 0.13,0.17 0.25,0.35 0.37,0.53 0.27,0.39 0.55,0.78 0.84,1.03 0.34,0.28 0.76,0.44 1.17,0.61 0.32,0.13 0.62,0.25 0.83,0.4 0.27,0.18 0.52,0.48 0.78,0.78 0.29,0.33 0.61,0.71 1.02,1.02 0.45,0.34 0.92,0.61 1.39,0.88 0.65,0.38 1.26,0.72 1.69,1.21 0.24,0.28 0.44,0.61 0.66,0.95 0.29,0.48 0.59,0.96 1.02,1.38 0.63,0.6 1.4,1 2.13,1.38 0.5,0.26 0.98,0.51 1.38,0.8 0.28,0.2 0.42,0.37 0.58,0.57 l 0.05,0.05 c 0.12,0.14 0.64,0.52 0.72,0.56 0.55,0.36 0.96,1.07 1.35,1.77 0.34,0.59 0.66,1.15 1.08,1.5 0.36,0.31 0.82,0.43 1.22,0.55 0.31,0.08 0.59,0.16 0.79,0.3 0.44,0.32 0.68,0.71 0.92,1.09 0.24,0.38 0.48,0.78 0.9,1.06 0.05,0.03 0.1,0.06 0.15,0.06 0.89,0.19 2.04,0.59 2.58,1.19 0.21,0.23 0.35,0.64 0.51,1.08 0.15,0.43 0.33,0.93 0.61,1.35 0.42,0.63 1.11,1.15 1.83,1.71 0.35,0.27 0.72,0.56 1.05,0.85 0.19,0.16 0.36,0.36 0.55,0.56 0.24,0.27 0.49,0.54 0.79,0.77 0.3,0.24 0.64,0.39 0.97,0.53 0.32,0.14 0.61,0.27 0.84,0.45 0.28,0.23 0.56,0.57 0.85,0.92 0.29,0.36 0.59,0.71 0.94,1.05 l 0.18,0.17 c 0.63,0.59 1.28,1.2 1.77,1.78 0.44,0.53 0.86,1.12 1.26,1.69 0.8,1.13 1.54,2.21 2.5,2.71 0.82,0.41 3.39,1.23 4.77,1.23 0.18,0 0.33,-0.01 0.46,-0.04 1.62,-0.32 2.54,-2.32 2.48,-4.06 -0.02,-0.61 -0.23,-1.14 -0.41,-1.62 -0.13,-0.32 -0.24,-0.63 -0.26,-0.87 -0.02,-0.4 0.08,-0.65 0.2,-0.98 0.17,-0.44 0.37,-0.99 0.3,-1.99 -0.04,-0.6 -0.24,-1.17 -0.43,-1.71 -0.19,-0.54 -0.36,-1.04 -0.4,-1.59 -0.04,-0.56 0.02,-1.21 0.08,-1.9 0.06,-0.69 0.12,-1.39 0.09,-2.05 -0.02,-0.35 -0.06,-0.7 -0.1,-1.02 -0.06,-0.49 -0.12,-0.96 -0.07,-1.39 0.05,-0.4 0.21,-0.8 0.39,-1.23 0.18,-0.45 0.37,-0.92 0.44,-1.41 0.45,-3.65 0.15,-7.76 -0.17,-11.32 -0.05,-0.49 -0.16,-1.06 -0.26,-1.6 -0.13,-0.62 -0.25,-1.26 -0.24,-1.65 0.01,-0.3 0.17,-0.68 0.32,-1.03 0.13,-0.35 0.28,-0.71 0.35,-1.07 0.17,-1.09 0.1,-2.2 0.04,-3.25 -0.06,-0.84 -0.1,-1.62 -0.04,-2.4 0.03,-0.39 0.17,-0.76 0.31,-1.15 0.15,-0.42 0.3,-0.84 0.35,-1.31 0.16,-1.49 0.1,-3.14 0.06,-4.74 -0.03,-0.79 -0.06,-1.62 -0.06,-2.41 0,-0.79 0.03,-1.68 0.06,-2.5 0.05,-1.64 0.11,-3.34 -0.06,-4.81 -0.05,-0.42 -0.15,-0.79 -0.26,-1.17 -0.11,-0.39 -0.21,-0.75 -0.24,-1.13 -0.03,-0.49 0,-1.01 0.04,-1.5 0.07,-1.02 0.13,-2.07 -0.32,-3.09 0.94,-1.87 0.88,-4.7 0.81,-7.68 -0.02,-0.75 -0.03,-1.5 -0.03,-2.25 v -0.94 c 0.02,-3.24 -0.02,-5.43 -0.66,-6.23 -0.11,-0.11 -0.2,-0.22 -0.3,-0.33 -0.74,-0.84 -1.59,-1.8 -3.12,-1.67 -1.52,0.12 -4.19,2.28 -4.35,4.35 -0.04,0.58 0.15,1.14 0.34,1.67 0.14,0.4 0.29,0.81 0.32,1.21 0.06,0.65 -0.11,1.28 -0.3,1.95 -0.15,0.56 -0.31,1.14 -0.36,1.79 -0.11,1.36 0.1,2.66 0.28,3.81 0.13,0.8 0.24,1.51 0.23,2.09 -0.06,0.03 -0.12,0.03 -0.15,0.03 -0.27,0 -0.61,-0.27 -0.95,-0.53 -0.19,-0.15 -0.39,-0.31 -0.6,-0.44 -0.63,-0.38 -1.58,-0.91 -2.63,-1.17 -1.22,-1.27 -2.69,-2.17 -4.25,-3.11 l -0.55,-0.34 c -1.01,-0.61 -2.09,-1.14 -3.15,-1.65 -0.76,-0.37 -1.55,-0.75 -2.32,-1.16 -0.82,-0.46 -1.63,-0.95 -2.41,-1.45 -1.02,-0.64 -2.09,-1.3 -3.21,-1.87 -0.34,-0.17 -0.69,-0.33 -1.04,-0.5 -0.64,-0.3 -1.3,-0.62 -1.91,-0.97 -0.39,-0.23 -0.76,-0.52 -1.16,-0.82 -0.48,-0.37 -0.97,-0.74 -1.5,-1.02 -0.48,-0.24 -0.99,-0.36 -1.48,-0.48 -0.42,-0.09 -0.82,-0.19 -1.18,-0.35 -0.68,-0.31 -1.3,-0.81 -1.9,-1.27 -0.54,-0.43 -1.09,-0.87 -1.71,-1.2 -0.57,-0.3 -1.2,-0.56 -1.81,-0.83 -0.5,-0.21 -1.03,-0.43 -1.5,-0.67 -0.37,-0.18 -0.77,-0.41 -1.16,-0.63 -0.78,-0.44 -1.58,-0.9 -2.23,-1.05 -0.34,-0.08 -0.76,-0.06 -1.15,-0.02 -0.32,0.03 -0.61,0.05 -0.86,0 -0.59,-0.1 -1.24,-0.45 -1.87,-0.79 -0.35,-0.19 -0.68,-0.36 -1.01,-0.5 -0.38,-0.16 -0.75,-0.35 -1.12,-0.54 -0.66,-0.34 -1.3,-0.65 -1.92,-0.81 -0.31,-0.08 -0.61,-0.09 -0.81,-0.09 -0.13,0 -0.25,0 -0.37,0 -0.11,0 -0.22,0 -0.33,0 -0.26,0 -0.43,-0.02 -0.58,-0.08 -0.35,-0.13 -0.8,-0.36 -0.85,-0.66 -0.1,-0.52 0.78,-1.32 1.37,-1.85 0.17,-0.16 0.32,-0.31 0.46,-0.44 0.22,-0.22 0.48,-0.46 0.74,-0.7 0.54,-0.51 1.11,-1.04 1.44,-1.48 0.21,-0.28 0.34,-0.55 0.46,-0.82 0.11,-0.23 0.21,-0.46 0.37,-0.66 0.64,-0.84 1.56,-1.24 2.88,-1.24 1.11,0 2.32,0.29 3.46,0.57 0.3,0.07 0.62,0.14 0.95,0.21 0.59,0.13 1.21,0.26 1.64,0.43 0.42,0.16 0.79,0.4 1.14,0.63 0.44,0.29 0.88,0.59 1.39,0.7 0.34,0.07 0.73,0.11 1.22,0.11 0.31,0 0.64,-0.01 0.97,-0.03 0.32,-0.01 0.64,-0.03 0.95,-0.03 0.48,0 0.84,0.04 1.15,0.11 0.4,0.1 0.76,0.35 1.11,0.6 0.35,0.24 0.69,0.47 1.06,0.55 0.42,0.09 0.94,0.06 1.42,0.02 0.41,-0.04 0.86,-0.06 1.25,0 0.51,0.06 1.09,0.29 1.66,0.49 0.32,0.11 0.62,0.23 0.91,0.32 0.42,0.12 0.82,0.19 1.21,0.26 0.38,0.05 0.74,0.12 1.11,0.23 0.22,0.07 0.44,0.21 0.68,0.36 0.29,0.17 0.61,0.37 0.98,0.47 0.44,0.13 0.93,0.21 1.39,0.29 0.39,0.06 0.76,0.13 1.11,0.21 0.42,0.11 0.82,0.25 1.24,0.41 0.39,0.15 0.8,0.3 1.22,0.41 0.57,0.16 1.18,0.21 1.77,0.26 0.57,0.05 1.11,0.09 1.51,0.23 0.43,0.14 0.94,0.39 1.47,0.65 0.69,0.33 1.47,0.72 2.33,1 0.61,0.2 1.24,0.46 1.85,0.71 0.76,0.31 1.48,0.6 2.14,0.79 0.72,0.2 1.38,0.04 2,0.17 0.4,0.08 0.75,0.21 1.08,0.35 0.45,0.17 0.88,0.34 1.36,0.34 0.13,0 0.25,0 0.37,-0.03 1.08,-0.2 1.96,-1.45 1.99,-2.37 0.06,-1.6 -1.51,-2.7 -2.65,-3.5 l -0.19,-0.13 c -2.13,-1.49 -3.02,-2.11 -5.71,-2.9 -0.33,-0.1 -0.68,-0.23 -1.01,-0.36 -0.51,-0.19 -1.04,-0.4 -1.52,-0.48 -0.24,-0.04 -0.5,-0.02 -0.76,0 -0.24,0.03 -0.5,0.05 -0.69,0 -0.34,-0.09 -0.67,-0.27 -1.02,-0.46 -0.35,-0.2 -0.72,-0.41 -1.13,-0.53 -0.56,-0.15 -1.11,-0.19 -1.64,-0.22 -0.58,-0.04 -1.13,-0.08 -1.63,-0.26 -0.51,-0.19 -1.01,-0.56 -1.48,-0.93 -0.52,-0.39 -1,-0.76 -1.52,-0.9 -0.32,-0.09 -0.74,-0.07 -1.12,-0.03 -0.27,0.03 -0.5,0.06 -0.74,0.02 -0.48,-0.08 -0.98,-0.33 -1.46,-0.59 -0.41,-0.21 -0.85,-0.43 -1.3,-0.55 -0.6,-0.17 -1.25,-0.31 -1.88,-0.44 l -0.3,-0.06 c -1.73,-0.36 -3.21,-0.8 -4.64,-1.23 -1.09,-0.32 -2.13,-0.64 -3.28,-0.91 -0.7,-0.17 -1.47,-0.31 -2.22,-0.45 -0.37,-0.06 -0.74,-0.14 -1.11,-0.21 -0.38,-0.08 -0.79,-0.18 -1.19,-0.29 -0.66,-0.17 -1.29,-0.33 -1.83,-0.38 -0.42,-0.04 -0.84,0.03 -1.23,0.09 -0.38,0.06 -0.73,0.12 -1.07,0.07 C 96.79,10.71 96.14,10.36 95.45,9.99 95.05,9.77 94.63,9.55 94.17,9.35 92.87,8.81 91.31,8.57 89.8,8.33 89.46,8.27 89.12,8.22 88.79,8.17 88.2,8.07 87.62,8.04 87.05,8.01 86.44,7.98 85.87,7.95 85.33,7.84 84.95,7.76 84.57,7.53 84.17,7.3 83.77,7.07 83.36,6.83 82.89,6.69 81.38,6.23 79.84,6.1 78.21,5.96 77.38,5.89 76.52,5.81 75.67,5.7 75.33,5.4 75.29,4.66 75.24,3.95 75.19,3.29 75.15,2.61 74.88,2.1 74.14,0.74 71.89,0 70.15,0 c -1.02,0 -1.87,0.23 -2.49,0.67 -1,0.71 -1.13,1.75 -1.25,2.77 -0.07,0.58 -0.15,1.17 -0.38,1.7 -0.9,2.07 -4.87,2.51 -8.37,2.89 -1.3,0.15 -2.52,0.28 -3.55,0.5 -1.13,0.23 -2.27,0.69 -3.28,1.09 -0.74,0.29 -1.43,0.57 -2.03,0.73 -0.92,0.25 -1.87,0.31 -2.8,0.38 -0.81,0.05 -1.65,0.11 -2.47,0.28 -0.41,0.09 -0.79,0.28 -1.15,0.46 -0.3,0.15 -0.58,0.3 -0.86,0.37 -1.55,0.42 -3.1,0.62 -4.73,0.82 -1.35,0.17 -2.76,0.35 -4.17,0.66 -0.54,0.12 -1.1,0.26 -1.67,0.41 -1.2,0.3 -2.44,0.62 -3.57,0.74 -0.38,0.04 -0.77,0.01 -1.15,0 -0.48,-0.03 -0.96,-0.05 -1.34,0 -0.75,0.09 -1.49,0.39 -2.21,0.69 -0.63,0.25 -1.29,0.52 -1.94,0.64 -0.24,0.04 -0.49,0.05 -0.71,0.05 h -0.6 c -0.36,0 -0.78,0.01 -1.21,0.12 -0.29,0.08 -0.56,0.24 -0.83,0.39 -0.18,0.11 -0.36,0.21 -0.55,0.29 -1.68,0.73 -3.5,1.35 -5.1,1.9 -0.57,0.19 -1.12,0.38 -1.64,0.56 -2.4,0.85 -4.97,2.02 -5.86,4.21 -0.15,0.35 -0.15,0.71 -0.15,1.03 0,0.19 0,0.37 -0.04,0.54 -0.26,1.32 -0.5,2.12 -0.86,3.34 l -0.08,0.28 c -0.17,0.62 0,2.18 0.23,4.17 l 0.06,0.44 c 0.04,0.32 0.12,0.61 0.19,0.87 0.08,0.28 0.15,0.51 0.13,0.7 -0.04,0.56 -0.31,1.05 -0.6,1.57 -0.32,0.57 -0.64,1.15 -0.71,1.9 -0.08,0.78 0.18,2.2 0.34,2.79 0.44,1.65 1.28,2 1.9,2 1.24,0 2.57,-1.37 3.47,-2.51 0.91,-1.17 1.2,-2.02 1.56,-3.11 0.07,-0.2 0.14,-0.42 0.24,-0.7 0.57,-2.33 0.35,-3.23 0.14,-4.09 -0.1,-0.43 -0.2,-0.84 -0.19,-1.44 0,-0.47 -0.1,-0.9 -0.2,-1.3 -0.09,-0.36 -0.17,-0.71 -0.14,-0.96 0.11,-0.88 1.39,-2.72 2.53,-3.13 0.62,-0.22 1.57,-0.31 2.57,-0.41 1.11,-0.11 2.36,-0.25 3.52,-0.57 0.61,-0.17 1.22,-0.55 1.81,-0.92 0.53,-0.33 1.07,-0.67 1.42,-0.71 0.32,-0.03 0.66,0.07 1,0.16 0.31,0.09 0.63,0.17 0.94,0.17 h 0.06 c 0.71,-0.1 2.48,-0.61 3.21,-0.85 0.18,-0.05 0.5,-0.21 1.04,-0.47 0.66,-0.33 1.57,-0.77 2.28,-1.02 0.37,-0.13 0.71,-0.26 1.05,-0.38 1.36,-0.51 2.54,-0.94 4.29,-1.08 0.23,-0.02 0.5,0 0.77,0.02 0.48,0.03 0.95,0.04 1.27,-0.03 0.68,-0.15 1.28,-0.48 1.87,-0.8 0.6,-0.32 1.16,-0.63 1.72,-0.69 0.38,-0.04 0.76,0.03 1.18,0.08 0.43,0.06 0.87,0.12 1.29,0.09 1.06,-0.09 2,-0.4 2.92,-0.69 0.82,-0.26 1.59,-0.51 2.42,-0.62 1.08,0.6 1.56,1.87 2.05,3.2 0.28,0.75 0.57,1.53 0.98,2.2 0.03,0.05 0.06,0.09 0.11,0.12 0.33,0.25 0.88,0.51 1.51,0.82 1.22,0.59 3.08,1.48 3.11,2.33 0.03,0.72 -0.46,0.93 -1.65,1.16 -0.11,0.02 -0.22,0.04 -0.33,0.07 -0.65,0.14 -1.09,0.24 -1.44,0.33 -0.67,0.16 -1.01,0.24 -1.82,0.33 -0.25,0.02 -0.64,0 -0.98,0 -0.4,-0.02 -0.71,-0.02 -0.87,0 -0.83,0.16 -1.77,0.58 -2.78,1.03 -0.93,0.41 -1.88,0.83 -2.89,1.13 -0.7,0.22 -1.44,0.41 -2.16,0.6 -1.37,0.36 -2.78,0.74 -3.99,1.23 -0.81,0.33 -1.54,0.82 -2.24,1.3 -0.7,0.47 -1.36,0.92 -2.04,1.18 -0.33,0.12 -0.7,0.18 -1.05,0.24 -0.37,0.06 -0.74,0.12 -1.1,0.25 -0.48,0.18 -0.94,0.52 -1.39,0.83 -0.39,0.28 -0.76,0.55 -1.07,0.65 -0.18,0.06 -0.47,0.08 -0.78,0.1 -0.46,0.03 -0.99,0.06 -1.52,0.23 -1.21,0.38 -2.51,1.09 -3.66,1.72 -0.99,0.54 -1.93,1.06 -2.6,1.24 -0.29,0.07 -0.77,0.12 -1.19,0.16 -0.48,0.05 -0.9,0.09 -1.15,0.18 -0.84,0.3 -1.75,1.08 -2.71,1.9 -0.45,0.39 -0.92,0.8 -1.37,1.14 -0.9,0.67 -2,1.15 -3.06,1.59 -0.94,0.41 -1.9,0.82 -2.7,1.37 C 7.73,45.74 7.52,45.86 7.29,45.98 7.11,46.07 6.94,46.17 6.77,46.26 4.59,47.58 1.79,50.3 2.11,51.8 2.15,52.96 2,54.09 1.85,55.19 1.65,56.73 1.44,58.32 1.76,59.97 1.67,60.25 1.54,60.45 1.4,60.66 1.18,61 0.93,61.39 0.84,62.02 c -0.18,0.82 -0.03,5.32 1.33,7.29 0.41,0.58 0.89,0.93 1.45,1.02 0.06,0 0.13,0 0.19,0 1.37,0 3.44,-2.09 4,-2.82 0.37,-0.48 1.28,-2.04 1.4,-2.66 C 9.34,64.22 9.29,63.6 9.24,63 9.2,62.54 9.16,62.09 9.22,61.69 c 0.04,-0.31 0.17,-0.64 0.3,-1 0.14,-0.36 0.28,-0.74 0.35,-1.13 0.09,-0.49 0.13,-0.95 0.18,-1.39 0.09,-0.95 0.19,-1.76 0.59,-2.42 0.16,-0.26 0.49,-0.5 0.84,-0.76 0.44,-0.32 0.94,-0.69 1.3,-1.21 0.27,-0.4 0.42,-0.85 0.56,-1.23 0.15,-0.43 0.27,-0.8 0.51,-0.98 0.19,-0.15 0.52,-0.23 0.87,-0.3 0.35,-0.08 0.7,-0.16 1.04,-0.32 0.42,-0.2 0.82,-0.48 1.2,-0.77 0.36,-0.26 0.74,-0.52 1.12,-0.71 1.78,-0.91 3.1,-1.84 4.56,-3.22 0.24,-0.23 0.47,-0.46 0.69,-0.69 0.43,-0.46 0.8,-0.85 1.2,-1.05 0.33,-0.17 0.74,-0.23 1.15,-0.31 0.44,-0.07 0.91,-0.14 1.32,-0.35 0.46,-0.23 0.8,-0.59 1.12,-0.93 0.28,-0.3 0.57,-0.61 0.95,-0.84 1.81,0.04 2.84,-0.83 3.74,-1.59 0.43,-0.36 0.83,-0.7 1.3,-0.94 0.37,-0.19 0.92,-0.31 1.5,-0.44 0.46,-0.1 0.94,-0.2 1.41,-0.36 0.52,-0.18 0.86,-0.35 1.16,-0.5 0.63,-0.31 1.08,-0.53 2.83,-0.47 0.05,0 0.1,0 0.15,-0.02 0.42,-0.16 0.76,-0.42 1.11,-0.66 0.37,-0.28 0.73,-0.54 1.17,-0.66 0.19,-0.05 0.46,-0.03 0.76,0 0.34,0.04 0.72,0.07 1.03,0 0.47,-0.1 0.92,-0.36 1.39,-0.64 0.67,-0.4 1.39,-0.8 2.09,-0.68 0.14,0.03 0.28,-0.02 0.38,-0.12 0.83,-0.89 1.91,-1.29 2.85,-1.64 0.22,-0.09 0.44,-0.17 0.63,-0.25 l 0.41,-0.17 c 1.39,-0.58 3.5,-1.46 5.07,-1.46 h 0.13 c 0.31,0.01 0.63,0.12 0.96,0.23 0.44,0.15 0.9,0.31 1.4,0.27 0.67,-0.06 1.28,-0.4 1.87,-0.72 0.63,-0.35 1.22,-0.69 1.87,-0.69 0.35,0 0.69,0.1 1.04,0.31 0.41,0.37 0.5,1.24 0.58,2.08 0.04,0.38 0.07,0.78 0.15,1.16 0.09,0.45 0.24,0.89 0.41,1.31 0.19,0.5 0.37,0.97 0.41,1.46 0.1,1.15 0.05,2.42 0,3.76 -0.07,1.44 -0.13,2.92 0,4.34 0.04,0.4 0.15,0.78 0.26,1.14 0.12,0.4 0.24,0.77 0.23,1.12 0,0.31 -0.13,0.68 -0.24,1.04 -0.11,0.36 -0.22,0.72 -0.26,1.08 -0.24,2.59 -0.24,5.65 0,8.02 0.05,0.45 0.2,0.88 0.34,1.29 0.15,0.4 0.28,0.79 0.32,1.17 0.13,1.33 0.13,2.78 0,3.88 -0.03,0.24 -0.14,0.57 -0.27,0.9 -0.15,0.42 -0.33,0.9 -0.39,1.41 -0.28,2.33 0.17,4.49 1.2,5.64 0.66,0.75 1.57,1.08 2.58,0.95 1.27,-0.17 1.68,-1.3 2.15,-2.6 0.14,-0.42 0.3,-0.84 0.49,-1.28 0.13,-0.31 0.32,-0.6 0.49,-0.88 0.33,-0.52 0.67,-1.07 0.7,-1.73 0.02,-0.4 -0.1,-0.77 -0.23,-1.18 -0.11,-0.33 -0.23,-0.66 -0.27,-1.04 -0.13,-1.18 0.13,-2.2 0.37,-3.1 0.15,-0.58 0.29,-1.14 0.3,-1.65 0,-0.52 -0.14,-0.99 -0.28,-1.44 -0.09,-0.32 -0.19,-0.63 -0.22,-0.92 -0.07,-0.72 0.06,-1.37 0.2,-2.13 0.12,-0.6 0.25,-1.28 0.29,-2.09 0.05,-0.83 -0.05,-1.85 -0.13,-2.85 L 74.47,49.38 C 74.41,48.67 74.34,47.92 74.26,47.15 74.04,45 73.82,42.78 73.82,40.66 c 0,-0.67 0.08,-1.36 0.17,-2.03 0.08,-0.64 0.16,-1.31 0.16,-1.94 0,-1.46 0.13,-2.13 0.34,-3.24 0.04,-0.24 0.1,-0.51 0.15,-0.81 l 0.1,-0.56 c 0.17,-0.94 0.25,-1.47 0.46,-1.7 0.2,-0.23 0.69,-0.34 1.59,-0.54 0.39,-0.09 0.74,-0.18 1.06,-0.25 1.4,-0.33 2.25,-0.53 3.73,-0.56 0.29,0.12 0.54,0.32 0.82,0.56 0.29,0.25 0.63,0.52 1.06,0.72 0.36,0.17 0.76,0.28 1.13,0.38 0.61,0.17 1.18,0.32 1.56,0.7 0.08,0.08 0.19,0.13 0.3,0.12 h 0.08 c 1.51,0 2.84,0.78 4.02,1.47 0.52,0.31 1.02,0.59 1.5,0.8 0.33,0.15 0.65,0.22 0.94,0.29 0.27,0.05 0.5,0.11 0.69,0.2 0.65,0.32 1.18,0.76 1.7,1.18 0.76,0.62 1.46,1.19 2.39,1.33 0.47,0.07 0.98,-0.01 1.4,-0.1 0.35,-0.06 0.69,-0.12 0.89,-0.08 0.35,0.08 0.61,0.31 0.94,0.6 0.25,0.22 0.54,0.47 0.92,0.69 0.31,0.16 0.68,0.25 1.03,0.34 0.34,0.08 0.69,0.17 0.96,0.31 0.56,0.3 1.1,0.62 1.62,0.94 0.63,0.39 1.23,0.75 1.86,1.05 0.35,0.18 0.71,0.35 1.05,0.51 0.91,0.43 1.76,0.84 2.56,1.29 0.48,0.27 0.87,0.57 1.29,0.89 l 0.31,0.25 c 0.66,0.49 1.34,0.87 2,1.25 0.53,0.3 1.02,0.58 1.48,0.9 0.38,0.26 0.73,0.61 1.1,0.97 0.44,0.43 0.89,0.87 1.4,1.19 0.35,0.21 0.72,0.33 1.09,0.46 0.32,0.11 0.63,0.21 0.91,0.38 0.41,0.23 0.77,0.58 1.16,0.97 0.35,0.34 0.7,0.69 1.12,0.99 0.64,0.44 1.27,0.85 1.88,1.24 1.18,0.78 2.3,1.5 3.38,2.37 0.28,0.22 0.55,0.47 0.83,0.7 0.56,0.5 1.15,1.02 1.71,1.32 0.43,0.24 0.88,0.33 1.28,0.41 0.32,0.06 0.63,0.13 0.88,0.26 2.01,1.05 3.17,3.34 3.41,5.13 0.07,0.56 0.05,1.15 0.02,1.73 -0.02,0.46 -0.05,0.92 -0.02,1.38 0.05,0.92 0.21,1.82 0.37,2.69 0.12,0.68 0.24,1.33 0.3,1.95 0.17,1.71 0.07,3.39 0,5.03 -0.09,1.69 -0.18,3.44 0,5.22 0.06,0.61 0.11,1.13 0.1,1.73 0,0.31 -0.06,0.53 -0.13,0.8 -0.04,0.2 -0.1,0.41 -0.14,0.67 -0.13,0.87 0.04,1.75 0.22,2.69 0.13,0.7 0.27,1.44 0.27,2.17 0,0.55 -0.09,1.11 -0.18,1.71 -0.14,0.93 -0.28,1.89 -0.15,2.96 0.04,0.32 0.15,0.62 0.26,0.91 0.1,0.25 0.19,0.49 0.24,0.75 0.11,0.69 0.18,1.58 0.26,2.52 l 0.06,0.75 c 0.04,0.51 -0.02,0.98 -0.09,1.44 -0.05,0.37 -0.1,0.71 -0.08,1.03 0.05,0.83 0.24,1.6 0.4,2.29 0.19,0.76 0.34,1.41 0.27,1.92 -0.14,0.96 -0.86,1.77 -1.28,1.79 -0.5,0 -1.59,-1.14 -2.31,-1.88 -0.42,-0.44 -0.82,-0.86 -1.17,-1.17 -0.5,-0.43 -1.26,-1.05 -2.04,-1.52 -0.37,-0.22 -0.77,-0.42 -1.12,-0.59 -0.47,-0.23 -0.91,-0.44 -1.09,-0.65 -0.25,-0.3 -0.43,-0.78 -0.59,-1.24 -0.2,-0.57 -0.4,-1.12 -0.78,-1.45 -0.46,-0.41 -1.04,-0.54 -1.59,-0.67 -0.41,-0.09 -0.78,-0.19 -1.11,-0.37 -0.46,-0.26 -0.8,-0.77 -1.2,-1.36 -0.32,-0.49 -0.69,-1.04 -1.19,-1.55 -0.43,-0.44 -0.96,-0.77 -1.43,-1.05 -0.42,-0.26 -0.8,-0.5 -1.04,-0.75 -0.22,-0.25 -0.39,-0.59 -0.56,-0.95 -0.21,-0.43 -0.43,-0.88 -0.78,-1.21 -0.35,-0.35 -0.82,-0.56 -1.26,-0.77 -0.38,-0.17 -0.77,-0.34 -1.08,-0.59 -0.44,-0.34 -0.84,-0.83 -1.24,-1.31 -0.39,-0.47 -0.78,-0.95 -1.23,-1.32 -0.66,-0.55 -1.41,-1.03 -2.13,-1.51 -0.91,-0.58 -1.85,-1.2 -2.63,-1.95 -0.33,-0.32 -0.61,-0.72 -0.9,-1.13 -0.33,-0.47 -0.66,-0.96 -1.09,-1.35 -0.72,-0.65 -1.61,-1.23 -2.47,-1.79 -1.15,-0.75 -2.34,-1.53 -3.1,-2.46 -0.29,-0.35 -0.53,-0.74 -0.76,-1.12 -0.39,-0.62 -0.75,-1.2 -1.3,-1.59 -0.6,-0.43 -1.29,-0.63 -1.95,-0.83 -0.5,-0.15 -0.98,-0.3 -1.39,-0.52 -0.59,-0.32 -1.06,-0.81 -1.56,-1.32 -0.37,-0.4 -0.76,-0.8 -1.2,-1.13 -1.59,-1.17 -4.59,-3.44 -4.62,-3.46 -0.09,-0.08 -2.39,-1.85 -4.54,-1.85 -0.34,0 -0.66,0.04 -0.95,0.13 -1.02,0.3 -1.72,1.97 -2.35,3.67 l -0.08,0.22 c -0.27,0.73 -0.48,1.46 -0.68,2.37 -0.09,0.44 -0.13,0.87 -0.16,1.3 -0.03,0.46 -0.06,0.9 -0.17,1.32 -0.27,1.09 -0.86,2.05 -1.43,2.99 -0.51,0.84 -1,1.63 -1.21,2.46 -0.11,0.42 -0.11,0.85 -0.11,1.26 0,0.33 0,0.64 -0.06,0.91 -0.52,2.35 -1.94,4.62 -3.08,6.43 l -0.34,0.54 c -0.29,0.46 -0.48,0.94 -0.67,1.41 -0.16,0.39 -0.31,0.77 -0.49,1.08 -0.2,0.31 -0.5,0.62 -0.8,0.91 -0.23,0.22 -0.46,0.45 -0.65,0.7 -0.17,0.22 -0.31,0.44 -0.43,0.65 -0.29,0.5 -0.46,0.77 -0.82,0.83 -1.54,-0.76 -2.42,-2.8 -3.26,-4.78 -0.67,-1.59 -1.37,-3.23 -2.44,-4.25 -0.74,-0.71 -0.76,-1.4 -0.78,-1.81 V 81.99 C 63.47,80.92 63.24,80.55 62.92,80.14 62.78,79.97 62.66,79.82 62.57,79.5 62.44,79.08 62.33,78.64 62.24,78.22 62.13,77.74 62.03,77.32 61.9,77 c -0.19,-0.48 -0.48,-0.94 -0.77,-1.39 -0.29,-0.43 -0.56,-0.85 -0.71,-1.26 -0.28,-0.73 -0.5,-1.51 -0.7,-2.25 -0.27,-0.95 -0.55,-1.94 -0.95,-2.88 -0.78,-1.79 -1.72,-3.75 -3.06,-4.2 -0.5,-0.17 -1.2,-0.26 -1.97,-0.26 -0.77,0 -1.48,0.08 -2.08,0.25 -0.52,0.15 -1.04,0.57 -1.65,1.05 -0.36,0.28 -0.72,0.57 -1.11,0.83 -0.41,0.28 -0.86,0.51 -1.29,0.74 -0.57,0.3 -1.1,0.59 -1.54,0.93 -0.38,0.29 -0.71,0.6 -1.02,0.91 -0.42,0.39 -0.8,0.77 -1.26,1.05 -0.56,0.34 -1.32,0.64 -2.06,0.93 -1.05,0.4 -2.13,0.82 -2.79,1.44 -0.43,0.39 -0.75,0.93 -1.09,1.5 -0.36,0.61 -0.72,1.22 -1.21,1.61 -0.51,0.41 -1.2,0.75 -1.92,1.1 -0.81,0.39 -1.65,0.81 -2.37,1.37 -0.45,0.36 -0.78,0.78 -1.06,1.15 -0.25,0.33 -0.48,0.62 -0.75,0.83 -0.72,0.55 -1.59,1.02 -2.35,1.27 -0.35,0.11 -0.71,0.15 -1.07,0.2 -0.48,0.06 -0.94,0.1 -1.33,0.33 -0.65,0.38 -0.93,1.06 -1.17,1.66 -0.17,0.41 -0.33,0.8 -0.57,1.05 -0.3,0.3 -0.77,0.47 -1.26,0.67 -0.54,0.21 -1.08,0.42 -1.52,0.8 -0.41,0.37 -0.68,0.84 -0.94,1.32 -0.26,0.46 -0.5,0.9 -0.84,1.13 -0.24,0.17 -0.54,0.24 -0.85,0.32 -0.4,0.1 -0.82,0.21 -1.18,0.54 -0.41,0.36 -0.62,0.83 -0.82,1.28 -0.16,0.34 -0.31,0.66 -0.53,0.89 -0.28,0.31 -0.67,0.53 -1.09,0.77 -0.35,0.2 -0.71,0.41 -1.03,0.69 -0.67,0.59 -1.37,1.42 -2.05,2.22 -0.87,1.04 -1.96,2.32 -2.48,2.32 C 7.81,97.15 6.72,96.64 6.76,94.85 6.78,94.39 7.02,94.1 7.46,93.65 7.85,93.23 8.29,92.76 8.56,92.01 8.65,91.75 8.62,91.45 8.59,91.13 8.56,90.86 8.53,90.57 8.58,90.29 8.62,90.02 8.8,89.69 8.97,89.37 9.15,89.03 9.34,88.68 9.4,88.32 9.46,88 9.44,87.63 9.42,87.28 9.4,87 9.39,86.71 9.42,86.48 9.45,86.16 9.53,85.88 9.61,85.63 9.7,85.29 9.8,85.01 9.75,84.71 9.68,84.28 9.27,83.58 8.35,82.37 L 8.27,82.26 C 7.85,81.7 7.14,80.77 6.29,80.56 6.07,80.51 5.85,80.49 5.62,80.49 c -0.62,0 -1.15,0.2 -1.61,0.38 -0.2,0.07 -0.39,0.15 -0.57,0.2 -0.18,0.05 -0.38,0.08 -0.6,0.11 -0.69,0.1 -1.62,0.24 -1.85,1.36 v 0.05 c -0.06,0.62 0.25,1.11 0.52,1.53 0.23,0.37 0.45,0.72 0.46,1.15 0.02,0.61 -0.32,1.22 -0.68,1.87 -0.35,0.63 -0.7,1.28 -0.8,2.03 -0.24,1.77 0.31,2.72 0.84,3.65 0.24,0.41 0.49,0.84 0.67,1.34 0.06,0.17 0.1,0.41 0.14,0.69 0.05,0.28 0.09,0.6 0.18,0.94 0.28,1.06 0.44,2.06 0.62,3.23 0.06,0.39 0.13,0.78 0.2,1.2 l 0.06,0.35 c 0.16,0.96 0.33,1.94 0.27,2.49 -0.06,0.46 -0.29,0.9 -0.54,1.36 -0.27,0.5 -0.55,1.02 -0.62,1.61 -0.04,0.37 0.07,0.73 0.18,1.04 0.07,0.25 0.15,0.46 0.15,0.65 0,0.29 -0.12,0.63 -0.24,0.97 -0.12,0.33 -0.23,0.67 -0.26,0.99 -0.05,0.62 0.01,1.27 0.07,1.91 0.04,0.47 0.09,0.95 0.09,1.43 0,0.35 -0.04,0.73 -0.09,1.11 -0.06,0.5 -0.11,0.97 -0.07,1.39 0.04,0.43 0.19,0.84 0.35,1.23 0.16,0.43 0.32,0.82 0.31,1.21 0,0.43 -0.17,0.96 -0.34,1.52 -0.32,1.02 -0.67,2.19 -0.35,3.41 -0.12,0.26 -0.28,0.5 -0.46,0.76 -0.36,0.54 -0.77,1.14 -0.84,2.05 -0.09,1.12 0.45,2.13 0.97,3.09 0.19,0.35 0.39,0.71 0.55,1.08 0.11,0.23 0.21,0.47 0.3,0.71 0.5,1.22 1.03,2.48 2.42,2.51 0.71,0 1.44,-0.38 2.11,-1.1 1.19,-1.29 2,-3.42 1.92,-4.48 0,0 0,-0.02 0,-0.04 -0.05,-0.27 -0.14,-0.55 -0.23,-0.82 -0.13,-0.37 -0.25,-0.75 -0.26,-1.09 0,-0.02 0.04,-0.06 0.06,-0.09 0.08,-0.1 0.2,-0.25 0.26,-0.48 0.06,-0.23 0.04,-0.51 0.02,-0.74 0,-0.11 -0.02,-0.23 0,-0.3 0.04,-0.37 0.13,-0.8 0.21,-1.15 0.08,-0.4 0.12,-0.58 0.12,-0.72 0,-0.33 -0.1,-0.65 -0.19,-0.93 -0.08,-0.26 -0.15,-0.5 -0.14,-0.68 0.02,-0.24 0.05,-0.49 0.07,-0.76 0.06,-0.6 0.12,-1.21 0.14,-1.66 0.07,-0.54 -0.06,-1.02 -0.18,-1.49 -0.14,-0.54 -0.28,-1.05 -0.16,-1.65 0.39,-0.56 0.66,-1.07 0.89,-1.5 0.41,-0.77 0.72,-1.37 1.57,-2.07 0.07,-0.06 0.12,-0.14 0.15,-0.23 l 0.06,-0.29 c 0.19,-0.88 0.35,-1.64 0.73,-2.43 0.24,-0.49 0.65,-0.94 1.06,-1.38 0.4,-0.44 0.82,-0.9 1.09,-1.42 0.17,-0.32 0.22,-0.68 0.28,-1.02 0.05,-0.3 0.09,-0.59 0.21,-0.79 0.56,-1.02 1.92,-2.31 3.02,-3.34 l 0.37,-0.36 c 0.15,-0.14 0.3,-0.27 0.44,-0.4 0.49,-0.46 0.96,-0.89 1.42,-1.45 0.24,-0.3 0.46,-0.61 0.68,-0.92 0.32,-0.45 0.62,-0.88 0.94,-1.19 0.99,-0.98 2.28,-1.7 3.52,-2.41 0.57,-0.32 1.16,-0.66 1.7,-1 0.72,-0.48 1.26,-1.18 1.78,-1.85 0.1,-0.13 0.2,-0.26 0.31,-0.39 0.5,-0.65 1.06,-1.24 1.78,-1.94 3.85,-3.7 7.37,-6.4 10.47,-8.03 0.27,-0.14 0.56,-0.27 0.85,-0.4 0.66,-0.31 1.28,-0.6 1.72,-0.98 0.48,-0.43 0.84,-0.99 1.18,-1.53 0.56,-0.87 1.09,-1.7 2.13,-2.02 0.09,-0.03 0.25,0 0.44,0.02 0.32,0.05 0.77,0.08 1.18,0 0.62,-0.15 1.11,-0.49 1.5,-0.77 0.26,-0.19 0.54,-0.38 0.7,-0.38 v 0 c 0.7,0.02 2.04,1.24 2.45,2.08 0.17,0.34 0.24,0.77 0.33,1.21 0.08,0.42 0.16,0.85 0.32,1.24 0.16,0.38 0.43,0.82 0.7,1.25 0.17,0.28 0.34,0.54 0.47,0.78 0.17,0.32 0.32,0.68 0.47,1.03 0.17,0.41 0.32,0.8 0.53,1.14 0.35,0.58 0.86,1.02 1.35,1.46 0.43,0.39 0.84,0.75 1.14,1.2 0.68,1 1.24,2.15 1.83,3.37 0.55,1.13 1.11,2.31 1.8,3.39 0.65,1.02 1.32,1.97 2.03,2.98 l 0.13,0.17 c 0.33,0.46 0.71,0.91 1.07,1.33 0.48,0.56 0.94,1.08 1.21,1.6 0.12,0.21 0.17,0.46 0.22,0.73 0.06,0.28 0.12,0.59 0.27,0.9 0.15,0.3 0.39,0.57 0.64,0.85 0.19,0.23 0.4,0.46 0.54,0.68 0.15,0.25 0.28,0.54 0.41,0.8 0.19,0.4 0.37,0.79 0.62,1.07 0.29,0.32 0.67,0.57 1.04,0.79 0.3,0.18 0.58,0.35 0.8,0.56 0.54,0.49 1,1.13 1.49,1.8 0.45,0.63 0.91,1.27 1.47,1.83 0.28,0.29 0.61,0.52 0.92,0.74 0.33,0.24 0.64,0.46 0.89,0.73 0.24,0.26 0.45,0.58 0.66,0.9 0.27,0.43 0.53,0.83 0.87,1.12 0.39,0.31 0.85,0.5 1.31,0.67 0.39,0.15 0.75,0.3 1.02,0.5 0.75,0.57 1.37,1.38 2.04,2.24 0.54,0.69 1.09,1.4 1.72,2.02 0.65,0.63 1.42,1.14 2.16,1.65 0.66,0.44 1.28,0.85 1.81,1.33 0.42,0.38 0.78,0.77 1.17,1.18 0.45,0.49 0.92,0.99 1.49,1.47 0.46,0.39 0.87,0.83 1.3,1.3 0.42,0.46 0.85,0.92 1.33,1.34 0.04,0.03 0.07,0.06 0.11,0.07 1.43,0.58 2.67,1.13 3.25,2.28 0.17,0.34 0.25,0.74 0.34,1.16 0.09,0.48 0.2,1 0.45,1.49 -1.49,1 -2.35,2.34 -3.28,4.24 -0.78,1.61 -1.17,2.66 -1.2,3.31 -0.02,0.44 0.13,0.88 0.28,1.3 0.13,0.36 0.24,0.71 0.22,0.99 -0.03,0.36 -0.2,0.72 -0.37,1.11 -0.2,0.43 -0.4,0.86 -0.45,1.36 -0.12,1.09 0.02,2.06 0.14,2.92 0.19,1.38 0.27,2.21 -0.4,2.84 -0.72,0.09 -1.55,-0.2 -2.4,-0.51 -0.53,-0.18 -1.07,-0.38 -1.62,-0.5 -0.33,-0.07 -0.63,-0.07 -0.93,-0.07 -0.3,0 -0.59,0 -0.86,-0.09 -0.36,-0.11 -0.69,-0.29 -1.06,-0.48 -0.34,-0.19 -0.69,-0.38 -1.08,-0.51 -0.29,-0.09 -0.59,-0.16 -0.87,-0.23 -0.88,-0.2 -1.64,-0.39 -1.98,-1.11 0,-0.21 0,-0.44 0,-0.66 0.01,-0.68 0.03,-1.37 -0.2,-1.9 -0.05,-0.11 -0.13,-0.19 -0.24,-0.23 -0.33,-0.12 -0.68,-0.34 -1.04,-0.59 -0.69,-0.45 -1.48,-0.97 -2.45,-0.97 -0.17,0 -0.35,0.01 -0.52,0.05 -0.98,0.19 -1.58,1.33 -2.17,2.43 -0.37,0.7 -0.75,1.41 -1.18,1.81 -0.47,0.42 -1.07,0.68 -1.84,1.02 -0.17,0.07 -0.34,0.15 -0.52,0.23 -0.21,0.09 -0.42,0.19 -0.62,0.28 -0.63,0.3 -1.23,0.57 -1.78,0.68 -0.28,0.06 -0.54,0.1 -0.76,0.15 -1.72,0.34 -2.16,0.42 -3.61,1.66 -2.65,0.05 -4.61,0.81 -6.87,1.69 l -0.39,0.15 c -0.32,0.13 -0.66,0.24 -0.98,0.35 -0.87,0.31 -1.69,0.6 -2.26,1.02 -1.28,0.96 -3.31,3.8 -3.45,5.9 -0.05,0.78 0.15,1.4 0.59,1.84 0.55,0.55 1.54,0.63 2.45,0.63 0.26,0 0.51,0 0.77,-0.02 0.43,0 0.84,-0.02 1.17,0 0.09,0 0.18,-0.02 0.25,-0.06 1.59,-0.95 3.45,-1.71 5.25,-2.44 1.18,-0.47 2.39,-0.97 3.48,-1.5 0.42,-0.21 0.8,-0.44 1.17,-0.66 0.54,-0.32 1.04,-0.63 1.59,-0.82 0.27,-0.09 0.57,-0.14 0.9,-0.19 0.41,-0.07 0.84,-0.14 1.26,-0.31 0.59,-0.23 1.11,-0.56 1.61,-0.88 0.6,-0.39 1.17,-0.76 1.81,-0.92 1.24,-0.3 2.58,-0.19 4.24,0.32 0.1,0.04 0.22,0.03 0.31,-0.02 0.61,-0.3 1.24,-0.43 1.91,-0.43 1.11,0 2.18,0.39 3.22,0.76 0.34,0.13 0.68,0.25 1,0.36 0.52,0.16 1.02,0.42 1.54,0.69 0.69,0.36 1.4,0.73 2.28,0.96 0.29,0.08 0.63,0.06 0.96,0.02 0.19,-0.02 0.37,-0.06 0.55,-0.02 0.2,0.04 0.38,0.17 0.59,0.33 0.23,0.16 0.49,0.35 0.83,0.47 0.39,0.15 0.82,0.21 1.2,0.28 0.35,0.06 0.7,0.11 0.91,0.2 0.89,0.42 2.22,1.72 2.41,2.52 0.52,2.26 -0.76,4.72 -1.87,5.14 0,0 -0.13,0.03 -0.64,0.03 -0.95,0 -2.15,-0.11 -2.39,-0.2 -0.21,-0.08 -0.41,-0.28 -0.63,-0.51 -0.26,-0.27 -0.55,-0.57 -0.97,-0.79 -1.11,-0.6 -2.43,-0.69 -3.83,-0.78 -1.01,-0.06 -2.06,-0.13 -3.02,-0.41 -0.45,-0.13 -2.23,-1.28 -2.42,-1.49 -0.13,-0.19 -0.21,-0.52 -0.3,-0.84 -0.19,-0.7 -0.42,-1.57 -1.25,-1.8 -0.2,-0.06 -0.4,-0.08 -0.59,-0.08 -1.14,0 -2.03,0.9 -2.82,1.7 -0.42,0.43 -0.82,0.83 -1.21,1.06 -0.22,0.13 -0.48,0.17 -0.78,0.2 -0.34,0.04 -0.72,0.09 -1.15,0.27 -0.45,0.19 -0.83,0.51 -1.25,0.87 -0.43,0.36 -0.88,0.74 -1.39,0.94 -0.2,0.08 -0.5,0.12 -0.77,0.16 -0.29,0.04 -0.58,0.08 -0.85,0.16 -0.98,0.31 -1.72,0.72 -2.43,1.09 -0.26,0.14 -0.51,0.29 -0.78,0.42 -0.28,0.14 -0.6,0.24 -0.91,0.32 -0.33,0.1 -0.65,0.2 -0.92,0.34 -0.91,0.51 -1.46,1.15 -1.95,1.71 -0.5,0.59 -0.91,1.05 -1.59,1.23 -0.07,0.02 -0.36,0.01 -0.65,-0.01 -0.39,-0.03 -0.82,-0.05 -1.13,0 -0.97,0.18 -2.43,1.06 -3.14,1.56 -1.04,0.73 -2.04,1.99 -1.93,3.17 0.04,0.47 0.28,1.11 1.17,1.52 0.5,0.23 1.13,0.13 1.69,0 0.37,-0.09 0.72,-0.18 1.08,-0.13 0.41,0.06 0.69,0.24 0.98,0.46 0.36,0.24 0.77,0.54 1.39,0.54 0.08,0 0.17,-0.02 0.24,-0.07 0.98,-0.68 1.99,-1.04 3.07,-1.43 0.69,-0.24 1.4,-0.5 2.15,-0.86 0.46,-0.22 0.98,-0.38 1.48,-0.54 0.56,-0.18 1.13,-0.36 1.67,-0.63 0.47,-0.22 0.9,-0.53 1.31,-0.82 0.35,-0.25 0.67,-0.48 1.01,-0.67 0.51,-0.28 1.05,-0.47 1.61,-0.67 0.39,-0.14 0.78,-0.29 1.17,-0.47 0.35,-0.15 0.66,-0.35 0.96,-0.55 0.38,-0.25 0.74,-0.49 1.13,-0.59 0.2,-0.06 0.49,-0.06 0.8,-0.07 0.32,0 0.65,-0.02 0.98,-0.08 0.24,-0.05 0.46,-0.11 0.68,-0.18 0.32,-0.09 0.61,-0.18 0.85,-0.15 0.41,0.04 0.8,0.31 1.22,0.59 0.48,0.33 0.98,0.65 1.58,0.72 0.48,0.06 0.95,-0.06 1.39,-0.17 0.39,-0.09 0.74,-0.19 1.09,-0.15 0.26,0.02 0.56,0.18 0.88,0.35 0.37,0.18 0.79,0.4 1.25,0.47 0.28,0.05 0.63,0.03 0.94,0 0.26,-0.02 0.52,-0.04 0.69,0 0.56,0.13 1.1,0.42 1.68,0.74 0.86,0.48 1.75,0.96 2.85,0.96 0.14,0 0.28,0 0.42,-0.02 2.28,1.58 4.48,4.4 3.34,7.34 -0.19,0.48 -0.59,0.74 -1.11,1.04 -0.13,0.08 -0.25,0.16 -0.39,0.24 -0.13,0.08 -0.26,0.17 -0.39,0.25 -0.54,0.38 -1.1,0.76 -1.6,0.83 -0.2,0.04 -0.4,0.06 -0.63,0.06 -0.76,0 -1.56,-0.19 -2.41,-0.38 -0.87,-0.2 -1.76,-0.41 -2.65,-0.41 -0.43,0 -0.83,0.05 -1.21,0.15 -0.22,0.05 -0.44,0.13 -0.68,0.21 -0.59,0.2 -1.26,0.43 -2.1,0.43 -0.25,0 -0.5,-0.02 -0.76,-0.06 -0.21,-0.03 -0.48,-0.09 -0.79,-0.18 -0.7,-0.18 -1.58,-0.4 -2.64,-0.4 -0.55,0 -1.11,0.07 -1.62,0.18 -0.71,0.09 -1.36,0.15 -1.99,0.15 -0.94,0 -1.68,-0.11 -2.32,-0.2 -0.92,-0.13 -1.8,-0.23 -2.67,-0.05 -0.02,0 -0.04,0.02 -0.06,0.02 -0.76,0.29 -1.65,0.47 -2.65,0.54 -0.31,-0.04 -0.48,-0.12 -0.73,-0.24 -0.32,-0.14 -0.71,-0.32 -1.5,-0.49 -0.24,-0.06 -0.48,-0.08 -0.73,-0.08 -0.69,0 -1.39,0.18 -2.13,0.37 -0.5,0.13 -1.02,0.27 -1.59,0.35 -0.52,0.09 -1.03,0.1 -1.53,0.1 -0.69,0 -1.36,0.02 -1.89,0.28 -1.07,0.51 -2.49,3.49 -2.55,4.65 -0.02,0.35 0.1,0.69 0.24,1.06 0.13,0.37 0.26,0.74 0.26,1.11 0,0.32 -0.13,0.68 -0.24,1.03 -0.15,0.43 -0.3,0.88 -0.26,1.32 0.05,0.53 0.28,1.02 0.51,1.51 0.21,0.43 0.42,0.87 0.48,1.32 0.12,0.84 -0.04,1.72 -0.17,2.51 -0.11,0.65 -0.22,1.27 -0.16,1.78 0.07,0.56 0.35,1.01 0.62,1.46 0.24,0.4 0.48,0.78 0.54,1.2 0.03,0.22 -0.02,0.44 -0.08,0.7 -0.06,0.28 -0.15,0.61 -0.08,0.96 0.07,0.43 0.26,0.83 0.43,1.2 0.17,0.37 0.33,0.72 0.39,1.09 0.07,0.49 0,1.02 -0.08,1.59 -0.08,0.61 -0.17,1.24 -0.08,1.88 0.06,0.49 0.26,0.92 0.46,1.33 0.15,0.33 0.3,0.67 0.38,1 0.11,0.54 0.06,1.13 0.02,1.77 -0.05,0.58 -0.09,1.19 -0.02,1.83 0.05,0.43 0.2,0.83 0.36,1.21 0.14,0.32 0.26,0.64 0.3,0.95 0.04,0.3 0.02,0.64 0,0.99 -0.02,0.37 -0.05,0.75 0,1.15 0.04,0.41 0.17,0.79 0.28,1.13 0.11,0.32 0.2,0.6 0.2,0.81 0,0.37 -0.11,0.76 -0.23,1.17 -0.13,0.47 -0.27,0.95 -0.27,1.48 0,0.44 0.09,0.88 0.19,1.3 0.09,0.42 0.17,0.8 0.15,1.14 -0.04,0.57 -0.29,1.2 -0.52,1.79 -0.21,0.53 -0.41,1.03 -0.46,1.5 -0.21,1.67 0.12,2.95 0.39,3.96 0.12,0.44 0.23,0.87 0.28,1.26 0.1,0.82 0.1,2.13 0,3.04 -0.08,0.71 -0.37,1.77 -0.63,2.35 -0.2,0.43 -0.57,0.87 -0.96,1.34 -0.62,0.73 -1.26,1.48 -1.39,2.41 -0.07,0.52 0.06,1.02 0.17,1.52 0.1,0.41 0.19,0.8 0.16,1.14 -0.03,0.28 -0.23,0.63 -0.46,1.04 -0.23,0.39 -0.48,0.82 -0.67,1.34 -0.12,0.33 -0.16,0.69 -0.19,1.03 -0.03,0.29 -0.06,0.58 -0.14,0.77 -0.11,0.3 -0.3,0.57 -0.5,0.86 -0.28,0.41 -0.58,0.83 -0.68,1.37 -0.07,0.39 -0.03,0.74 0,1.06 0.03,0.28 0.06,0.52 0,0.72 -0.07,0.29 -0.2,0.43 -0.39,0.63 -0.29,0.32 -0.65,0.72 -0.93,1.68 -0.16,0.56 -0.62,1.62 -1.15,2.85 -0.9,2.07 -2.02,4.63 -2.64,6.9 -0.2,0.72 -0.28,1.3 -0.35,1.82 -0.07,0.52 -0.13,0.96 -0.3,1.45 -0.06,0.17 -0.12,0.39 -0.19,0.6 -0.1,0.33 -0.22,0.7 -0.29,0.85 -0.2,0.4 -0.54,0.74 -0.9,1.11 -0.4,0.4 -0.82,0.83 -1.08,1.36 -0.16,0.34 -0.26,0.73 -0.35,1.11 -0.05,0.21 -0.1,0.42 -0.16,0.6 -0.62,1.89 -0.52,5.28 0.55,6.81 0.82,1.18 3.44,1.84 4.97,1.84 0.47,0 0.96,-0.11 1.48,-0.24 0.49,-0.12 1,-0.23 1.52,-0.26 0.38,-0.02 0.8,-0.03 1.29,-0.03 1.02,0 2.13,0.04 3.3,0.08 1.17,0.04 2.39,0.08 3.51,0.08 1.69,0 2.87,-0.09 3.71,-0.31 1.2,-0.3 1.56,-0.37 2.47,-0.3 0.47,0.04 0.94,0.16 1.45,0.3 0.49,0.13 0.98,0.27 1.54,0.34 0.43,0.06 0.9,-0.04 1.39,-0.15 0.32,-0.07 0.66,-0.14 1.02,-0.17 l 0.17,-0.02 c 1.06,-0.1 2.37,-0.23 3.62,-0.32 1.19,-0.08 2.03,0.1 2.84,0.28 0.41,0.09 0.8,0.17 1.21,0.21 0.41,0.05 0.78,0.07 1.12,0.07 0.81,0 1.35,-0.13 1.91,-0.27 0.41,-0.1 0.85,-0.2 1.41,-0.28 h 0.05 c 0.94,0 2.35,0.49 3.38,0.85 0.67,0.22 1.21,0.41 1.54,0.44 0.37,0.05 1.39,0.06 1.96,0.06 1.88,0 4.63,-0.07 6.55,-0.21 0.91,-0.07 1.54,-0.28 2.1,-0.47 0.77,-0.25 1.42,-0.46 2.6,-0.35 0.39,0.03 0.76,0.14 1.13,0.24 0.54,0.16 1.11,0.32 1.76,0.26 0.42,-0.04 0.95,-0.13 1.53,-0.22 0.87,-0.13 1.87,-0.28 2.77,-0.34 0.65,-0.05 1.18,0.03 1.76,0.11 0.52,0.08 1.06,0.16 1.74,0.16 0.28,0 0.56,-0.01 0.85,-0.04 0.36,-0.04 0.76,-0.02 1.14,-0.02 0.21,0 0.42,0 0.64,0.02 0.68,0 1.28,-0.02 1.85,-0.04 0.53,-0.02 1.03,-0.03 1.54,-0.03 0.6,0 1.12,0.02 1.64,0.07 0.25,0.02 0.51,0.12 0.79,0.23 0.33,0.12 0.68,0.26 1.06,0.27 h 0.04 c 0.31,0 0.69,-0.1 1.06,-0.19 0.27,-0.06 0.55,-0.14 0.76,-0.15 0.5,-0.04 1.07,-0.06 1.78,-0.06 0.55,0 1.12,0.01 1.69,0.02 0.56,0.02 1.13,0.02 1.67,0.02 1.05,0 1.85,-0.04 2.5,-0.15 0.39,-0.06 0.73,-0.24 1.06,-0.4 0.34,-0.17 0.69,-0.35 1.09,-0.43 0.67,-0.13 1.34,-0.16 1.99,-0.18 0.89,-0.05 1.66,-0.08 2.24,-0.35 1.11,-0.52 2.28,-2.07 2.53,-2.71 0.11,-0.27 0.13,-0.63 0.16,-1.08 0.03,-0.48 0.06,-1.02 0.2,-1.59 0.09,-0.41 0.24,-0.75 0.38,-1.06 0.13,-0.29 0.24,-0.55 0.28,-0.81 0.34,-2.01 0.27,-4.43 0.2,-6.99 -0.05,-1.78 -0.11,-3.62 -0.03,-5.45 0.04,-0.9 0,-1.81 -0.02,-2.69 -0.04,-1.13 -0.08,-2.2 0.02,-3.23 0.02,-0.24 0.08,-0.5 0.15,-0.75 0.09,-0.36 0.18,-0.73 0.18,-1.11 0,-0.39 -0.1,-0.76 -0.19,-1.13 -0.07,-0.26 -0.13,-0.5 -0.15,-0.72 -0.04,-0.53 0.02,-1.13 0.07,-1.72 0.05,-0.52 0.1,-1.06 0.09,-1.56 0,-0.32 -0.06,-0.6 -0.1,-0.86 -0.05,-0.28 -0.09,-0.53 -0.07,-0.74 0.05,-0.48 0.15,-1.08 0.26,-1.72 0.22,-1.27 0.44,-2.59 0.34,-3.49 -0.09,-0.75 -0.26,-1.86 -0.61,-2.9 -0.03,-0.11 0.03,-0.5 0.06,-0.7 0.02,-0.16 0.04,-0.3 0.06,-0.42 0.02,-0.28 0.12,-0.58 0.24,-0.93 0.12,-0.36 0.25,-0.76 0.32,-1.21 0.05,-0.34 -0.02,-0.73 -0.08,-1.08 -0.06,-0.31 -0.11,-0.65 -0.09,-0.92 0.02,-0.18 0.11,-0.39 0.21,-0.61 0.11,-0.25 0.24,-0.53 0.29,-0.85 0.06,-0.37 0.03,-0.76 0,-1.13 -0.02,-0.34 -0.05,-0.69 0,-1.04 0.06,-0.44 0.17,-0.83 0.27,-1.21 0.14,-0.47 0.26,-0.92 0.22,-1.35 -0.13,-1.6 -1.31,-3.95 -2.57,-4.49 -0.47,-0.2 -1.07,-0.22 -1.69,-0.24 -0.46,-0.02 -0.92,-0.03 -1.36,-0.12 -0.59,-0.12 -1.21,-0.28 -1.81,-0.45 -1.04,-0.28 -2.02,-0.55 -2.89,-0.55 -0.44,0 -0.84,0.09 -1.22,0.19 -0.47,0.11 -0.9,0.21 -1.36,0.14 -0.42,-0.06 -0.8,-0.31 -1.21,-0.59 -0.41,-0.28 -0.84,-0.56 -1.37,-0.72 -0.34,-0.09 -0.74,-0.09 -1.17,-0.1 -0.35,0 -0.71,0 -1.02,-0.07 -0.26,-0.04 -0.53,-0.14 -0.8,-0.24 -0.38,-0.13 -0.74,-0.25 -1.1,-0.26 -0.39,0 -0.78,0.14 -1.15,0.28 -0.31,0.12 -0.6,0.22 -0.85,0.23 -0.25,0 -0.54,-0.11 -0.85,-0.23 -0.35,-0.12 -0.71,-0.25 -1.09,-0.27 -0.57,-0.04 -1.15,0.02 -1.7,0.07 -0.43,0.04 -0.87,0.09 -1.3,0.09 -0.66,0 -1.36,-0.07 -2.1,-0.16 -0.6,-0.07 -1.22,-0.14 -1.85,-0.17 -0.73,-0.04 -1.49,0.03 -2.21,0.09 -0.78,0.07 -1.53,0.12 -2.06,0.07 -0.32,-0.04 -0.63,-0.17 -0.96,-0.3 -0.43,-0.17 -0.87,-0.36 -1.42,-0.37 -0.41,0 -0.83,0.13 -1.23,0.26 -0.36,0.12 -0.74,0.23 -1.1,0.24 -0.31,0 -0.71,-0.09 -1.09,-0.18 -0.29,-0.06 -0.56,-0.13 -0.81,-0.15 -0.21,-0.02 -0.43,-0.06 -0.62,-0.08 -0.65,-0.1 -1.28,-0.17 -1.8,-0.09 -0.44,0.07 -0.84,0.32 -1.24,0.54 -0.36,0.21 -0.73,0.43 -1.06,0.45 -0.28,0 -0.77,-0.14 -1.24,-0.27 -0.33,-0.09 -0.65,-0.17 -0.95,-0.23 -1.6,-0.29 -3.46,-0.61 -5.35,-0.61 -0.66,0 -1.3,0.04 -1.89,0.11 -0.37,0.06 -0.69,0.17 -1,0.28 -0.34,0.11 -0.63,0.22 -0.93,0.22 -0.3,0 -0.61,-0.11 -0.94,-0.23 -0.32,-0.11 -0.65,-0.23 -1,-0.27 -0.63,-0.05 -1.34,-0.08 -2.18,-0.08 -0.78,0 -1.58,0.02 -2.35,0.04 -0.5,0.02 -0.98,0.03 -1.46,0.04 -0.68,0.02 -1.35,0.09 -2.01,0.18 -0.63,0.07 -1.23,0.14 -1.82,0.16 -0.24,0 -0.5,-0.05 -0.77,-0.09 -0.42,-0.07 -0.87,-0.13 -1.25,-0.06 -0.55,0.1 -0.98,0.41 -1.36,0.69 -0.28,0.21 -0.55,0.4 -0.82,0.47 -0.54,0.13 -1.32,0.22 -2.04,0.22 -0.35,0 -0.68,-0.02 -0.93,-0.06 -0.7,-0.12 -1.3,-0.59 -2.05,-1.18 -0.18,-0.14 -0.38,-0.3 -0.58,-0.46 -0.07,-0.57 -0.25,-1.02 -0.43,-1.44 -0.16,-0.4 -0.32,-0.78 -0.37,-1.25 0.21,-0.56 0.74,-0.73 1.58,-0.96 0.2,-0.06 0.4,-0.12 0.61,-0.18 0.32,-0.1 0.61,-0.22 0.94,-0.35 0.68,-0.27 1.38,-0.56 2.11,-0.61 1.06,-0.09 2.45,0 3.73,0.09 0.91,0.07 1.85,0.14 2.75,0.14 1.4,0 2.5,-0.18 3.43,-0.54 1.06,0.29 2.45,0.6 4.02,0.6 0.59,0 1.2,-0.04 1.79,-0.13 0.35,-0.06 0.71,-0.2 1.04,-0.34 0.36,-0.14 0.73,-0.29 1.08,-0.32 0.66,-0.06 1.43,0 2.26,0.07 0.55,0.04 1.12,0.09 1.66,0.09 0.53,0 1.07,0 1.6,-0.02 0.81,-0.02 1.61,-0.03 2.17,0.02 0.3,0.02 0.61,0.12 0.93,0.22 0.46,0.14 0.94,0.3 1.43,0.28 0.49,-0.02 0.94,-0.2 1.37,-0.36 0.39,-0.15 0.76,-0.29 1.11,-0.3 h 0.04 c 0.4,0 0.82,0.11 1.26,0.24 0.37,0.1 0.74,0.2 1.12,0.25 1.21,0.13 2.54,0.2 4.2,0.2 1.04,0 2.11,-0.03 3.15,-0.06 1.02,-0.02 2.09,-0.05 3.13,-0.05 1.75,0 3.14,0.07 4.39,0.23 0.33,0.04 0.64,0.13 0.98,0.23 0.38,0.11 0.76,0.22 1.18,0.27 0.67,0.06 1.5,0.03 2.26,-0.02 0.81,-0.05 1.59,-0.07 2.19,0 0.46,0.06 0.9,0.22 1.37,0.39 0.57,0.2 1.17,0.41 1.81,0.44 0.84,0.03 1.63,-0.2 2.4,-0.43 0.61,-0.18 1.18,-0.36 1.78,-0.4 1.23,-0.1 2.58,0.18 3.87,0.46 1.09,0.22 2.13,0.43 3.08,0.43 0.31,0 0.59,-0.02 0.85,-0.07 1.45,-0.26 4.93,-3.14 4.97,-4.7 0.02,-0.75 -0.73,-2.4 -1.96,-2.73 -0.37,-0.1 -0.85,-0.05 -1.34,0.04 -0.32,0.05 -0.66,0.12 -1.01,0.12 h -0.07 c -0.93,-0.02 -1.88,-0.14 -2.79,-0.27 -1.07,-0.14 -2.08,-0.27 -3.01,-0.24 -0.39,0.02 -0.77,0.09 -1.13,0.17 -0.35,0.08 -0.69,0.15 -1.02,0.16 -0.34,0 -0.69,-0.08 -1.08,-0.16 -0.33,-0.07 -0.67,-0.14 -1.03,-0.17 -0.28,-0.02 -0.57,0.03 -0.86,0.09 -0.21,0.04 -0.42,0.08 -0.6,0.08 h -0.04 c -1.08,-0.04 -2.27,-0.28 -3.43,-0.5 -1.38,-0.27 -2.81,-0.54 -4.04,-0.5 -0.57,0.02 -1.08,0.11 -1.57,0.2 -0.6,0.11 -1.18,0.2 -1.66,0.14 -0.37,-0.06 -0.74,-0.24 -1.11,-0.42 -0.4,-0.19 -0.82,-0.38 -1.24,-0.41 -0.61,-0.04 -1.24,0.11 -1.84,0.26 -0.37,0.1 -0.72,0.18 -1.04,0.22 -0.46,-0.31 -0.96,-0.46 -1.57,-0.46 -0.32,0 -0.63,0.04 -0.96,0.08 -0.48,0.06 -0.96,0.11 -1.52,0.06 -0.76,-0.07 -1.45,-0.46 -2.12,-0.84 -0.63,-0.34 -1.28,-0.71 -1.98,-0.81 -0.29,-0.05 -0.58,-0.07 -0.84,-0.07 -1.52,0 -2.3,0.74 -2.99,1.39 -0.56,0.51 -1.04,0.96 -1.89,1 -0.36,0 -0.8,-0.22 -1.26,-0.45 -0.52,-0.26 -1.07,-0.52 -1.65,-0.54 h -0.09 c -0.57,0 -1.14,0.2 -1.69,0.41 -0.54,0.2 -1.09,0.41 -1.62,0.41 H 90 c -0.33,-0.01 -0.7,-0.18 -1.08,-0.36 -0.49,-0.23 -0.99,-0.46 -1.58,-0.46 -0.48,0 -0.91,0.19 -1.32,0.37 -0.31,0.13 -0.59,0.25 -0.87,0.29 -0.21,0.02 -0.42,0.04 -0.63,0.04 -0.85,0 -1.59,-0.2 -2.3,-0.37 -0.73,-0.19 -1.43,-0.37 -2.18,-0.32 -0.71,0.05 -1.39,0.32 -2.06,0.58 -0.7,0.28 -1.37,0.56 -2.07,0.57 -0.2,0 -0.47,-0.07 -0.76,-0.13 -0.36,-0.09 -0.77,-0.2 -1.22,-0.2 -0.28,0 -0.54,0.05 -0.8,0.09 -0.24,0.04 -0.46,0.09 -0.64,0.08 -0.57,-0.04 -1.13,-0.13 -1.68,-0.21 -0.69,-0.1 -1.34,-0.2 -1.98,-0.2 -0.33,0 -0.63,0.03 -0.91,0.09 -0.65,0.12 -1.15,0.37 -1.6,0.58 -0.51,0.25 -0.93,0.45 -1.42,0.4 -0.51,-0.06 -1.5,-0.61 -1.84,-1.13 -0.39,-0.57 -1.39,-3.65 -1.42,-4.01 0.09,-0.75 2.8,-2.84 3.6,-2.94 0.31,-0.04 0.54,0.06 0.84,0.19 0.28,0.12 0.61,0.26 1.05,0.31 0.91,0.09 2.27,0.13 4.05,0.13 1.87,0 3.56,-0.05 3.58,-0.05 0,0 5.99,-0.26 9.11,-0.41 0.5,-0.02 0.97,-0.14 1.43,-0.26 0.43,-0.11 0.82,-0.2 1.23,-0.24 0.22,-0.02 0.47,0.04 0.74,0.08 0.27,0.05 0.54,0.09 0.83,0.09 h 0.06 c 0.38,-0.01 0.75,-0.1 1.1,-0.17 0.32,-0.07 0.61,-0.15 0.89,-0.16 0.62,-0.03 1.29,0.03 1.93,0.09 0.74,0.07 1.5,0.13 2.22,0.07 0.38,-0.03 0.72,-0.16 1.06,-0.28 0.31,-0.11 0.61,-0.22 0.88,-0.22 v 0 c 0.35,0 0.72,0.11 1.11,0.22 0.44,0.13 0.89,0.26 1.36,0.27 h 0.07 c 0.46,0 0.91,-0.09 1.35,-0.17 0.48,-0.1 0.94,-0.19 1.35,-0.16 0.21,0.02 0.42,0.08 0.65,0.15 0.26,0.08 0.54,0.17 0.85,0.18 0.79,0.06 1.61,0 2.39,-0.02 0.51,-0.03 1.03,-0.06 1.54,-0.06 0.51,0 0.93,0.02 1.32,0.08 0.32,0.04 0.61,0.17 0.93,0.3 0.39,0.15 0.78,0.32 1.24,0.36 1.25,0.09 2.85,0.02 4.34,-0.06 0.95,-0.06 1.95,-0.1 2.91,-0.1 0.96,0 1.74,0.05 2.47,0.15 0.38,0.06 0.76,0.18 1.15,0.31 0.55,0.18 1.11,0.36 1.72,0.36 0.51,0 1.01,-0.13 1.5,-0.26 0.46,-0.12 0.89,-0.23 1.32,-0.23 h 0.07 c 0.66,0 1.35,0.11 2.09,0.23 0.9,0.15 1.85,0.31 2.81,0.26 0.37,-0.02 0.72,-0.09 1.07,-0.17 0.35,-0.08 0.69,-0.16 1.06,-0.16 v 0 c 0.75,0.02 1.56,0.13 2.33,0.25 0.85,0.12 1.72,0.25 2.57,0.25 1.38,0 2.43,-0.35 3.31,-1.09 0.08,-0.06 0.13,-0.15 0.14,-0.25 l 0.04,-0.25 c 0.16,-1.06 0.35,-2.4 -0.27,-3.35 -0.7,-1.08 -5.13,-2.22 -6.08,-2.33 -0.17,-0.02 -0.35,-0.03 -0.54,-0.03 -0.6,0 -1.21,0.09 -1.78,0.19 -0.65,0.11 -1.25,0.2 -1.82,0.17 -0.41,-0.02 -0.84,-0.19 -1.25,-0.35 -0.37,-0.15 -0.72,-0.29 -1.05,-0.32 -0.37,-0.03 -0.77,0.02 -1.19,0.09 -0.42,0.06 -0.85,0.12 -1.29,0.08 -0.59,-0.05 -1.23,-0.19 -1.9,-0.33 -0.56,-0.12 -1.13,-0.24 -1.72,-0.32 -0.4,-0.06 -0.8,-0.13 -1.2,-0.19 -0.9,-0.16 -1.82,-0.32 -2.67,-0.32 h -0.16 c -0.92,0.03 -1.75,0.21 -2.55,0.39 -0.85,0.19 -1.63,0.35 -2.35,0.28 -0.31,-0.03 -0.69,-0.13 -1.08,-0.23 -0.5,-0.13 -1.02,-0.26 -1.52,-0.3 -0.6,-0.06 -1.22,0.05 -1.87,0.18 -0.44,0.07 -0.9,0.15 -1.39,0.2 -0.46,0.04 -0.93,0.01 -1.36,-0.02 -0.56,-0.03 -1.03,-0.04 -1.35,0.03 -0.3,0.07 -0.6,0.17 -0.88,0.28 -0.55,0.19 -1.07,0.36 -1.41,0.26 -0.83,-0.24 -2.75,-0.57 -3.81,-0.61 -0.03,0 -0.07,0 -0.1,0 -1.03,0.22 -1.9,0.31 -2.81,0.31 -0.67,0 -1.3,-0.05 -2.02,-0.11 -0.73,-0.06 -1.55,-0.13 -2.56,-0.15 -2.43,-0.06 -4.97,0.07 -6.8,0.16 -0.52,0.03 -1.06,0.05 -1.65,0.05 -1.06,0 -2.11,-0.05 -3.14,-0.09 -0.99,-0.05 -2.02,-0.09 -3.01,-0.09 -0.99,0 -1.85,0.04 -2.63,0.13 -0.29,0.04 -0.56,0.11 -0.81,0.18 -0.28,0.07 -0.55,0.15 -0.8,0.15 -0.28,0 -0.58,-0.08 -0.91,-0.15 -0.35,-0.09 -0.7,-0.18 -1.07,-0.18 -0.41,0 -0.87,0.09 -1.32,0.19 -0.31,0.07 -0.61,0.12 -0.87,0.15 -0.2,0.02 -0.41,0.05 -0.62,0.08 -0.46,0.06 -0.93,0.13 -1.29,0.09 -0.3,-0.02 -0.62,-0.14 -0.93,-0.24 -0.41,-0.13 -0.84,-0.28 -1.28,-0.26 -0.41,0.02 -0.78,0.19 -1.1,0.33 -0.39,0.17 -0.74,0.32 -1.03,0.2 -0.3,-0.13 -0.5,-0.58 -0.7,-1.07 -0.08,-0.18 -0.15,-0.36 -0.24,-0.54 -0.12,-0.24 -0.23,-0.46 -0.34,-0.66 -0.28,-0.51 -0.46,-0.86 -0.44,-1.28 0.02,-0.36 0.98,-2.04 2.19,-2.43 0.11,-0.03 0.35,-0.02 0.58,0 0.3,0.03 0.61,0.06 0.86,0 0.43,-0.08 0.8,-0.24 1.14,-0.39 0.3,-0.14 0.57,-0.25 0.79,-0.27 0.71,-0.04 1.41,0.13 2.17,0.31 0.92,0.22 1.89,0.46 2.98,0.35 0.39,-0.04 0.78,-0.17 1.2,-0.32 0.42,-0.14 0.85,-0.29 1.29,-0.34 0.33,-0.04 0.7,-0.02 1.06,0 0.46,0.03 0.93,0.05 1.27,0 0.35,-0.06 0.68,-0.14 1,-0.22 0.39,-0.1 0.74,-0.2 1.07,-0.22 0.51,-0.04 0.99,0.04 1.52,0.12 0.56,0.09 1.14,0.18 1.82,0.15 0.32,0 0.65,-0.09 0.98,-0.17 0.33,-0.09 0.68,-0.17 1,-0.17 0.5,0 1.03,0.11 1.58,0.23 0.59,0.14 1.19,0.26 1.82,0.26 h 0.06 c 0.64,0 1.28,-0.13 1.9,-0.25 0.63,-0.13 1.22,-0.24 1.81,-0.24 h 0.08 c 0.69,0 1.41,0.13 2.09,0.25 0.74,0.12 1.5,0.24 2.26,0.24 h 0.12 c 0.47,0 0.92,-0.09 1.35,-0.17 0.43,-0.08 0.85,-0.15 1.28,-0.15 0.26,0 0.53,0.07 0.82,0.15 0.31,0.08 0.64,0.18 1.03,0.18 0.39,0 0.76,-0.09 1.12,-0.17 0.34,-0.08 0.65,-0.15 0.99,-0.15 v 0 c 0.31,0 0.65,0.07 1.02,0.15 0.36,0.08 0.74,0.15 1.13,0.17 0.57,0.03 1.13,-0.03 1.68,-0.08 0.45,-0.05 0.88,-0.09 1.3,-0.09 h 0.16 c 0.7,0.02 1.39,0.23 2.07,0.43 0.69,0.2 1.34,0.4 1.98,0.4 h 0.1 c 0.6,-0.02 1.13,-0.25 1.56,-0.43 0.28,-0.12 0.55,-0.23 0.72,-0.23 v 0 c 0.47,0.02 1.01,0.21 1.58,0.43 0.67,0.26 1.42,0.55 2.26,0.56 0.39,0 0.78,-0.09 1.15,-0.17 0.29,-0.07 0.56,-0.13 0.84,-0.16 1,-0.09 2.24,-0.13 3.77,-0.13 1.53,0 3.04,0.04 4.41,0.07 1.16,0.04 2.26,0.06 3.14,0.06 h 0.04 c 0.46,0 0.93,-0.02 1.39,-0.02 0.44,-0.02 0.87,-0.03 1.27,-0.03 0.46,0 0.8,0.02 1.09,0.05 0.36,0.05 0.71,0.15 1.05,0.25 0.48,0.14 0.98,0.29 1.52,0.25 1.67,-0.14 4.19,-1.92 4.81,-3.39 0.14,-0.33 0.18,-0.71 0.22,-1.11 0.03,-0.31 0.06,-0.62 0.13,-0.95 0.08,-0.35 0.24,-0.74 0.37,-1.12 0.2,-0.52 0.41,-1.07 0.46,-1.57 0.04,-0.37 0.02,-0.72 -0.02,-1.05 -0.03,-0.38 -0.06,-0.72 0,-1.07 0.11,-0.55 0.44,-1.15 0.8,-1.79 0.54,-0.98 1.14,-2.09 1.03,-3.28 -0.07,-0.8 -0.52,-1.39 -0.96,-1.96 -0.46,-0.6 -0.89,-1.17 -0.86,-1.95 0.02,-0.49 0.5,-1.17 0.96,-1.84 0.47,-0.66 0.91,-1.3 1.02,-1.9 0.31,-1.71 0.03,-3.57 -0.22,-5.22 -0.14,-0.92 -0.27,-1.79 -0.27,-2.45 z m -42.36,18.73 c 0.2,-0.31 0.42,-0.65 0.55,-1.11 0.13,-0.46 0.13,-0.87 0.13,-1.23 0,-0.52 0.01,-0.81 0.26,-1.07 0.23,-0.23 0.58,-0.32 1.25,-0.32 0.17,0 0.34,0 0.52,0 0.19,0 0.39,0 0.59,0 0.41,0 0.74,-0.02 1.04,-0.07 0.81,-0.14 1.43,-0.61 2.04,-1.05 0.44,-0.32 0.87,-0.63 1.33,-0.79 0.21,-0.07 0.45,-0.11 0.8,-0.11 0.15,0 0.31,0 0.47,0 0.17,0 0.34,0.02 0.51,0.02 0.31,0 0.57,-0.02 0.8,-0.07 0.59,-0.11 1.13,-0.4 1.65,-0.68 0.55,-0.3 1.07,-0.57 1.61,-0.63 0.51,-0.06 0.99,0.1 1.51,0.28 0.5,0.18 1.07,0.36 1.76,0.38 0.36,0 0.91,-0.17 1.48,-0.34 0.48,-0.15 1.02,-0.31 1.29,-0.31 v 0 c 0.61,0.03 2.26,0.53 3.33,0.96 0.32,0.13 0.62,0.35 0.98,0.62 0.46,0.35 0.97,0.73 1.66,1.02 1.41,0.6 2.91,0.8 4.24,0.97 1.69,0.22 3.13,0.42 3.64,1.33 0.65,1.16 0.44,5.01 -0.5,5.54 -0.24,0.13 -0.72,0.14 -1.07,0.14 -0.27,0 -0.56,0 -0.87,-0.02 -0.53,-0.02 -1.1,-0.04 -1.68,-0.02 -0.52,0.02 -1.09,0.06 -1.65,0.1 -1.33,0.09 -2.74,0.17 -3.56,0.07 -0.61,-0.08 -1.15,-0.25 -1.68,-0.42 -0.78,-0.24 -1.59,-0.49 -2.54,-0.41 -0.41,0.03 -0.78,0.18 -1.15,0.33 -0.33,0.13 -0.67,0.27 -1.03,0.33 -0.27,0.04 -0.55,0.06 -0.85,0.06 -0.78,0 -1.58,-0.14 -2.42,-0.28 -0.56,-0.1 -1.13,-0.2 -1.74,-0.26 -0.91,-0.11 -1.98,-0.16 -3.03,-0.16 -1.05,0 -1.99,0.06 -2.69,0.16 -0.42,0.06 -0.87,0.19 -1.35,0.33 -0.68,0.2 -1.37,0.41 -2.01,0.41 -0.22,0 -0.42,-0.02 -0.61,-0.08 -0.35,-0.1 -0.61,-0.42 -0.91,-0.78 -0.21,-0.25 -0.44,-0.55 -0.74,-0.8 -0.3,-0.23 -0.63,-0.42 -0.92,-0.56 -0.4,-0.21 -0.72,-0.38 -0.9,-0.67 0.06,-0.32 0.21,-0.55 0.41,-0.85 z m 32.86,-9.77 c -0.44,-0.2 -0.7,-0.53 -1,-0.88 -0.4,-0.5 -0.86,-1.06 -1.85,-1.38 -1.01,-0.32 -2.24,-0.35 -3.51,-0.35 h -0.72 c -1.69,0 -3.29,-0.06 -4.24,-0.76 -0.47,-0.33 -0.76,-1.09 -1.08,-1.88 -0.51,-1.31 -1.14,-2.93 -2.95,-2.98 h -0.09 c -1.57,0 -2.31,1.21 -2.96,2.27 -0.4,0.65 -0.78,1.27 -1.32,1.59 -0.25,0.17 -0.72,0.24 -1.26,0.33 -0.43,0.07 -0.91,0.15 -1.44,0.28 -1.1,0.29 -2.41,0.74 -3.66,1.17 -0.79,0.28 -1.48,0.65 -2.03,0.94 -0.5,0.26 -0.92,0.5 -1.2,0.54 -0.37,0.06 -0.7,0.08 -0.99,0.08 -1.67,0 -1.96,-0.82 -2,-3.31 0,-0.26 -0.02,-0.56 -0.04,-0.88 -0.04,-0.71 -0.08,-1.59 0.02,-1.96 0.44,-1.52 2.73,-2.18 5.16,-2.89 1.43,-0.41 2.91,-0.83 4.21,-1.48 0.62,-0.3 1.2,-0.74 1.76,-1.17 0.77,-0.59 1.49,-1.13 2.06,-1.11 0.81,0.42 1.62,0.46 2.41,0.49 0.5,0.03 0.96,0.05 1.41,0.17 0.37,0.09 0.74,0.34 1.14,0.58 0.6,0.38 1.28,0.81 2.12,0.81 0.15,0 0.31,0 0.46,-0.04 0.21,0.09 0.44,0.35 0.68,0.62 0.4,0.46 0.85,0.98 1.55,1.17 0.38,0.1 0.86,0.02 1.3,-0.06 0.33,-0.07 0.63,-0.13 0.9,-0.09 0.51,0.07 1.3,0.52 2.06,0.95 0.56,0.32 1.13,0.65 1.64,0.85 l 0.46,0.18 c 1.38,0.55 2.38,0.94 2.8,1.63 0.11,0.18 0.2,0.6 0.28,1.03 0.09,0.43 0.18,0.9 0.34,1.36 0.15,0.44 0.36,0.84 0.54,1.2 0.23,0.43 0.44,0.85 0.43,1.13 -0.04,0.87 -0.53,1.53 -1.39,1.88 z m -1.46,-15.01 c -0.23,0.02 -0.46,0.03 -0.69,0.03 v 0 c -0.17,0 -0.31,0 -0.44,-0.03 -0.25,-0.04 -0.54,-0.17 -0.84,-0.3 -0.31,-0.14 -0.62,-0.28 -0.95,-0.35 -0.35,-0.07 -0.68,-0.07 -0.98,-0.08 -0.3,0 -0.57,0 -0.8,-0.07 -0.69,-0.23 -1.18,-0.66 -1.65,-1.07 -0.28,-0.26 -0.57,-0.51 -0.89,-0.71 -0.44,-0.28 -0.89,-0.49 -1.28,-0.68 -0.56,-0.27 -1.05,-0.5 -1.38,-0.83 -0.76,-2.57 -2.09,-3.88 -3.94,-3.88 -0.43,0 -0.88,0.07 -1.35,0.22 -0.97,0.29 -1.51,1.12 -1.99,1.85 -0.43,0.66 -0.83,1.28 -1.46,1.44 -0.34,0.09 -0.74,0.02 -1.16,-0.07 -0.41,-0.09 -0.87,-0.17 -1.28,-0.1 -0.81,0.14 -1.25,0.54 -1.64,0.9 -0.26,0.24 -0.48,0.44 -0.81,0.57 -0.3,-0.05 -0.59,-0.07 -0.89,-0.07 -0.7,0 -1.3,0.13 -1.93,0.27 -0.54,0.12 -1.09,0.24 -1.8,0.31 -0.57,0.06 -1.08,0.39 -1.58,0.72 -0.52,0.36 -0.99,0.69 -1.45,0.6 -1.01,-0.19 -0.98,-2.58 -0.96,-4.9 0,-0.87 0.02,-1.76 -0.02,-2.63 -0.02,-0.38 -0.05,-0.77 -0.1,-1.19 -0.09,-1.08 -0.2,-2.19 0.07,-2.95 0.17,-0.45 2.62,-3.22 3.51,-3.95 0.82,-0.69 1.54,-1.07 2.03,-1.07 v 0 c 0.5,0.01 1.07,0.52 1.56,0.97 0.37,0.33 0.72,0.64 1.08,0.81 0.43,0.2 0.95,0.3 1.46,0.4 0.21,0.04 0.42,0.08 0.61,0.13 0.34,0.08 0.69,0.13 1.03,0.17 0.33,0.04 0.66,0.07 0.94,0.16 0.95,0.27 1.8,0.8 2.7,1.36 1.23,0.77 2.5,1.57 4.13,1.77 0.93,1.18 2.21,1.8 3.56,2.46 0.52,0.26 1.05,0.51 1.58,0.81 0.21,0.11 0.4,0.3 0.61,0.5 0.28,0.26 0.57,0.53 0.93,0.68 0.36,0.15 0.76,0.18 1.13,0.2 0.32,0.02 0.62,0.05 0.86,0.13 0.39,0.15 0.74,0.44 1.12,0.76 0.41,0.34 0.84,0.69 1.35,0.9 0.38,0.15 0.77,0.17 1.11,0.18 0.31,0.02 0.61,0.04 0.86,0.14 0.32,0.13 0.58,0.44 0.86,0.77 0.27,0.3 0.54,0.63 0.91,0.85 0.39,0.24 0.82,0.37 1.18,0.48 0.56,0.16 0.9,0.28 1.1,0.6 0.04,0.46 0.2,0.91 0.36,1.35 0.24,0.63 0.45,1.17 0.19,1.63 -0.15,0.26 -0.32,0.36 -0.61,0.36 -0.29,0 -0.69,-0.11 -1.14,-0.23 -0.43,-0.13 -0.93,-0.26 -1.46,-0.34 -0.17,-0.03 -0.37,-0.04 -0.58,-0.04 -0.25,0 -0.51,0.01 -0.76,0.03 z M 72.1,18.92 c 0.24,-0.45 0.46,-0.84 0.51,-1.16 0.11,-0.63 0.07,-1.28 0.04,-1.91 -0.09,-1.57 -0.07,-2.47 1.31,-2.88 0.09,-0.02 0.58,-0.07 1.17,-0.07 0.46,0 0.84,0.03 1.13,0.07 0.26,0.05 0.51,0.17 0.78,0.29 0.32,0.16 0.65,0.31 1.04,0.37 0.56,0.09 1.17,0.13 1.94,0.13 0.34,0 0.68,0 1.01,-0.02 0.3,0 0.6,-0.01 0.88,-0.01 1.62,0 2.24,0.27 2.44,1.08 0.1,0.39 -0.37,0.87 -0.91,1.42 -0.16,0.17 -0.32,0.33 -0.48,0.5 -0.47,0.52 -0.83,1.02 -1.15,1.47 -0.24,0.34 -0.46,0.64 -0.65,0.84 -0.37,0.37 -0.8,0.68 -1.25,1 -0.41,0.3 -0.82,0.6 -1.22,0.96 -0.24,0.22 -0.47,0.47 -0.7,0.7 -0.5,0.54 -0.97,1.03 -1.46,1.19 -0.47,0.15 -0.97,0.23 -1.48,0.23 -1.74,0 -3.56,-0.99 -3.58,-2.65 0,-0.38 0.35,-1.04 0.64,-1.57 z m -5.6,2.03 v 0.07 c -0.07,0.57 -0.13,1.15 -0.39,1.5 -0.72,-0.13 -1.3,-0.3 -1.96,-0.51 -0.48,-0.14 -0.98,-0.28 -1.58,-0.44 -2.82,-0.7 -6.51,-3.38 -6.46,-4.7 0.04,-0.97 0.4,-1.02 1.66,-1.02 0.39,0 0.82,0 1.28,-0.06 0.42,-0.05 1.08,-0.28 1.84,-0.54 0.75,-0.25 1.6,-0.54 2.14,-0.62 0.09,-0.01 0.2,-0.02 0.33,-0.02 0.17,0 0.35,0.01 0.52,0.02 0.34,0.02 0.67,0.04 0.96,0 0.2,-0.03 0.37,-0.11 0.53,-0.18 0.15,-0.07 0.28,-0.14 0.41,-0.14 0.03,0 0.08,0 0.15,0.03 0.65,2.15 0.85,4.31 0.59,6.59 z m -3.75,208.11 c 0.42,-0.53 0.96,-0.67 1.7,-0.87 0.14,-0.04 0.28,-0.08 0.44,-0.13 1.55,-0.45 2.87,-0.84 4.99,-0.8 h 0.14 c 0.19,0 0.38,-0.01 0.58,-0.01 0.38,0 0.76,-0.02 1.06,0.01 0.31,0.03 0.62,0.12 0.95,0.22 0.44,0.13 0.9,0.27 1.39,0.28 h 0.05 c 0.49,0 0.99,-0.13 1.46,-0.27 0.34,-0.09 0.69,-0.18 1.03,-0.24 0.91,-0.12 1.98,-0.19 3.24,-0.19 1.17,0 2.38,0.06 3.56,0.11 1.14,0.05 2.32,0.1 3.42,0.1 1.19,0 2.17,-0.06 3,-0.18 0.14,-0.02 0.3,-0.05 0.48,-0.07 0.59,-0.1 1.41,-0.23 2.16,-0.23 0.61,0 1.07,0.08 1.39,0.26 1.27,0.7 2.08,3.55 1.61,5.66 -0.19,0.84 -0.88,1.59 -1.48,2.23 -0.22,0.26 -0.44,0.49 -0.62,0.72 -0.22,-0.02 -0.44,-0.03 -0.69,-0.03 -0.76,0 -1.52,0.09 -2.32,0.18 -0.98,0.12 -1.98,0.24 -3.06,0.2 -0.33,-0.02 -0.68,-0.09 -1.05,-0.17 -0.4,-0.08 -0.82,-0.16 -1.26,-0.17 -0.45,-0.02 -0.93,0.03 -1.39,0.08 -0.4,0.04 -0.82,0.09 -1.22,0.09 h -0.05 c -0.6,0 -1.24,-0.13 -1.86,-0.24 -0.65,-0.13 -1.32,-0.25 -1.99,-0.25 h -0.13 c -0.43,0.02 -0.82,0.14 -1.19,0.28 -0.29,0.09 -0.56,0.19 -0.83,0.22 -0.38,0.05 -0.99,0.03 -1.64,0 -0.72,-0.03 -1.54,-0.06 -2.15,0 -0.39,0.04 -0.76,0.15 -1.13,0.26 -0.33,0.1 -0.69,0.2 -1.02,0.24 -0.43,0.05 -0.91,0.05 -1.42,0.05 -0.68,0 -1.37,0 -2.06,0.12 -0.45,0.07 -0.82,0.14 -1.13,0.2 -0.48,0.1 -0.83,0.17 -1.09,0.17 -0.4,0 -0.64,-0.14 -1.38,-1.07 -0.38,-0.48 -0.81,-1.02 -0.88,-1.42 -0.11,-0.7 0.04,-1.52 0.21,-2.37 0.19,-0.98 0.38,-2 0.17,-2.93 z m 1.27,13.55 c 0.98,-0.19 3.45,-0.31 6.14,-0.31 1.75,0 3.39,0.05 4.65,0.15 0.23,0.02 0.5,0.08 0.79,0.15 0.39,0.09 0.79,0.19 1.19,0.19 h 0.05 c 0.46,0 0.86,-0.15 1.24,-0.28 0.27,-0.09 0.52,-0.18 0.78,-0.22 0.73,-0.09 1.58,-0.14 2.61,-0.14 0.93,0 1.91,0.04 2.86,0.07 0.96,0.03 1.95,0.07 2.9,0.07 0.95,0 2,-0.03 2.97,-0.05 0.97,-0.03 1.89,-0.05 2.8,-0.05 1.03,0 1.87,0.03 2.62,0.1 0.79,0.07 1.36,0.1 1.94,0.1 0.58,0 1.18,-0.02 1.94,-0.1 1.05,-0.1 2.18,-0.14 3.46,-0.14 1.65,0 3.31,0.08 4.41,0.14 1.4,0.08 2.84,0.19 4.24,0.3 1.76,0.13 3.59,0.28 5.35,0.36 0.71,0.04 1.39,0.02 2.06,0 0.64,-0.02 1.27,-0.02 1.9,0 0.47,0.02 0.96,0.09 1.43,0.16 0.58,0.08 1.19,0.17 1.78,0.17 h 0.12 c 0.41,0 0.83,-0.09 1.22,-0.17 0.38,-0.08 0.74,-0.15 1.09,-0.16 0.77,-0.02 1.34,-0.09 1.95,-0.17 0.76,-0.1 1.55,-0.2 2.82,-0.2 0.45,0 0.95,0 1.48,0.03 0.33,0.03 0.66,0.22 0.96,0.58 1,1.2 1.46,3.76 1.13,6.38 -0.05,0.37 -0.19,0.73 -0.32,1.08 -0.15,0.41 -0.32,0.83 -0.34,1.27 -0.06,0.96 0.14,1.84 0.34,2.76 0.25,1.1 0.5,2.24 0.32,3.65 -0.04,0.31 -0.16,0.65 -0.3,0.99 -0.16,0.43 -0.32,0.87 -0.37,1.34 -0.07,0.64 0.04,1.27 0.16,1.94 0.07,0.41 0.14,0.83 0.17,1.27 0.06,0.81 0.23,1.65 0.39,2.38 0.15,0.73 0.3,1.43 0.28,1.85 -0.02,0.42 0.03,0.98 0.09,1.59 0.08,0.79 0.17,1.68 0.08,2.35 -0.19,1.45 -2.17,3.33 -2.65,3.44 -0.22,-0.06 -0.45,-0.09 -0.68,-0.09 -0.64,0 -1.21,0.21 -1.76,0.41 -0.4,0.14 -0.77,0.28 -1.15,0.34 -0.31,0.04 -0.74,0.02 -1.14,0 -0.46,-0.03 -0.94,-0.06 -1.33,0 -0.37,0.05 -0.7,0.17 -1.02,0.3 -0.31,0.11 -0.59,0.22 -0.89,0.27 -0.19,0.02 -0.41,-0.01 -0.66,-0.04 -0.31,-0.04 -0.64,-0.08 -0.92,-0.03 -0.42,0.08 -0.76,0.18 -1.08,0.28 -0.63,0.19 -1.17,0.35 -2.21,0.26 -0.48,-0.04 -1.1,-0.14 -1.69,-0.23 -0.36,-0.06 -0.7,-0.11 -0.99,-0.15 -0.48,-0.06 -1,0 -1.5,0.06 -0.35,0.06 -0.7,0.1 -1.04,0.1 -1.85,0 -3.91,0.08 -5.19,0.52 -0.28,0.02 -0.54,0.03 -0.81,0.03 -0.95,0 -1.7,-0.12 -2.49,-0.25 -0.84,-0.14 -1.71,-0.28 -2.88,-0.28 -0.35,0 -0.72,0.02 -1.09,0.04 -1.09,0.04 -1.35,-0.05 -1.57,-0.14 -0.18,-0.06 -0.37,-0.14 -0.79,-0.15 h -0.06 c -0.51,0.06 -0.98,0.07 -1.42,0.07 -0.44,0 -0.82,-0.02 -1.17,-0.05 -0.33,-0.02 -0.65,-0.04 -1,-0.04 -0.61,0 -1.21,0.06 -2,0.21 -0.43,0.13 -0.77,0.11 -1.19,0.06 -0.22,-0.03 -0.47,-0.06 -0.76,-0.06 -0.45,0 -0.92,0.07 -1.47,0.22 -0.2,0.06 -0.41,0.13 -0.61,0.2 -0.37,0.13 -0.75,0.28 -1.13,0.28 -0.38,0 -0.78,-0.17 -1.25,-0.35 -0.43,-0.17 -0.92,-0.38 -1.47,-0.47 -0.15,-0.02 -0.32,-0.04 -0.52,-0.04 -0.19,0 -0.4,0.02 -0.61,0.03 -0.33,0.02 -0.69,0.05 -1.04,0 -0.24,-0.02 -0.53,-0.13 -0.82,-0.23 -0.33,-0.12 -0.68,-0.24 -1.01,-0.26 -0.41,-0.04 -0.8,0.03 -1.13,0.09 -0.31,0.05 -0.58,0.11 -0.82,0.07 -0.3,-0.04 -0.58,-0.18 -0.89,-0.31 -0.43,-0.2 -0.89,-0.42 -1.4,-0.35 -0.63,0.07 -1.11,0.25 -1.53,0.4 -0.27,0.09 -0.52,0.18 -0.79,0.24 -0.02,0 -0.04,0 -0.06,0.02 -0.33,0.12 -0.59,0.04 -0.97,-0.1 -0.23,-0.08 -0.48,-0.17 -0.79,-0.23 -0.06,0 -0.11,0 -0.17,0 -1.05,0.24 -1.76,0.25 -2.48,0.19 -0.32,-0.02 -0.65,-0.05 -1.07,-0.04 -0.48,0.01 -0.92,0.13 -1.35,0.25 -0.46,0.13 -0.89,0.24 -1.37,0.24 h -0.06 c -0.76,-0.02 -1.53,-0.24 -2.28,-0.46 l -0.09,-0.02 c -0.27,-0.07 -0.58,-0.2 -0.9,-0.34 -0.57,-0.24 -1.15,-0.49 -1.68,-0.5 h -0.06 c -0.49,0 -0.89,0.18 -1.28,0.36 -0.3,0.13 -0.58,0.26 -0.87,0.31 -0.28,0.04 -0.57,-0.02 -0.89,-0.07 -0.27,-0.06 -0.56,-0.1 -0.87,-0.1 h -0.2 c -1.51,0 -3.63,0.12 -5.35,0.22 -1.45,0.08 -2.69,0.15 -2.99,0.12 -0.43,-0.06 -0.74,-0.79 -0.79,-1.44 -0.04,-0.54 0.31,-1.05 0.76,-1.7 0.28,-0.4 0.59,-0.86 0.85,-1.39 0.18,-0.37 0.33,-0.79 0.5,-1.22 0.19,-0.52 0.39,-1.05 0.65,-1.58 0.33,-0.65 0.6,-1.3 0.85,-1.92 0.1,-0.25 0.21,-0.5 0.31,-0.75 0.16,-0.36 0.36,-0.69 0.56,-1.01 0.24,-0.39 0.48,-0.76 0.61,-1.17 0.22,-0.69 0.33,-1.42 0.43,-2.13 0.1,-0.71 0.19,-1.37 0.39,-2 0.07,-0.21 0.22,-0.43 0.38,-0.68 0.18,-0.25 0.35,-0.51 0.44,-0.8 0.17,-0.48 0.24,-0.94 0.31,-1.39 0.08,-0.49 0.15,-0.96 0.34,-1.38 0.13,-0.32 0.35,-0.61 0.57,-0.92 0.28,-0.39 0.57,-0.77 0.75,-1.25 0.4,-1.06 0.6,-2.13 0.8,-3.17 0.15,-0.82 0.3,-1.59 0.54,-2.29 0.76,-2.24 3.36,-5.23 4.8,-5.51 z m 68.73,-5.95 c -0.59,0.11 -1.31,-0.06 -2.14,-0.27 -0.55,-0.15 -1.17,-0.31 -1.86,-0.39 -0.98,-0.13 -2.18,-0.2 -3.3,-0.2 -0.36,0 -0.72,0 -1.06,0.02 -0.39,0.02 -0.78,0.1 -1.15,0.17 -0.4,0.09 -0.78,0.16 -1.15,0.16 -0.3,0 -0.63,-0.07 -0.98,-0.14 -0.39,-0.09 -0.83,-0.18 -1.3,-0.19 h -0.11 c -0.56,0 -1.11,0.12 -1.59,0.21 -0.37,0.08 -0.7,0.15 -0.89,0.13 -0.46,-0.06 -0.75,-0.24 -1.05,-0.43 -0.32,-0.19 -0.65,-0.39 -1.14,-0.41 -0.51,-0.02 -0.98,0.12 -1.44,0.26 -0.37,0.12 -0.72,0.22 -1.07,0.24 h -0.05 c -0.33,0 -0.67,-0.11 -1.04,-0.22 -0.43,-0.13 -0.87,-0.26 -1.36,-0.28 h -0.05 c -0.36,0 -0.71,0.09 -1.04,0.18 -0.3,0.08 -0.58,0.15 -0.84,0.15 h -0.05 c -2.59,-0.11 -5.47,-2.06 -5.71,-3.45 -0.44,-2.48 1.19,-3.39 3.05,-4.17 0.26,-0.1 0.54,-0.24 0.8,-0.38 0.35,-0.18 0.72,-0.37 0.94,-0.42 0.44,-0.09 1.09,-0.06 1.69,-0.02 0.38,0.02 0.74,0.05 1.06,0.04 0.37,-0.02 0.76,-0.06 1.17,-0.1 0.87,-0.08 1.82,-0.16 2.56,-0.08 0.46,0.06 0.91,0.2 1.33,0.35 0.46,0.15 0.89,0.29 1.33,0.32 0.43,0.04 0.91,0.05 1.47,0.05 0.69,0 1.4,-0.02 2.16,-0.05 0.76,-0.02 1.55,-0.06 2.32,-0.06 0.61,0 1.15,0.02 1.65,0.06 0.31,0.02 0.62,0.08 0.94,0.16 0.4,0.08 0.82,0.17 1.24,0.17 0.42,0 0.77,-0.08 1.13,-0.16 0.35,-0.08 0.67,-0.16 1.03,-0.17 h 0.11 c 0.65,0 1.44,0.15 2.29,0.31 0.33,0.06 0.67,0.13 0.99,0.19 2.85,0.46 4.71,1 4.61,3.87 -0.06,1.81 -1.9,4.24 -3.46,4.55 z"
           id="path1239"
           style="fill:#ffffff" /><path
           class="cls-1"
           d="m 59.57,46.41 c -0.1,-1.36 -2.02,-2.87 -3.66,-2.87 h -0.08 c -0.59,0.02 -1.4,0.43 -2.33,0.9 -0.69,0.36 -1.41,0.72 -2.08,0.94 -0.14,0.06 -0.4,0.09 -0.64,0.13 -0.37,0.05 -0.76,0.1 -1.04,0.22 -0.61,0.26 -1.14,0.69 -1.7,1.14 -0.37,0.3 -0.76,0.62 -1.17,0.87 -0.3,0.18 -0.64,0.31 -0.99,0.45 -0.38,0.15 -0.77,0.3 -1.15,0.53 -0.44,0.26 -0.85,0.59 -1.24,0.92 -0.42,0.34 -0.81,0.66 -1.22,0.89 -1.26,0.7 -2.78,1.22 -4.25,1.72 -0.87,0.3 -1.69,0.58 -2.48,0.89 -0.32,0.14 -0.69,0.24 -1.07,0.35 -0.48,0.14 -0.98,0.28 -1.43,0.49 -0.54,0.26 -1.08,0.71 -1.61,1.14 -0.46,0.38 -0.93,0.77 -1.39,1.03 -0.27,0.15 -0.59,0.27 -0.93,0.39 -0.35,0.12 -0.71,0.25 -1.05,0.43 -0.4,0.22 -0.76,0.5 -1.1,0.77 -0.35,0.26 -0.68,0.53 -1.04,0.72 -0.46,0.24 -0.93,0.45 -1.39,0.65 -0.67,0.3 -1.25,0.55 -1.65,0.87 -0.44,0.37 -0.8,0.83 -1.15,1.29 -0.37,0.48 -0.72,0.94 -1.11,1.16 -0.21,0.12 -0.48,0.17 -0.76,0.23 -0.29,0.06 -0.6,0.11 -0.87,0.26 -0.51,0.26 -1.07,0.64 -1.56,0.97 -0.46,0.32 -1.17,0.79 -1.37,0.81 -0.09,0 -0.18,0.02 -0.25,0.07 -1.22,0.83 -2.25,1.76 -3.45,2.86 -0.29,0.26 -0.59,0.54 -0.9,0.82 -0.38,0.34 -0.66,0.82 -0.93,1.26 -0.19,0.32 -0.38,0.65 -0.61,0.93 -0.35,0.45 -0.75,0.78 -1.13,1.1 -0.69,0.59 -1.33,1.13 -1.44,2.09 -0.11,0.95 0.14,1.78 0.71,2.42 0.64,0.71 1.62,1.1 2.78,1.1 0.31,0 0.64,-0.03 0.96,-0.08 1.66,-0.29 4.64,-2.63 4.98,-2.89 0.53,-0.42 1.04,-0.89 1.54,-1.33 0.92,-0.83 1.79,-1.62 2.69,-2.1 0.24,-0.13 0.5,-0.17 0.81,-0.22 0.3,-0.05 0.63,-0.11 0.98,-0.25 0.28,-0.12 0.56,-0.33 0.87,-0.56 0.22,-0.16 0.44,-0.33 0.67,-0.46 0.2,-0.12 0.47,-0.24 0.73,-0.35 0.34,-0.16 0.69,-0.32 0.95,-0.49 0.33,-0.23 0.61,-0.51 0.89,-0.78 0.33,-0.33 0.65,-0.64 1.05,-0.85 0.3,-0.16 0.66,-0.26 1.03,-0.36 0.44,-0.11 0.89,-0.24 1.3,-0.47 0.6,-0.34 1.12,-0.81 1.62,-1.28 0.5,-0.45 0.98,-0.89 1.52,-1.2 0.76,-0.43 1.54,-0.81 2.29,-1.18 2.15,-1.06 4.18,-2.06 5.51,-3.92 1.87,-0.27 3.13,-0.49 4.72,-1.16 0.59,-0.26 1.16,-0.72 1.77,-1.23 0.54,-0.44 1.11,-0.9 1.74,-1.28 0.26,-0.15 0.57,-0.25 0.91,-0.37 0.37,-0.13 0.76,-0.26 1.09,-0.46 0.22,-0.14 0.51,-0.43 0.98,-0.91 0.4,-0.4 0.9,-0.91 1.16,-1.07 0.14,-0.08 0.35,-0.13 0.58,-0.18 0.28,-0.06 0.61,-0.14 0.91,-0.31 0.64,-0.39 1.42,-1.06 2.11,-1.66 l 0.43,-0.37 c 0.94,-0.81 2.05,-2.01 1.96,-3.16 z"
           id="path1241"
           style="fill:#ffffff" /><path
           class="cls-1"
           d="m 131.2,73.31 c -0.12,-0.18 -2.78,-4.4 -4.39,-4.81 -0.46,-0.12 -1.04,-0.08 -1.48,-0.01 -0.24,0.03 -0.49,0.05 -0.57,0.04 -1.11,-0.81 -2.19,-1.7 -3.24,-2.55 -1.64,-1.32 -3.32,-2.68 -5.15,-3.87 -0.04,-0.03 -0.09,-0.05 -0.14,-0.06 -1.48,-0.32 -2.26,-0.85 -3.33,-1.58 -0.31,-0.21 -0.63,-0.44 -1,-0.67 -0.49,-0.31 -1,-0.57 -1.5,-0.83 -0.64,-0.31 -1.24,-0.61 -1.57,-0.94 -0.34,-0.33 -0.56,-0.78 -0.8,-1.26 -0.35,-0.71 -0.76,-1.52 -1.62,-1.95 -0.07,-0.04 -0.16,-0.05 -0.24,-0.04 -0.16,0.02 -0.32,0.03 -0.48,0.03 v 0 c -0.88,0 -1.46,-0.3 -2.08,-0.63 -0.62,-0.32 -1.26,-0.65 -2.2,-0.71 -0.45,-0.35 -0.93,-0.79 -1.45,-1.27 -0.96,-0.9 -1.95,-1.81 -2.98,-2.33 -0.3,-0.15 -0.61,-0.22 -0.91,-0.28 -0.26,-0.06 -0.51,-0.11 -0.76,-0.23 -0.67,-0.3 -1.32,-0.85 -2.02,-1.44 -0.99,-0.86 -2.02,-1.73 -3.22,-1.89 -1.65,-0.22 -3.1,0.2 -3.91,1.16 -0.64,0.75 -0.88,1.78 -0.69,2.96 0,0.05 0.02,0.09 0.04,0.13 0.44,0.81 1.28,0.91 1.95,0.99 0.33,0.04 0.65,0.08 0.9,0.19 0.33,0.14 0.64,0.44 0.97,0.77 0.24,0.23 0.47,0.46 0.75,0.67 1.21,0.92 2.39,1.55 3.63,2.22 l 0.56,0.3 c 0.33,0.18 0.7,0.35 1.05,0.51 0.46,0.21 0.9,0.42 1.24,0.63 0.46,0.28 0.85,0.73 1.27,1.2 0.46,0.52 0.93,1.05 1.54,1.43 0.44,0.28 0.91,0.4 1.36,0.52 0.35,0.09 0.68,0.18 0.99,0.33 1.22,0.59 2.55,1.63 3.84,2.64 l 0.38,0.29 c 0.4,0.31 0.8,0.65 1.2,0.98 0.97,0.79 1.97,1.62 2.97,2.19 0.55,0.32 1.13,0.54 1.69,0.76 0.66,0.27 1.28,0.51 1.74,0.86 0.37,0.29 0.67,0.7 0.99,1.14 0.24,0.34 0.49,0.67 0.78,0.97 0.06,0.06 0.15,0.1 0.24,0.13 1.14,0.16 1.75,0.87 2.4,1.62 0.17,0.19 0.32,0.38 0.49,0.56 0.07,0.08 0.17,0.12 0.27,0.13 1.29,0.1 1.94,0.84 2.62,1.62 0.34,0.39 0.7,0.79 1.13,1.11 0.25,0.18 0.51,0.26 0.74,0.33 0.17,0.05 0.32,0.09 0.43,0.17 0.54,0.37 0.92,0.81 1.32,1.28 0.13,0.16 0.27,0.31 0.42,0.47 0.07,0.08 0.17,0.13 0.27,0.14 0.67,0.06 1.28,0.43 1.92,0.81 0.76,0.45 1.53,0.92 2.47,0.92 0.24,0 0.48,-0.03 0.72,-0.09 0.17,-0.05 0.99,-0.51 1.22,-0.82 1.25,-1.67 -0.24,-4.04 -0.8,-4.93 z"
           id="path1243"
           style="fill:#ffffff" /><path
           class="cls-1"
           d="m 43.76,161.5 c 0.19,-0.31 0.39,-0.65 0.44,-1.02 0.26,-1.62 -0.1,-2.62 -0.42,-3.52 -0.18,-0.5 -0.35,-0.98 -0.4,-1.54 -0.24,-2.66 0.24,-6.71 0.8,-8.43 0.04,-0.13 0.02,-0.27 -0.06,-0.39 -0.69,-0.91 -0.45,-2.09 -0.17,-3.44 0.28,-1.38 0.61,-2.94 -0.13,-4.42 -0.03,-0.06 -0.06,-0.11 -0.11,-0.14 -0.28,-0.22 -0.56,-0.34 -0.85,-0.34 -0.29,0 -0.51,0.11 -0.73,0.21 -0.23,0.11 -0.45,0.2 -0.75,0.2 h -0.01 c -0.19,-0.07 -0.37,-0.27 -0.57,-0.5 -0.34,-0.37 -0.76,-0.83 -1.43,-0.83 h -0.06 c -1.16,0.06 -2.76,2.32 -2.88,3.69 -0.06,0.63 0.13,1.29 0.31,1.98 0.19,0.7 0.39,1.44 0.35,2.18 0,0.29 -0.12,0.63 -0.23,1 -0.13,0.43 -0.27,0.89 -0.27,1.33 0,0.43 0.14,0.85 0.27,1.26 0.1,0.32 0.2,0.63 0.23,0.93 0.09,0.87 -0.02,1.74 -0.15,2.67 -0.1,0.74 -0.2,1.49 -0.19,2.25 0,0.35 0.09,0.7 0.18,1.02 0.09,0.33 0.17,0.65 0.15,0.93 -0.02,0.32 -0.19,0.71 -0.35,1.09 -0.2,0.46 -0.42,0.98 -0.47,1.55 -0.04,0.45 0.03,0.92 0.1,1.35 0.07,0.41 0.13,0.8 0.07,1.07 -0.09,0.45 -0.5,0.84 -0.92,1.28 -0.22,0.22 -0.44,0.44 -0.65,0.69 -0.15,0.19 -0.29,0.39 -0.43,0.58 -0.42,0.56 -0.81,1.1 -1.23,1.29 -0.28,0.13 -0.61,0.17 -0.94,0.2 -0.42,0.05 -0.85,0.09 -1.24,0.31 -0.51,0.3 -0.76,0.78 -1.01,1.23 -0.29,0.55 -0.54,1 -1.17,1.16 -0.19,-0.15 -0.32,-0.38 -0.47,-0.63 -0.22,-0.38 -0.46,-0.79 -0.91,-1.04 -0.2,-0.63 -0.52,-0.93 -0.79,-1.19 -0.27,-0.25 -0.43,-0.4 -0.47,-0.86 -0.02,-0.32 0.14,-0.62 0.31,-0.95 0.21,-0.41 0.45,-0.87 0.35,-1.41 -0.14,-0.73 -0.62,-1.03 -1,-1.27 -0.33,-0.2 -0.56,-0.35 -0.63,-0.71 0.83,-1.26 1.54,-3.32 1.46,-4.25 0,-0.05 -0.02,-0.09 -0.04,-0.13 -0.25,-0.58 -0.26,-1.09 -0.28,-1.79 v -0.38 c -0.02,-0.34 0.13,-0.7 0.28,-1.08 0.17,-0.4 0.35,-0.86 0.37,-1.36 0.02,-0.4 -0.07,-0.82 -0.16,-1.2 -0.09,-0.38 -0.18,-0.76 -0.17,-1.13 0,-0.37 0.09,-0.74 0.17,-1.11 0.1,-0.46 0.21,-0.94 0.16,-1.42 -0.05,-0.5 -0.25,-0.94 -0.45,-1.38 -0.17,-0.39 -0.34,-0.76 -0.38,-1.1 -0.03,-0.3 0.02,-0.72 0.08,-1.13 0.04,-0.32 0.08,-0.65 0.09,-0.96 0.01,-0.52 -0.04,-1.05 -0.1,-1.56 -0.06,-0.52 -0.11,-1 -0.07,-1.39 0.02,-0.23 0.15,-0.51 0.29,-0.82 0.2,-0.44 0.41,-0.91 0.38,-1.39 -0.03,-0.61 -0.4,-0.95 -0.72,-1.25 -0.3,-0.29 -0.61,-0.58 -0.78,-1.16 -0.06,-0.2 -0.09,-0.74 -0.13,-1.28 -0.11,-1.84 -0.23,-3.92 -1.43,-3.92 -0.17,0 -0.35,0.05 -0.54,0.16 -1.95,1.07 -3.71,2.27 -3.85,4.97 -0.02,0.41 0.07,0.79 0.17,1.17 0.09,0.39 0.19,0.76 0.16,1.14 -0.02,0.2 -0.14,0.49 -0.26,0.81 -0.17,0.4 -0.35,0.85 -0.4,1.32 -0.07,0.77 0,1.68 0.06,2.64 0.05,0.72 0.1,1.46 0.1,2.19 0,0.54 -0.02,1.09 -0.04,1.68 -0.05,1.19 -0.1,2.42 0.05,3.5 0.06,0.4 0.2,0.76 0.35,1.12 0.14,0.36 0.28,0.69 0.31,1 0.04,0.4 -0.02,0.89 -0.07,1.41 -0.06,0.5 -0.11,1.04 -0.09,1.54 0.02,0.56 0.11,1.11 0.19,1.64 0.09,0.66 0.19,1.26 0.15,1.78 -0.02,0.28 -0.13,0.57 -0.24,0.88 -0.12,0.36 -0.24,0.73 -0.26,1.11 -0.01,0.28 0.07,0.55 0.17,0.83 0.07,0.23 0.15,0.46 0.17,0.69 0.16,3.24 0.06,5.67 -0.27,6.21 -0.32,0.52 -0.69,0.77 -1.17,0.77 -0.9,0 -2.03,-0.85 -2.85,-1.47 -0.31,-0.23 -0.59,-0.44 -0.84,-0.59 -0.42,-0.26 -0.93,-0.44 -1.38,-0.59 -0.38,-0.13 -0.73,-0.26 -0.92,-0.39 -0.91,-0.63 -2.57,-2.51 -3.01,-3.32 -0.16,-0.3 -0.26,-0.57 -0.34,-0.83 -0.13,-0.38 -0.25,-0.73 -0.54,-1.06 -0.83,-0.93 -0.65,-1.66 -0.37,-2.77 0.13,-0.5 0.27,-1.07 0.31,-1.71 0.04,-0.53 -0.06,-1.09 -0.15,-1.67 -0.09,-0.54 -0.19,-1.09 -0.18,-1.66 0,-0.25 0.08,-0.53 0.15,-0.83 0.09,-0.37 0.18,-0.74 0.18,-1.15 0,-0.36 -0.09,-0.71 -0.17,-1.04 -0.08,-0.32 -0.16,-0.63 -0.16,-0.94 0,-0.24 0.08,-0.49 0.15,-0.76 0.07,-0.27 0.16,-0.54 0.18,-0.86 0.02,-0.34 -0.03,-0.69 -0.08,-1.03 -0.04,-0.29 -0.08,-0.56 -0.08,-0.81 0,-0.57 0.06,-1.13 0.11,-1.63 0.07,-0.7 0.13,-1.31 0.04,-1.76 -0.08,-0.43 -0.31,-0.79 -0.53,-1.13 -0.2,-0.33 -0.41,-0.65 -0.46,-1 -0.04,-0.33 0.02,-0.62 0.1,-0.93 0.13,-0.49 0.26,-1.06 -0.16,-1.71 -0.04,-0.06 -0.09,-0.11 -0.15,-0.14 -0.56,-0.3 -1.19,-0.45 -1.89,-0.45 -2.3,0 -4.71,1.65 -5.16,3.53 -0.21,0.88 -0.06,1.48 0.11,2.11 0.08,0.32 0.17,0.63 0.21,1.01 0.2,1.67 0.33,4.5 0.16,6.19 -0.03,0.32 -0.16,0.65 -0.3,0.99 -0.15,0.36 -0.3,0.73 -0.35,1.15 -0.1,0.81 0.02,1.66 0.15,2.48 0.08,0.52 0.16,1.06 0.18,1.56 0.01,0.28 -0.04,0.59 -0.09,0.88 -0.06,0.34 -0.11,0.67 -0.07,0.97 0.04,0.39 0.22,0.83 0.39,1.25 0.1,0.28 0.22,0.55 0.28,0.8 0.09,0.32 0.16,0.67 0.22,1.01 0.09,0.5 0.16,0.93 0.31,1.21 0.3,0.61 0.87,1.02 1.37,1.4 0.46,0.35 0.88,0.66 1.02,1.03 -0.35,0.23 -0.72,0.39 -1.07,0.55 -0.57,0.27 -1.11,0.52 -1.58,1 -1.78,1.86 -1.24,7.55 -0.46,10.07 -0.02,0.13 -0.05,0.28 -0.08,0.42 -0.12,0.69 -0.28,1.54 -0.25,2.27 0.02,0.43 0.09,0.8 0.17,1.28 0.06,0.29 0.11,0.61 0.17,1.01 0.21,1.41 0.13,3.27 0.07,5.07 -0.04,0.93 -0.07,1.89 -0.07,2.8 0,0.76 -0.03,1.55 -0.06,2.31 -0.13,3.34 -0.25,6.49 2.06,6.86 0.19,0.03 0.36,0.04 0.54,0.04 1.83,0 3.03,-1.58 3.41,-3.17 0.3,-1.24 0.16,-1.91 0,-2.7 -0.06,-0.28 -0.11,-0.57 -0.16,-0.92 -0.1,-0.8 -0.08,-1.76 0,-2.17 0.08,-0.45 0.31,-0.84 0.54,-1.24 0.24,-0.43 0.48,-0.85 0.61,-1.39 0.09,-0.39 0.1,-0.8 0.11,-1.26 0,-0.35 0,-0.74 0.06,-1.08 0.04,-0.25 0.13,-0.5 0.22,-0.76 0.14,-0.36 0.28,-0.73 0.27,-1.13 0,-0.42 -0.13,-0.82 -0.26,-1.2 -0.12,-0.38 -0.24,-0.74 -0.24,-1.1 0,-0.41 0.16,-0.84 0.32,-1.31 0.14,-0.41 0.29,-0.83 0.35,-1.28 0.18,-1.46 0.38,-4.03 0.16,-5.1 -0.1,-0.48 -0.37,-0.89 -0.67,-1.32 -0.25,-0.38 -0.51,-0.76 -0.67,-1.21 -0.29,-0.82 -0.44,-1.68 -0.56,-2.52 0.43,0.21 0.8,0.49 1.2,0.8 0.17,0.13 0.35,0.27 0.54,0.39 0.17,0.13 0.41,0.26 0.68,0.4 0.55,0.31 1.29,0.71 1.51,1.11 0.08,0.16 0.09,0.43 0.1,0.72 0.01,0.39 0.02,0.84 0.22,1.24 0.41,0.83 1.38,1.38 2.24,1.86 l 0.25,0.14 c 0.56,0.31 1.14,0.5 1.71,0.68 0.47,0.14 0.91,0.29 1.28,0.49 0.54,0.28 0.97,0.85 1.43,1.45 0.24,0.31 0.49,0.64 0.77,0.94 0.28,0.3 0.56,0.57 0.85,0.83 0.58,0.54 1.14,1.05 1.38,1.69 0.51,1.3 0.43,2.82 0.33,4.56 -0.08,1.5 -0.17,3.2 0.12,4.98 -0.18,0.36 -0.52,0.48 -1.1,0.63 -0.32,0.09 -0.67,0.19 -0.99,0.38 -0.33,0.19 -0.57,0.44 -0.8,0.68 -0.26,0.27 -0.48,0.5 -0.78,0.61 -0.15,0.06 -0.42,0.06 -0.7,0.04 -0.11,0 -0.22,0 -0.32,0 -0.24,0 -0.54,0.02 -0.82,0.14 -0.88,0.39 -1.37,1.13 -1.8,1.78 -0.32,0.49 -0.63,0.95 -1.06,1.23 -0.16,0.09 -0.35,0.14 -0.59,0.19 -0.27,0.06 -0.57,0.12 -0.87,0.3 -0.46,0.25 -0.85,0.7 -1.26,1.19 -0.3,0.34 -0.61,0.69 -0.95,1 -0.39,0.33 -0.87,0.62 -1.33,0.9 -0.52,0.31 -1.01,0.6 -1.34,0.94 -0.2,0.2 -0.35,0.5 -0.52,0.83 -0.15,0.29 -0.3,0.59 -0.51,0.86 -0.17,0.23 -0.39,0.44 -0.59,0.65 -0.26,0.26 -0.54,0.54 -0.74,0.86 -0.21,0.33 -0.35,0.73 -0.48,1.11 -0.11,0.33 -0.22,0.63 -0.36,0.89 -0.16,0.28 -0.36,0.54 -0.56,0.78 -0.25,0.3 -0.48,0.58 -0.62,0.92 -0.52,1.24 -1.09,3.27 -1.19,4.76 -0.02,0.4 0.03,0.76 0.08,1.1 0.06,0.35 0.11,0.68 0.08,1.04 -0.02,0.28 -0.12,0.6 -0.22,0.92 -0.12,0.33 -0.23,0.68 -0.27,1.05 -0.18,1.62 -0.17,3.55 -0.17,5.25 v 0.42 c 0,3.49 0.08,7.16 0.16,11.04 0.09,4.27 0.18,8.7 0.17,12.92 0,0.45 0,0.85 0,1.24 -0.02,1.27 -0.02,2.27 0.12,3.49 0.1,0.84 0.33,1.42 0.55,1.98 0.21,0.53 0.41,1.03 0.5,1.77 0.15,1.18 0.04,2.56 -0.07,3.89 -0.19,2.33 -0.37,4.54 0.87,5.62 0.6,0.51 1.58,0.63 2.3,0.63 0.58,0 1.23,-0.07 1.87,-0.2 0.07,-0.01 0.13,-0.05 0.19,-0.1 1.46,-1.28 1.46,-3.39 1.46,-4.93 0,-1.69 0,-3.32 -0.17,-4.84 -0.05,-0.46 -0.2,-0.89 -0.35,-1.31 -0.16,-0.45 -0.31,-0.87 -0.32,-1.29 0,-0.51 0.15,-1.02 0.31,-1.56 0.15,-0.48 0.3,-0.98 0.35,-1.54 0.08,-0.76 -0.04,-1.54 -0.15,-2.28 -0.09,-0.57 -0.18,-1.15 -0.18,-1.72 0,-0.29 0.08,-0.61 0.17,-0.94 0.06,-0.26 0.13,-0.54 0.17,-0.83 0.12,-1.08 0.19,-2.35 0.24,-3.48 0.03,-0.57 0.06,-1.07 0.09,-1.49 0.02,-0.22 0.05,-0.44 0.08,-0.65 0.05,-0.35 0.1,-0.71 0.09,-1.05 -0.02,-0.38 -0.15,-0.73 -0.28,-1.08 -0.11,-0.27 -0.2,-0.53 -0.22,-0.74 -0.01,-0.18 0.06,-0.42 0.14,-0.67 0.1,-0.31 0.2,-0.64 0.19,-0.97 0,-0.39 -0.11,-0.73 -0.21,-1.02 -0.07,-0.24 -0.14,-0.45 -0.12,-0.58 0.03,-0.37 0.2,-0.73 0.38,-1.12 0.22,-0.48 0.44,-0.98 0.45,-1.55 0,-0.52 -0.13,-0.98 -0.27,-1.41 -0.1,-0.33 -0.2,-0.64 -0.22,-0.94 -0.02,-0.26 0.02,-0.56 0.07,-0.87 0.06,-0.35 0.11,-0.72 0.09,-1.11 -0.06,-0.98 -0.36,-1.93 -0.64,-2.85 -0.27,-0.89 -0.52,-1.72 -0.52,-2.4 0,-0.32 0.13,-0.8 0.24,-1.26 0.19,-0.8 0.31,-1.32 0.18,-1.69 -0.49,-1.25 -0.16,-2.48 0.19,-3.77 0.33,-1.24 0.67,-2.52 0.39,-3.91 -0.06,-0.48 0.98,-1.39 1.82,-2.13 0.67,-0.59 1.37,-1.22 1.89,-1.86 0.26,-0.32 0.45,-0.69 0.64,-1.06 0.2,-0.39 0.41,-0.78 0.67,-1.08 0.38,-0.43 0.93,-0.87 1.52,-1.33 0.25,-0.2 0.5,-0.39 0.75,-0.61 0.15,-0.13 0.3,-0.26 0.46,-0.39 0.7,-0.59 1.42,-1.21 2,-1.33 0.32,-0.07 0.65,-0.1 0.97,-0.1 1.55,0 2.89,0.76 2.99,1.7 0.03,0.3 -0.18,0.74 -0.41,1.21 -0.14,0.3 -0.29,0.6 -0.41,0.94 -0.67,1.91 -0.61,3.12 -0.52,5.32 v 0.12 c 0.06,1.21 0,2.57 -0.06,4 -0.08,1.99 -0.16,4.05 0.06,5.79 0.04,0.33 0.18,0.7 0.32,1.08 0.15,0.42 0.31,0.85 0.33,1.21 0.07,1.08 -0.13,2.14 -0.34,3.26 -0.12,0.63 -0.24,1.28 -0.32,1.95 -0.05,0.39 -0.02,0.8 0,1.2 0.02,0.38 0.04,0.76 0,1.11 -0.03,0.31 -0.13,0.62 -0.23,0.95 -0.12,0.39 -0.24,0.78 -0.27,1.2 -0.03,0.37 0.02,0.74 0.08,1.11 0.05,0.31 0.09,0.6 0.08,0.89 -0.04,1.15 -0.14,2.34 -0.25,3.49 -0.12,1.38 -0.25,2.81 -0.25,4.12 0,0.85 0.06,1.7 0.11,2.53 0.09,1.24 0.17,2.43 0.06,3.54 -0.02,0.25 -0.13,0.5 -0.23,0.76 -0.13,0.35 -0.27,0.69 -0.27,1.09 0,0.46 0.13,0.87 0.27,1.29 0.1,0.31 0.2,0.61 0.23,0.91 0.55,5.2 0.63,12.42 -0.15,14.86 -0.49,1.54 -0.39,3.08 -0.3,4.58 0.07,1.14 0.13,2.21 -0.04,3.24 -0.06,0.33 -0.25,0.58 -0.46,0.87 -0.23,0.3 -0.5,0.65 -0.56,1.13 -0.06,0.47 0.02,0.98 0.09,1.48 0.06,0.38 0.11,0.73 0.1,1.03 -0.06,1.08 -0.5,1.67 -1.35,2.38 -0.51,-0.08 -1.13,0 -1.69,0.09 -0.51,0.08 -0.98,0.16 -1.45,0.1 -0.34,-0.04 -0.73,-0.25 -1.15,-0.47 -0.35,-0.19 -0.71,-0.38 -1.09,-0.5 -0.53,-0.17 -1.02,-0.27 -1.46,-0.35 -0.95,-0.2 -1.63,-0.35 -2.13,-0.98 -0.4,-0.51 -0.38,-1.21 -0.35,-2.01 0.02,-0.53 0.03,-1.06 -0.06,-1.61 C 8.48,270.16 8.23,269.63 8,269.1 7.84,268.74 7.68,268.39 7.57,268.04 7.51,267.82 7.45,267.59 7.39,267.37 7.21,266.64 7.03,265.88 6.5,265.25 6.44,265.17 6.37,265.13 6.28,265.11 5.8,264.99 5.23,264.87 4.7,264.87 c -0.73,0 -1.29,0.24 -1.66,0.72 -0.04,0.04 -0.07,0.1 -0.08,0.16 -0.19,0.77 -0.13,1.44 -0.06,2.09 0.04,0.44 0.08,0.84 0.05,1.27 -0.03,0.35 -0.13,0.69 -0.23,1.06 -0.14,0.48 -0.28,0.98 -0.26,1.47 v 0.11 c 0.06,1.54 0.14,2.95 0.57,3.59 2.13,2.95 4.95,6.51 6.29,6.62 1.17,0 2.08,0.28 3.05,0.58 0.83,0.26 1.69,0.53 2.71,0.59 1.52,0.08 2.92,-0.24 4.26,-0.56 0.44,-0.1 0.87,-0.2 1.26,-0.28 0.08,0 0.35,0.09 0.54,0.15 0.21,0.06 0.44,0.13 0.64,0.17 0.92,0.2 1.9,0.32 2.94,0.43 0.67,0.07 1.35,0.14 2.05,0.24 0.02,0 0.04,0 0.06,0 h 0.21 c 2.67,0 7.33,-0.35 8.59,-2.7 0.04,-0.06 0.06,-0.14 0.05,-0.2 0,-0.24 0,-0.5 0,-0.75 0.02,-0.93 0.04,-1.87 -0.43,-2.47 -0.04,-0.06 -0.09,-0.09 -0.15,-0.12 -1.21,-0.59 -2.58,-0.6 -3.79,-0.61 -1.94,-0.01 -3.16,-0.09 -3.77,-1.49 -0.06,-0.15 -0.07,-0.34 -0.08,-0.59 0,-0.18 -0.02,-0.39 -0.05,-0.63 -0.46,-3.26 -0.36,-6.04 0.31,-8.22 0.81,-2.23 0.21,-10.66 -0.3,-13.22 -0.02,-0.45 0.18,-1.2 0.35,-1.88 0.13,-0.49 0.25,-0.97 0.3,-1.34 0.05,-0.37 -0.07,-0.71 -0.18,-1 -0.08,-0.25 -0.17,-0.48 -0.15,-0.67 0,-0.11 0.15,-0.38 0.24,-0.54 0.1,-0.19 0.19,-0.37 0.24,-0.52 0.04,-0.1 0.07,-0.2 0.11,-0.3 0.13,-0.39 0.26,-0.78 0.24,-1.17 -0.02,-0.46 -0.19,-0.85 -0.36,-1.24 -0.14,-0.32 -0.28,-0.63 -0.3,-0.92 -0.02,-0.22 0.06,-0.46 0.15,-0.71 0.09,-0.27 0.19,-0.57 0.18,-0.91 -0.02,-0.52 -0.22,-0.89 -0.39,-1.22 -0.16,-0.28 -0.28,-0.5 -0.28,-0.78 1.12,-1.79 1.06,-3.73 1.01,-5.77 v -0.16 c -0.03,-0.77 -0.02,-1.54 -0.02,-2.36 0,-2.23 0.02,-4.53 -0.47,-7.04 0.41,-1.65 0.33,-3.54 0.23,-5.52 -0.04,-0.89 -0.08,-1.82 -0.08,-2.74 0,-1.09 0.09,-2.23 0.17,-3.33 0.09,-1.25 0.19,-2.55 0.16,-3.79 0,-0.43 -0.05,-0.87 -0.09,-1.28 -0.07,-0.64 -0.13,-1.23 -0.07,-1.8 0.06,-0.47 0.19,-0.93 0.33,-1.35 0.2,-0.64 0.41,-1.31 0.33,-2.04 -0.06,-0.54 -0.31,-1.03 -0.55,-1.51 -0.23,-0.45 -0.45,-0.87 -0.44,-1.24 0.02,-0.67 0.37,-1.71 1.27,-1.9 0.25,0.02 0.7,0.43 0.95,0.66 l 0.05,0.05 c 1.38,1.28 2.65,2.71 3.57,4.06 0.05,0.07 0.12,0.13 0.2,0.16 2.13,0.74 2.54,2.61 3.03,5.61 l 0.13,0.77 c 0.2,1.19 0.43,2.53 0.53,3.66 0.12,1.32 0.07,2.72 0,4.07 -0.05,1.3 -0.1,2.52 0,3.69 0.04,0.47 0.17,0.89 0.28,1.27 0.11,0.37 0.2,0.7 0.22,1.02 0,0.3 -0.07,0.6 -0.15,0.93 -0.1,0.39 -0.2,0.78 -0.18,1.22 0.01,0.39 0.14,0.74 0.27,1.09 0.11,0.31 0.22,0.61 0.23,0.89 0,0.43 -0.11,0.9 -0.23,1.4 -0.13,0.5 -0.25,1.02 -0.27,1.55 -0.05,1.64 -0.02,3.41 0.02,5.13 0.06,2.87 0.1,5.58 -0.18,7.71 -0.04,0.34 -0.17,0.69 -0.31,1.05 -0.17,0.46 -0.35,0.96 -0.35,1.48 0,0.47 0.16,0.98 0.32,1.52 0.15,0.49 0.3,1 0.35,1.49 0.12,1.28 0.08,2.8 0.03,4.28 -0.01,0.38 -0.02,0.76 -0.03,1.12 0,0.32 -0.02,0.65 -0.03,0.98 -0.09,2.73 -0.19,5.81 1.08,7.13 0.49,0.5 1.14,0.7 1.91,0.57 1.71,-0.28 2.77,-4.84 2.83,-5.32 0.21,-1.76 0.19,-4.18 0.17,-6.51 v -1.14 c -0.02,-2.86 -0.23,-5.55 -0.38,-7.51 -0.12,-1.58 -0.22,-2.82 -0.14,-3.24 0.08,-0.46 0.26,-1.13 0.44,-1.78 0.28,-0.99 0.43,-1.57 0.41,-1.87 0,-0.1 -0.02,-0.68 -0.04,-1.46 -0.05,-2.19 -0.14,-6.27 -0.29,-8.94 -0.03,-0.5 -0.07,-1.02 -0.11,-1.54 -0.13,-1.77 -0.26,-3.59 -0.06,-5.33 0.03,-0.28 0.13,-0.56 0.22,-0.87 0.15,-0.42 0.29,-0.87 0.28,-1.34 -0.02,-0.47 -0.19,-0.94 -0.35,-1.4 -0.14,-0.39 -0.28,-0.76 -0.31,-1.1 -0.12,-1.35 -0.08,-2.81 -0.04,-4.23 0.02,-0.63 0.04,-1.25 0.04,-1.84 0,-0.23 0.05,-0.48 0.09,-0.73 0.06,-0.34 0.12,-0.67 0.07,-0.99 -0.09,-0.58 -0.44,-1.24 -0.77,-1.88 -0.16,-0.31 -0.3,-0.59 -0.42,-0.86 -0.2,-0.47 -0.42,-0.88 -0.63,-1.29 -0.5,-0.95 -0.94,-1.79 -0.98,-3.02 0,-0.09 -0.03,-0.16 -0.08,-0.23 -0.35,-0.48 -0.9,-0.76 -1.43,-1.03 -0.39,-0.2 -0.8,-0.41 -1.1,-0.69 -0.22,-0.2 -0.43,-0.55 -0.66,-0.94 -0.27,-0.43 -0.57,-0.95 -0.98,-1.35 -0.28,-0.29 -0.63,-0.51 -0.98,-0.72 -0.32,-0.19 -0.61,-0.37 -0.84,-0.61 -0.37,-0.37 -0.71,-0.82 -1.06,-1.3 -0.43,-0.57 -0.88,-1.17 -1.43,-1.69 -1.06,-1 -2.08,-2.06 -2.36,-2.96 -0.07,-0.22 -0.07,-0.48 -0.08,-0.79 0,-0.3 0,-0.63 -0.08,-0.98 -0.12,-0.55 -0.37,-1.02 -0.62,-1.49 -0.24,-0.44 -0.47,-0.87 -0.53,-1.29 -0.05,-0.35 0.04,-0.83 0.13,-1.34 0.09,-0.47 0.19,-1.02 0.2,-1.57 0,-0.31 0.02,-0.6 0.02,-0.85 0.03,-1.84 0.04,-2.28 1.31,-3.29 0.54,-0.43 0.82,-0.51 1.21,-0.64 0.1,-0.04 0.21,-0.07 0.33,-0.11 0.76,-0.28 1.32,-0.82 1.82,-1.28 0.39,-0.37 0.77,-0.72 1.16,-0.87 0.2,-0.07 0.48,-0.11 0.75,-0.14 0.35,-0.04 0.67,-0.07 0.94,-0.2 0.65,-0.32 1.52,-1.18 2.43,-2.09 0.39,-0.39 0.79,-0.79 1.14,-1.11 l 0.38,-0.35 c 1.22,-1.11 2.48,-2.25 2.87,-3.28 0.15,-0.39 0.14,-0.8 0.13,-1.19 0,-0.3 -0.01,-0.59 0.05,-0.83 0.08,-0.28 0.24,-0.57 0.39,-0.84 z"
           id="path1245"
           style="fill:#ffffff" /></g></g></g></svg>
