<?xml version="1.0" encoding="UTF-8" standalone="no"?>
<!-- Created with Inkscape (http://www.inkscape.org/) -->

<svg
   version="1.1"
   id="svg3601"
   width="1078.0389"
   height="127.97946"
   viewBox="0 0 1078.0389 127.97946"
   sodipodi:docname="ETBF_BOB25_edit Map.pdf"
   inkscape:export-filename="../../../../../../../Downloads/bft_pai.svg"
   inkscape:export-xdpi="96"
   inkscape:export-ydpi="96"
   inkscape:version="0.0"
   xmlns:inkscape="http://www.inkscape.org/namespaces/inkscape"
   xmlns:sodipodi="http://sodipodi.sourceforge.net/DTD/sodipodi-0.dtd"
   xmlns="http://www.w3.org/2000/svg"
   xmlns:svg="http://www.w3.org/2000/svg">
  <defs
     id="defs3605">
    <clipPath
       clipPathUnits="userSpaceOnUse"
       id="clipPath3771">
      <path
         d="m 230,461 h 113 v 19 H 230 Z"
         clip-rule="evenodd"
         id="path3769" />
    </clipPath>
    <clipPath
       clipPathUnits="userSpaceOnUse"
       id="clipPath3793">
      <path
         d="m 326,461 h 16 v 19 h -16 z"
         clip-rule="evenodd"
         id="path3791" />
    </clipPath>
    <clipPath
       clipPathUnits="userSpaceOnUse"
       id="clipPath3819">
      <path
         d="m 448,461 h 144 v 19 H 448 Z"
         clip-rule="evenodd"
         id="path3817" />
    </clipPath>
    <clipPath
       clipPathUnits="userSpaceOnUse"
       id="clipPath3841">
      <path
         d="m 448,461 h 17 v 19 h -17 z"
         clip-rule="evenodd"
         id="path3839" />
    </clipPath>
    <clipPath
       clipPathUnits="userSpaceOnUse"
       id="clipPath3881">
      <path
         d="m 787,461 h 141 v 19 H 787 Z"
         clip-rule="evenodd"
         id="path3879" />
    </clipPath>
    <clipPath
       clipPathUnits="userSpaceOnUse"
       id="clipPath3903">
      <path
         d="m 911,461 h 16 v 19 h -16 z"
         clip-rule="evenodd"
         id="path3901" />
    </clipPath>
    <clipPath
       clipPathUnits="userSpaceOnUse"
       id="clipPath3929">
      <path
         d="m 1051,461 h 190 v 19 h -190 z"
         clip-rule="evenodd"
         id="path3927" />
    </clipPath>
    <clipPath
       clipPathUnits="userSpaceOnUse"
       id="clipPath3951">
      <path
         d="m 1051,461 h 17 v 19 h -17 z"
         clip-rule="evenodd"
         id="path3949" />
    </clipPath>
    <clipPath
       clipPathUnits="userSpaceOnUse"
       id="clipPath4009">
      <path
         d="m 168,498 h 65 v 19 h -65 z"
         clip-rule="evenodd"
         id="path4007" />
    </clipPath>
    <clipPath
       clipPathUnits="userSpaceOnUse"
       id="clipPath4031">
      <path
         d="m 216,498 h 16 v 19 h -16 z"
         clip-rule="evenodd"
         id="path4029" />
    </clipPath>
  </defs>
  <sodipodi:namedview
     id="namedview3603"
     pagecolor="#505050"
     bordercolor="#eeeeee"
     borderopacity="1"
     inkscape:showpageshadow="0"
     inkscape:pageopacity="0"
     inkscape:pagecheckerboard="0"
     inkscape:deskcolor="#505050"
     showgrid="false"
     inkscape:zoom="0.66416896"
     inkscape:cx="603.00921"
     inkscape:cy="277.79076"
     inkscape:window-width="1728"
     inkscape:window-height="1051"
     inkscape:window-x="0"
     inkscape:window-y="38"
     inkscape:window-maximized="0"
     inkscape:current-layer="g3609" />
  <g
     id="g3609"
     inkscape:groupmode="layer"
     inkscape:label="Page 1"
     transform="matrix(1.3333333,0,0,-1.3333333,-31.618457,456.06972)">
    <rect
       style="fill:#ffffff;fill-opacity:1;stroke:none;stroke-width:5.43152;stroke-linecap:round;stroke-linejoin:round;stroke-dashoffset:47.4436;paint-order:stroke fill markers"
       id="rect6129"
       width="808.52924"
       height="95.984612"
       x="23.713844"
       y="-342.05231"
       transform="scale(1,-1)" />
    <g
       id="g4673">
      <g
         id="g3631"
         transform="matrix(0.6,0,0,-0.6,10.2,584.8)">
        <path
           d="m 1082,452 h 2 v 6 h -2 z"
           style="fill:#252525;fill-opacity:1;fill-rule:evenodd;stroke:none"
           id="path3633" />
        <path
           d="m 789,452 h 2 v 6 h -2 z"
           style="fill:#252525;fill-opacity:1;fill-rule:evenodd;stroke:none"
           id="path3635" />
        <path
           d="m 495,452 h 2 v 6 h -2 z"
           style="fill:#252525;fill-opacity:1;fill-rule:evenodd;stroke:none"
           id="path3637" />
        <path
           d="m 201,452 h 2 v 6 h -2 z"
           style="fill:#252525;fill-opacity:1;fill-rule:evenodd;stroke:none"
           id="path3639" />
      </g>
      <g
         id="g3641"
         transform="matrix(0.6,0,0,-0.6,10.2,801.4)">
        <g
           id="g3643">
          <text
             xml:space="preserve"
             transform="translate(1039,820)"
             style="font-variant:normal;font-size:8px;font-family:Verdana;-inkscape-font-specification:Verdana-0-50;writing-mode:lr-tb;fill:#000000;fill-opacity:1;fill-rule:nonzero;stroke:none"
             id="text3647"><tspan
               x="0 5.078125 7.984375 13.0625 18.140625 23.21875 26.125 31.203125 36.28125"
               y="0"
               sodipodi:role="line"
               id="tspan3645">3.525.000</tspan></text>
        </g>
        <g
           id="g3649">
          <text
             xml:space="preserve"
             transform="translate(746,820)"
             style="font-variant:normal;font-size:8px;font-family:Verdana;-inkscape-font-specification:Verdana-0-50;writing-mode:lr-tb;fill:#000000;fill-opacity:1;fill-rule:nonzero;stroke:none"
             id="text3653"><tspan
               x="0 5.078125 7.984375 13.0625 18.140625 23.21875 26.125 31.203125 36.28125"
               y="0"
               sodipodi:role="line"
               id="tspan3651">3.522.500</tspan></text>
        </g>
        <g
           id="g3655">
          <text
             xml:space="preserve"
             transform="translate(452,820)"
             style="font-variant:normal;font-size:8px;font-family:Verdana;-inkscape-font-specification:Verdana-0-50;writing-mode:lr-tb;fill:#000000;fill-opacity:1;fill-rule:nonzero;stroke:none"
             id="text3659"><tspan
               x="0 5.078125 7.984375 13.0625 18.140625 23.21875 26.125 31.203125 36.28125"
               y="0"
               sodipodi:role="line"
               id="tspan3657">3.520.000</tspan></text>
        </g>
        <g
           id="g3661">
          <text
             xml:space="preserve"
             transform="translate(158,820)"
             style="font-variant:normal;font-size:8px;font-family:Verdana;-inkscape-font-specification:Verdana-0-50;writing-mode:lr-tb;fill:#000000;fill-opacity:1;fill-rule:nonzero;stroke:none"
             id="text3665"><tspan
               x="0 5.078125 7.984375 13.0625 18.140625 23.21875 26.125 31.203125 36.28125"
               y="0"
               sodipodi:role="line"
               id="tspan3663">3.517.500</tspan></text>
        </g>
      </g>
      <g
         id="g3667"
         transform="matrix(0.6,0,0,-0.6,10.2,584.8)">
        <g
           id="g3669"
           transform="translate(0,-361)">
          <path
             d="m 80,806 h 1209 v 3 H 80 Z"
             style="fill:#252525;fill-opacity:1;fill-rule:nonzero;stroke:none"
             id="path3671" />
        </g>
        <g
           id="g3673"
           transform="translate(0,-361)">
          <path
             d="m 80,810 h 1209 v 3 H 80 Z"
             style="fill:#252525;fill-opacity:1;fill-rule:nonzero;stroke:none"
             id="path3675" />
        </g>
        <path
           d="m 65,448 c 0,1.65685 -1.343146,3 -3,3 -1.656854,0 -3,-1.34315 -3,-3 0,-1.65686 1.343146,-3 3,-3 1.656854,0 3,1.34314 3,3 z"
           style="fill:#252525;fill-opacity:1;fill-rule:evenodd;stroke:none"
           id="path3677" />
        <g
           id="g3679">
          <path
             d="m 65.5,448 c 0,1.86396 -1.636039,3.5 -3.5,3.5 -1.863961,0 -3.5,-1.63604 -3.5,-3.5 0,-1.86396 1.636039,-3.5 3.5,-3.5 1.863961,0 3.5,1.63604 3.5,3.5 z m -1,0 c 0,-1.44975 -1.050253,-2.5 -2.5,-2.5 -1.449748,0 -2.5,1.05025 -2.5,2.5 0,1.44975 1.050252,2.5 2.5,2.5 1.449747,0 2.5,-1.05025 2.5,-2.5 z"
             style="fill:#000000;fill-opacity:0;fill-rule:nonzero;stroke:none"
             id="path3681" />
        </g>
        <path
           d="m 51,448 c 0,1.65685 -1.343146,3 -3,3 -1.656854,0 -3,-1.34315 -3,-3 0,-1.65686 1.343146,-3 3,-3 1.656854,0 3,1.34314 3,3 z"
           style="fill:#252525;fill-opacity:1;fill-rule:evenodd;stroke:none"
           id="path3683" />
        <g
           id="g3685">
          <path
             d="m 51.5,448 c 0,1.86396 -1.636039,3.5 -3.5,3.5 -1.863961,0 -3.5,-1.63604 -3.5,-3.5 0,-1.86396 1.636039,-3.5 3.5,-3.5 1.863961,0 3.5,1.63604 3.5,3.5 z m -1,0 c 0,-1.44975 -1.050253,-2.5 -2.5,-2.5 -1.449748,0 -2.5,1.05025 -2.5,2.5 0,1.44975 1.050252,2.5 2.5,2.5 1.449747,0 2.5,-1.05025 2.5,-2.5 z"
             style="fill:#000000;fill-opacity:0;fill-rule:nonzero;stroke:none"
             id="path3687" />
        </g>
        <path
           d="m 37,448 c 0,1.65685 -1.343146,3 -3,3 -1.656854,0 -3,-1.34315 -3,-3 0,-1.65686 1.343146,-3 3,-3 1.656854,0 3,1.34314 3,3 z"
           style="fill:#252525;fill-opacity:1;fill-rule:evenodd;stroke:none"
           id="path3689" />
        <g
           id="g3691">
          <path
             d="m 37.5,448 c 0,1.86396 -1.636039,3.5 -3.5,3.5 -1.863961,0 -3.5,-1.63604 -3.5,-3.5 0,-1.86396 1.636039,-3.5 3.5,-3.5 1.863961,0 3.5,1.63604 3.5,3.5 z m -1,0 c 0,-1.44975 -1.050253,-2.5 -2.5,-2.5 -1.449748,0 -2.5,1.05025 -2.5,2.5 0,1.44975 1.050252,2.5 2.5,2.5 1.449747,0 2.5,-1.05025 2.5,-2.5 z"
             style="fill:#000000;fill-opacity:0;fill-rule:nonzero;stroke:none"
             id="path3693" />
        </g>
        <path
           d="m 1310,448 c 0,1.65685 -1.3431,3 -3,3 -1.6569,0 -3,-1.34315 -3,-3 0,-1.65686 1.3431,-3 3,-3 1.6569,0 3,1.34314 3,3 z"
           style="fill:#252525;fill-opacity:1;fill-rule:evenodd;stroke:none"
           id="path3695" />
        <g
           id="g3697">
          <path
             d="m 1310.5,448 c 0,1.86396 -1.636,3.5 -3.5,3.5 -1.864,0 -3.5,-1.63604 -3.5,-3.5 0,-1.86396 1.636,-3.5 3.5,-3.5 1.864,0 3.5,1.63604 3.5,3.5 z m -1,0 c 0,-1.44975 -1.0503,-2.5 -2.5,-2.5 -1.4497,0 -2.5,1.05025 -2.5,2.5 0,1.44975 1.0503,2.5 2.5,2.5 1.4497,0 2.5,-1.05025 2.5,-2.5 z"
             style="fill:#000000;fill-opacity:0;fill-rule:nonzero;stroke:none"
             id="path3699" />
        </g>
        <path
           d="m 1324,448 c 0,1.65685 -1.3431,3 -3,3 -1.6569,0 -3,-1.34315 -3,-3 0,-1.65686 1.3431,-3 3,-3 1.6569,0 3,1.34314 3,3 z"
           style="fill:#252525;fill-opacity:1;fill-rule:evenodd;stroke:none"
           id="path3701" />
        <g
           id="g3703">
          <path
             d="m 1324.5,448 c 0,1.86396 -1.636,3.5 -3.5,3.5 -1.864,0 -3.5,-1.63604 -3.5,-3.5 0,-1.86396 1.636,-3.5 3.5,-3.5 1.864,0 3.5,1.63604 3.5,3.5 z m -1,0 c 0,-1.44975 -1.0503,-2.5 -2.5,-2.5 -1.4497,0 -2.5,1.05025 -2.5,2.5 0,1.44975 1.0503,2.5 2.5,2.5 1.4497,0 2.5,-1.05025 2.5,-2.5 z"
             style="fill:#000000;fill-opacity:0;fill-rule:nonzero;stroke:none"
             id="path3705" />
        </g>
        <path
           d="m 1338,448 c 0,1.65685 -1.3431,3 -3,3 -1.6569,0 -3,-1.34315 -3,-3 0,-1.65686 1.3431,-3 3,-3 1.6569,0 3,1.34314 3,3 z"
           style="fill:#252525;fill-opacity:1;fill-rule:evenodd;stroke:none"
           id="path3707" />
        <g
           id="g3709">
          <path
             d="m 1338.5,448 c 0,1.86396 -1.636,3.5 -3.5,3.5 -1.864,0 -3.5,-1.63604 -3.5,-3.5 0,-1.86396 1.636,-3.5 3.5,-3.5 1.864,0 3.5,1.63604 3.5,3.5 z m -1,0 c 0,-1.44975 -1.0503,-2.5 -2.5,-2.5 -1.4497,0 -2.5,1.05025 -2.5,2.5 0,1.44975 1.0503,2.5 2.5,2.5 1.4497,0 2.5,-1.05025 2.5,-2.5 z"
             style="fill:#000000;fill-opacity:0;fill-rule:nonzero;stroke:none"
             id="path3711" />
        </g>
      </g>
      <g
         id="g3713"
         transform="matrix(0.6,0,0,-0.6,10.2,801.4)">
        <path
           d="m 1288,794 v 11"
           style="fill:none;stroke:#7f7f7f;stroke-width:1;stroke-linecap:square;stroke-linejoin:bevel;stroke-miterlimit:10;stroke-dasharray:none;stroke-opacity:1"
           id="path3715" />
        <path
           d="m 80,794 v 11"
           style="fill:none;stroke:#7f7f7f;stroke-width:1;stroke-linecap:square;stroke-linejoin:bevel;stroke-miterlimit:10;stroke-dasharray:none;stroke-opacity:1"
           id="path3717" />
      </g>
      <g
         id="g3719"
         transform="matrix(0.6,0,0,-0.6,10.2,584.8)">
        <g
           id="g3721"
           transform="matrix(1,0,0,-1,0,445)">
          <path
             d="m 1287,14 h 76 v 9 h -76 z"
             style="fill:#fffcf5;fill-opacity:0.8;fill-rule:nonzero;stroke:none"
             id="path3723" />
        </g>
        <g
           id="g3725"
           transform="matrix(1,0,0,-1,0,445)">
          <path
             d="m 1289,11 h 72 v 3 h -72 z"
             style="fill:#fffcf5;fill-opacity:0.8;fill-rule:nonzero;stroke:none"
             id="path3727" />
        </g>
        <g
           id="g3729"
           transform="matrix(1,0,0,-1,0,445)">
          <path
             d="m 79,14 h 46 v 9 H 79 Z"
             style="fill:#fffcf5;fill-opacity:0.8;fill-rule:nonzero;stroke:none"
             id="path3731" />
        </g>
        <g
           id="g3733"
           transform="matrix(1,0,0,-1,0,445)">
          <path
             d="m 81,11 h 42 v 3 H 81 Z"
             style="fill:#fffcf5;fill-opacity:0.8;fill-rule:nonzero;stroke:none"
             id="path3735" />
        </g>
      </g>
      <g
         id="g3739"
         transform="matrix(0.6,0,0,-0.6,10.2,801.4)">
        <g
           id="g3741">
          <text
             xml:space="preserve"
             transform="translate(1288,792)"
             style="font-variant:normal;font-size:9px;font-family:Verdana;-inkscape-font-specification:Verdana-1-75;writing-mode:lr-tb;fill:#000000;fill-opacity:1;fill-rule:nonzero;stroke:none"
             id="text3745"><tspan
               x="0 6.140625 12.546875"
               y="0"
               sodipodi:role="line"
               id="tspan3743">End</tspan></text>
        </g>
        <g
           id="g3747">
          <text
             xml:space="preserve"
             transform="translate(1312.625,792)"
             style="font-variant:normal;font-size:8px;font-family:Verdana;-inkscape-font-specification:Verdana-0-50;writing-mode:lr-tb;fill:#000000;fill-opacity:1;fill-rule:nonzero;stroke:none"
             id="text3751"><tspan
               x="0 3.625 8.703125 11.609375 16.6875 21.765625 26.84375 29.75 34.828125 39.90625 44.984375"
               y="0"
               sodipodi:role="line"
               id="tspan3749">(5.282.232)</tspan></text>
        </g>
        <g
           id="g3753">
          <text
             xml:space="preserve"
             transform="translate(80,792)"
             style="font-variant:normal;font-size:9px;font-family:Verdana;-inkscape-font-specification:Verdana-1-75;writing-mode:lr-tb;fill:#000000;fill-opacity:1;fill-rule:nonzero;stroke:none"
             id="text3757"><tspan
               x="0 6.390625 10.484375 16.484375 20.953125"
               y="0"
               sodipodi:role="line"
               id="tspan3755">Start</tspan></text>
        </g>
        <g
           id="g3759">
          <text
             xml:space="preserve"
             transform="translate(110.625,792)"
             style="font-variant:normal;font-size:8px;font-family:Verdana;-inkscape-font-specification:Verdana-0-50;writing-mode:lr-tb;fill:#000000;fill-opacity:1;fill-rule:nonzero;stroke:none"
             id="text3763"><tspan
               x="0 3.625 8.703125"
               y="0"
               sodipodi:role="line"
               id="tspan3761">(0)</tspan></text>
        </g>
      </g>
      <g
         id="g3765"
         transform="matrix(0.6,0,0,-0.6,10.2,584.8)">
        <g
           id="g3767"
           clip-path="url(#clipPath3771)">
          <g
             id="g3773"
             transform="translate(0,451)" />
          <g
             id="g3775">
            <path
               d="m 326,461 16,9 -16,9 z"
               style="fill:#54eb58;fill-opacity:1;fill-rule:evenodd;stroke:none"
               id="path3777" />
          </g>
        </g>
      </g>
      <g
         id="g3779"
         transform="matrix(0.6,0,0,-0.6,10.2,584.8)">
        <g
           id="g3781"
           transform="translate(0,451)" />
        <g
           id="g3783">
          <path
             d="m 230,464 h 96 v 13 h -96 z"
             style="fill:#54eb58;fill-opacity:1;fill-rule:evenodd;stroke:none"
             id="path3785" />
        </g>
      </g>
      <g
         id="g3787"
         transform="matrix(0.6,0,0,-0.6,10.2,584.8)">
        <g
           id="g3789"
           clip-path="url(#clipPath3793)">
          <g
             id="g3795"
             transform="translate(0,451)">
            <path
               d="m 326,10 15,9 -15,10"
               style="fill:none;stroke:#505050;stroke-width:1;stroke-linecap:square;stroke-linejoin:bevel;stroke-miterlimit:10;stroke-dasharray:none;stroke-opacity:1"
               id="path3797" />
          </g>
        </g>
      </g>
      <g
         id="g3799"
         transform="matrix(0.6,0,0,-0.6,10.2,584.8)">
        <g
           id="g3801"
           transform="translate(0,451)">
          <path
             d="m 326,10 v 3"
             style="fill:none;stroke:#505050;stroke-width:1;stroke-linecap:square;stroke-linejoin:bevel;stroke-miterlimit:10;stroke-dasharray:none;stroke-opacity:1"
             id="path3803" />
          <path
             d="m 326,26 v 2"
             style="fill:none;stroke:#505050;stroke-width:1;stroke-linecap:square;stroke-linejoin:bevel;stroke-miterlimit:10;stroke-dasharray:none;stroke-opacity:1"
             id="path3805" />
          <path
             d="M 230,13 V 25"
             style="fill:none;stroke:#505050;stroke-width:1;stroke-linecap:square;stroke-linejoin:bevel;stroke-miterlimit:10;stroke-dasharray:none;stroke-opacity:1"
             id="path3807" />
          <path
             d="m 230,13 h 96"
             style="fill:none;stroke:#505050;stroke-width:1;stroke-linecap:square;stroke-linejoin:bevel;stroke-miterlimit:10;stroke-dasharray:none;stroke-opacity:1"
             id="path3809" />
          <path
             d="m 230,26 h 96"
             style="fill:none;stroke:#505050;stroke-width:1;stroke-linecap:square;stroke-linejoin:bevel;stroke-miterlimit:10;stroke-dasharray:none;stroke-opacity:1"
             id="path3811" />
        </g>
      </g>
      <g
         id="g3813"
         transform="matrix(0.6,0,0,-0.6,10.2,584.8)">
        <g
           id="g3815"
           clip-path="url(#clipPath3819)">
          <g
             id="g3821"
             transform="translate(0,451)" />
          <g
             id="g3823">
            <path
               d="m 465,461 -17,9 17,9 z"
               style="fill:#d8161d;fill-opacity:1;fill-rule:evenodd;stroke:none"
               id="path3825" />
          </g>
        </g>
      </g>
      <g
         id="g3827"
         transform="matrix(0.6,0,0,-0.6,10.2,584.8)">
        <g
           id="g3829"
           transform="translate(0,451)" />
        <g
           id="g3831">
          <path
             d="m 463,464 h 128 v 13 H 463 Z"
             style="fill:#d8161d;fill-opacity:1;fill-rule:evenodd;stroke:none"
             id="path3833" />
        </g>
      </g>
      <g
         id="g3835"
         transform="matrix(0.6,0,0,-0.6,10.2,584.8)">
        <g
           id="g3837"
           clip-path="url(#clipPath3841)">
          <g
             id="g3843"
             transform="translate(0,451)">
            <path
               d="m 464,10 -16,9 16,9"
               style="fill:none;stroke:#2a2a2a;stroke-width:1;stroke-linecap:square;stroke-linejoin:bevel;stroke-miterlimit:10;stroke-dasharray:none;stroke-opacity:1"
               id="path3845" />
          </g>
        </g>
      </g>
      <g
         id="g3847"
         transform="matrix(0.6,0,0,-0.6,10.2,584.8)">
        <g
           id="g3849"
           transform="translate(0,451)">
          <path
             d="m 464,10 v 3"
             style="fill:none;stroke:#2a2a2a;stroke-width:1;stroke-linecap:square;stroke-linejoin:bevel;stroke-miterlimit:10;stroke-dasharray:none;stroke-opacity:1"
             id="path3851" />
          <path
             d="m 464,26 v 1"
             style="fill:none;stroke:#2a2a2a;stroke-width:1;stroke-linecap:square;stroke-linejoin:bevel;stroke-miterlimit:10;stroke-dasharray:none;stroke-opacity:1"
             id="path3853" />
          <path
             d="M 591,13 V 25"
             style="fill:none;stroke:#2a2a2a;stroke-width:1;stroke-linecap:square;stroke-linejoin:bevel;stroke-miterlimit:10;stroke-dasharray:none;stroke-opacity:1"
             id="path3855" />
          <path
             d="M 464,13 H 591"
             style="fill:none;stroke:#2a2a2a;stroke-width:1;stroke-linecap:square;stroke-linejoin:bevel;stroke-miterlimit:10;stroke-dasharray:none;stroke-opacity:1"
             id="path3857" />
          <path
             d="M 464,26 H 591"
             style="fill:none;stroke:#2a2a2a;stroke-width:1;stroke-linecap:square;stroke-linejoin:bevel;stroke-miterlimit:10;stroke-dasharray:none;stroke-opacity:1"
             id="path3859" />
        </g>
        <g
           id="g3861">
          <path
             d="m 678,464 h 21 v 13 h -21 z"
             style="fill:#16d8be;fill-opacity:1;fill-rule:evenodd;stroke:none"
             id="path3863" />
        </g>
        <g
           id="g3865"
           transform="translate(0,451)">
          <path
             d="M 678,13 V 25"
             style="fill:none;stroke:#4a4a4a;stroke-width:1;stroke-linecap:square;stroke-linejoin:bevel;stroke-miterlimit:10;stroke-dasharray:none;stroke-opacity:1"
             id="path3867" />
          <path
             d="M 699,13 V 25"
             style="fill:none;stroke:#4a4a4a;stroke-width:1;stroke-linecap:square;stroke-linejoin:bevel;stroke-miterlimit:10;stroke-dasharray:none;stroke-opacity:1"
             id="path3869" />
          <path
             d="m 678,13 h 21"
             style="fill:none;stroke:#4a4a4a;stroke-width:1;stroke-linecap:square;stroke-linejoin:bevel;stroke-miterlimit:10;stroke-dasharray:none;stroke-opacity:1"
             id="path3871" />
          <path
             d="m 678,26 h 21"
             style="fill:none;stroke:#4a4a4a;stroke-width:1;stroke-linecap:square;stroke-linejoin:bevel;stroke-miterlimit:10;stroke-dasharray:none;stroke-opacity:1"
             id="path3873" />
        </g>
      </g>
      <g
         id="g3875"
         transform="matrix(0.6,0,0,-0.6,10.2,584.8)">
        <g
           id="g3877"
           clip-path="url(#clipPath3881)">
          <g
             id="g3883"
             transform="translate(0,451)" />
          <g
             id="g3885">
            <path
               d="m 911,461 16,9 -16,9 z"
               style="fill:#d8161d;fill-opacity:1;fill-rule:evenodd;stroke:none"
               id="path3887" />
          </g>
        </g>
      </g>
      <g
         id="g3889"
         transform="matrix(0.6,0,0,-0.6,10.2,584.8)">
        <g
           id="g3891"
           transform="translate(0,451)" />
        <g
           id="g3893">
          <path
             d="m 787,464 h 124 v 13 H 787 Z"
             style="fill:#d8161d;fill-opacity:1;fill-rule:evenodd;stroke:none"
             id="path3895" />
        </g>
      </g>
      <g
         id="g3897"
         transform="matrix(0.6,0,0,-0.6,10.2,584.8)">
        <g
           id="g3899"
           clip-path="url(#clipPath3903)">
          <g
             id="g3905"
             transform="translate(0,451)">
            <path
               d="m 911,10 15,9 -15,10"
               style="fill:none;stroke:#2a2a2a;stroke-width:1;stroke-linecap:square;stroke-linejoin:bevel;stroke-miterlimit:10;stroke-dasharray:none;stroke-opacity:1"
               id="path3907" />
          </g>
        </g>
      </g>
      <g
         id="g3909"
         transform="matrix(0.6,0,0,-0.6,10.2,584.8)">
        <g
           id="g3911"
           transform="translate(0,451)">
          <path
             d="m 911,10 v 3"
             style="fill:none;stroke:#2a2a2a;stroke-width:1;stroke-linecap:square;stroke-linejoin:bevel;stroke-miterlimit:10;stroke-dasharray:none;stroke-opacity:1"
             id="path3913" />
          <path
             d="m 911,26 v 2"
             style="fill:none;stroke:#2a2a2a;stroke-width:1;stroke-linecap:square;stroke-linejoin:bevel;stroke-miterlimit:10;stroke-dasharray:none;stroke-opacity:1"
             id="path3915" />
          <path
             d="M 787,13 V 25"
             style="fill:none;stroke:#2a2a2a;stroke-width:1;stroke-linecap:square;stroke-linejoin:bevel;stroke-miterlimit:10;stroke-dasharray:none;stroke-opacity:1"
             id="path3917" />
          <path
             d="M 787,13 H 911"
             style="fill:none;stroke:#2a2a2a;stroke-width:1;stroke-linecap:square;stroke-linejoin:bevel;stroke-miterlimit:10;stroke-dasharray:none;stroke-opacity:1"
             id="path3919" />
          <path
             d="M 787,26 H 911"
             style="fill:none;stroke:#2a2a2a;stroke-width:1;stroke-linecap:square;stroke-linejoin:bevel;stroke-miterlimit:10;stroke-dasharray:none;stroke-opacity:1"
             id="path3921" />
        </g>
      </g>
      <g
         id="g3923"
         transform="matrix(0.6,0,0,-0.6,10.2,584.8)">
        <g
           id="g3925"
           clip-path="url(#clipPath3929)">
          <g
             id="g3931"
             transform="translate(0,451)" />
          <g
             id="g3933">
            <path
               d="m 1068,461 -17,9 17,9 z"
               style="fill:#54eb58;fill-opacity:1;fill-rule:evenodd;stroke:none"
               id="path3935" />
          </g>
        </g>
      </g>
      <g
         id="g3937"
         transform="matrix(0.6,0,0,-0.6,10.2,584.8)">
        <g
           id="g3939"
           transform="translate(0,451)" />
        <g
           id="g3941">
          <path
             d="m 1066,464 h 174 v 13 h -174 z"
             style="fill:#54eb58;fill-opacity:1;fill-rule:evenodd;stroke:none"
             id="path3943" />
        </g>
      </g>
      <g
         id="g3945"
         transform="matrix(0.6,0,0,-0.6,10.2,584.8)">
        <g
           id="g3947"
           clip-path="url(#clipPath3951)">
          <g
             id="g3953"
             transform="translate(0,451)">
            <path
               d="m 1067,10 -16,9 16,9"
               style="fill:none;stroke:#505050;stroke-width:1;stroke-linecap:square;stroke-linejoin:bevel;stroke-miterlimit:10;stroke-dasharray:none;stroke-opacity:1"
               id="path3955" />
          </g>
        </g>
      </g>
      <g
         id="g3957"
         transform="matrix(0.6,0,0,-0.6,10.2,584.8)">
        <g
           id="g3959"
           transform="translate(0,451)">
          <path
             d="m 1067,10 v 3"
             style="fill:none;stroke:#505050;stroke-width:1;stroke-linecap:square;stroke-linejoin:bevel;stroke-miterlimit:10;stroke-dasharray:none;stroke-opacity:1"
             id="path3961" />
          <path
             d="m 1067,26 v 1"
             style="fill:none;stroke:#505050;stroke-width:1;stroke-linecap:square;stroke-linejoin:bevel;stroke-miterlimit:10;stroke-dasharray:none;stroke-opacity:1"
             id="path3963" />
          <path
             d="M 1240,13 V 25"
             style="fill:none;stroke:#505050;stroke-width:1;stroke-linecap:square;stroke-linejoin:bevel;stroke-miterlimit:10;stroke-dasharray:none;stroke-opacity:1"
             id="path3965" />
          <path
             d="m 1067,13 h 173"
             style="fill:none;stroke:#505050;stroke-width:1;stroke-linecap:square;stroke-linejoin:bevel;stroke-miterlimit:10;stroke-dasharray:none;stroke-opacity:1"
             id="path3967" />
          <path
             d="m 1067,26 h 173"
             style="fill:none;stroke:#505050;stroke-width:1;stroke-linecap:square;stroke-linejoin:bevel;stroke-miterlimit:10;stroke-dasharray:none;stroke-opacity:1"
             id="path3969" />
        </g>
        <g
           id="g3971"
           transform="translate(0,451)">
          <g
             id="g3973">
            <text
               xml:space="preserve"
               transform="translate(268,21)"
               style="font-variant:normal;font-size:9px;font-family:Verdana;-inkscape-font-specification:Verdana-0-50;writing-mode:lr-tb;fill:#000000;fill-opacity:1;fill-rule:nonzero;stroke:none"
               id="text3977"><tspan
                 x="0 8.75 14.203125 19.796875"
                 y="0"
                 sodipodi:role="line"
                 id="tspan3975">mobB</tspan></text>
          </g>
        </g>
        <g
           id="g3979"
           transform="translate(0,451)">
          <path
             d="m 520.13281,18.508301 c 0,0.410156 -0.0579,0.779297 -0.17358,1.107422 -0.11573,0.328125 -0.27173,0.603515 -0.46802,0.826171 -0.20801,0.231446 -0.43652,0.40503 -0.68555,0.520752 -0.24902,0.115723 -0.52295,0.173584 -0.82177,0.173584 -0.27832,0 -0.52149,-0.03296 -0.7295,-0.09888 -0.208,-0.06592 -0.41308,-0.154542 -0.61523,-0.26587 L 516.58642,21 h -0.77343 v -6.837891 h 0.82617 v 2.44336 c 0.23144,-0.19043 0.47754,-0.346436 0.73828,-0.468018 0.26074,-0.121582 0.55371,-0.182374 0.87891,-0.182373 0.58007,-1e-6 1.03784,0.222656 1.37329,0.667969 0.33545,0.445312 0.50317,1.07373 0.50317,1.885254 z m -0.85254,0.02197 c 0,-0.585937 -0.0967,-1.030517 -0.29004,-1.33374 -0.19335,-0.303223 -0.50537,-0.454834 -0.93603,-0.454834 -0.24024,0 -0.4834,0.052 -0.72949,0.156006 -0.2461,0.104004 -0.47461,0.238037 -0.68555,0.4021 v 2.8125 c 0.23438,0.105468 0.43579,0.178711 0.60425,0.219726 0.16845,0.04102 0.35962,0.06152 0.57348,0.06152 0.45704,0 0.81519,-0.150147 1.07447,-0.45044 0.25927,-0.300293 0.38891,-0.77124 0.38891,-1.412842 z m 4.76758,-3.568359 h -0.0439 c -0.0908,-0.02637 -0.20948,-0.05347 -0.35596,-0.0813 -0.14649,-0.02783 -0.27539,-0.04175 -0.38672,-0.04175 -0.35449,-1e-6 -0.61157,0.07837 -0.77124,0.235108 -0.15967,0.156737 -0.2395,0.440184 -0.2395,0.850341 v 0.166992 h 1.48974 v 0.694336 h -1.46337 v 4.214356 h -0.82618 v -4.214356 h -0.5581 v -0.694336 h 0.5581 v -0.162597 c 0,-0.583009 0.14502,-1.030519 0.43506,-1.342529 0.29004,-0.312013 0.70899,-0.468019 1.25684,-0.468018 0.18457,-1e-6 0.35083,0.0088 0.49878,0.02637 0.14795,0.01758 0.28344,0.03808 0.40649,0.06152 v 0.755859 z m 3.06397,5.994141 c -0.15528,0.04102 -0.32447,0.07471 -0.50757,0.101074 -0.18311,0.02637 -0.34644,0.03955 -0.48999,0.03955 -0.50098,0 -0.88184,-0.134766 -1.14258,-0.404297 -0.26074,-0.269532 -0.39111,-0.70166 -0.39111,-1.296387 v -2.610352 h -0.55811 v -0.694336 h 0.55811 v -1.410644 h 0.82617 v 1.410644 h 1.70508 v 0.694336 h -1.70508 v 2.236817 c 0,0.257812 0.006,0.459228 0.0176,0.604248 0.0117,0.145019 0.0527,0.280517 0.12304,0.406494 0.0645,0.117188 0.15308,0.202881 0.26587,0.25708 0.11279,0.0542 0.28491,0.0813 0.51636,0.0813 0.13476,0 0.27539,-0.01977 0.42187,-0.05933 0.14649,-0.03955 0.25196,-0.07251 0.31641,-0.09888 h 0.0439 v 0.742676 z m 5.32861,-4.521973 c 0,0.290039 -0.0505,0.558838 -0.15161,0.806396 -0.10108,0.247559 -0.24243,0.462159 -0.42407,0.643799 -0.22559,0.225586 -0.49219,0.394776 -0.79981,0.507569 -0.30762,0.112793 -0.6958,0.169189 -1.16455,0.169189 h -0.87012 v 2.438965 h -0.87011 v -6.543457 h 1.77539 c 0.39257,-10e-7 0.72509,0.03296 0.99755,0.09888 0.27247,0.06592 0.51416,0.169188 0.7251,0.309814 0.24903,0.166992 0.44165,0.374999 0.57788,0.624024 0.13623,0.249022 0.20435,0.563965 0.20435,0.944824 z m -0.90527,0.02197 c 0,-0.225586 -0.0396,-0.421875 -0.11866,-0.588867 -0.0791,-0.166994 -0.19922,-0.303224 -0.36035,-0.408692 -0.14062,-0.09082 -0.30102,-0.156007 -0.4812,-0.195557 -0.18017,-0.03955 -0.40796,-0.05933 -0.68335,-0.05933 h -0.86133 v 2.614746 h 0.73389 c 0.35156,0 0.63721,-0.03149 0.85693,-0.09448 0.21973,-0.06299 0.39844,-0.16333 0.53614,-0.301026 0.13769,-0.140625 0.2351,-0.288574 0.29223,-0.443847 0.0571,-0.155274 0.0857,-0.32959 0.0857,-0.522949 z"
             style="fill:#ffffff;fill-opacity:1;fill-rule:nonzero;stroke:#ffffff;stroke-width:0.5;stroke-linecap:square;stroke-linejoin:bevel;stroke-miterlimit:10;stroke-dasharray:none;stroke-opacity:1"
             id="path3981" />
        </g>
        <g
           id="g3983"
           transform="translate(0,451)">
          <g
             id="g3985">
            <text
               xml:space="preserve"
               transform="translate(675,38)"
               style="font-variant:normal;font-size:9px;font-family:Verdana;-inkscape-font-specification:Verdana-0-50;writing-mode:lr-tb;fill:#000000;fill-opacity:1;fill-rule:nonzero;stroke:none"
               id="text3989"><tspan
                 x="0 3.78125 9.921875 15.640625 21.359375"
                 y="0"
                 sodipodi:role="line"
                 id="tspan3987">IS200</tspan></text>
          </g>
        </g>
        <g
           id="g3991"
           transform="translate(0,451)">
          <path
             d="m 848.70605,21 h -0.87011 v -5.638184 l -1.81934,3.836426 h -0.51855 l -1.80616,-3.836426 V 21 h -0.81298 v -6.543457 h 1.18652 l 1.74463,3.643066 1.6875,-3.643066 h 1.20849 z m 6.03125,-4.565918 c 0,0.290039 -0.0505,0.558838 -0.15161,0.806396 -0.10107,0.247559 -0.24243,0.462159 -0.42407,0.643799 -0.22559,0.225586 -0.49219,0.394776 -0.7998,0.507569 -0.30762,0.112793 -0.69581,0.169189 -1.16456,0.169189 h -0.87011 V 21 h -0.87012 v -6.543457 h 1.77539 c 0.39258,-10e-7 0.7251,0.03296 0.99756,0.09888 0.27246,0.06592 0.51416,0.169188 0.7251,0.309814 0.24902,0.166992 0.44165,0.374999 0.57788,0.624024 0.13623,0.249022 0.20434,0.563965 0.20434,0.944824 z m -0.90527,0.02197 c 0,-0.225586 -0.0396,-0.421875 -0.11865,-0.588867 -0.0791,-0.166994 -0.19922,-0.303224 -0.36035,-0.408692 -0.14063,-0.09082 -0.30103,-0.156007 -0.4812,-0.195557 -0.18018,-0.03955 -0.40796,-0.05933 -0.68335,-0.05933 h -0.86133 v 2.614746 h 0.73388 c 0.35157,0 0.63721,-0.03149 0.85694,-0.09448 0.21972,-0.06299 0.39844,-0.16333 0.53613,-0.301026 0.1377,-0.140625 0.23511,-0.288574 0.29224,-0.443847 0.0571,-0.155274 0.0857,-0.32959 0.0857,-0.522949 z M 858.18604,21 h -2.58399 v -0.667969 h 0.85693 v -5.207519 h -0.85693 v -0.667969 h 2.58399 v 0.667969 h -0.85694 v 5.207519 h 0.85694 z m 3.78124,0 h -2.58398 v -0.667969 h 0.85693 v -5.207519 h -0.85693 v -0.667969 h 2.58398 v 0.667969 h -0.85693 v 5.207519 h 0.85693 z"
             style="fill:#ffffff;fill-opacity:1;fill-rule:nonzero;stroke:#ffffff;stroke-width:0.5;stroke-linecap:square;stroke-linejoin:bevel;stroke-miterlimit:10;stroke-dasharray:none;stroke-opacity:1"
             id="path3993" />
        </g>
        <g
           id="g3995"
           transform="translate(0,451)">
          <g
             id="g3997">
            <text
               xml:space="preserve"
               transform="translate(1137,21)"
               style="font-variant:normal;font-size:9px;font-family:Verdana;-inkscape-font-specification:Verdana-0-50;writing-mode:lr-tb;fill:#000000;fill-opacity:1;fill-rule:nonzero;stroke:none"
               id="text4001"><tspan
                 x="0 8.75 14.203125 19.796875"
                 y="0"
                 sodipodi:role="line"
                 id="tspan3999">mobC</tspan></text>
          </g>
        </g>
      </g>
      <g
         id="g4003"
         transform="matrix(0.6,0,0,-0.6,10.2,584.8)">
        <g
           id="g4005"
           clip-path="url(#clipPath4009)">
          <g
             id="g4011"
             transform="translate(0,451)" />
          <g
             id="g4013">
            <path
               d="m 216,498 16,9 -16,9 z"
               style="fill:#54eb58;fill-opacity:1;fill-rule:evenodd;stroke:none"
               id="path4015" />
          </g>
        </g>
      </g>
      <g
         id="g4017"
         transform="matrix(0.6,0,0,-0.6,10.2,584.8)">
        <g
           id="g4019"
           transform="translate(0,451)" />
        <g
           id="g4021">
          <path
             d="m 168,501 h 48 v 13 h -48 z"
             style="fill:#54eb58;fill-opacity:1;fill-rule:evenodd;stroke:none"
             id="path4023" />
        </g>
      </g>
      <g
         id="g4025"
         transform="matrix(0.6,0,0,-0.6,10.2,584.8)">
        <g
           id="g4027"
           clip-path="url(#clipPath4031)">
          <g
             id="g4033"
             transform="translate(0,451)">
            <path
               d="m 216,47 15,9 -15,10"
               style="fill:none;stroke:#505050;stroke-width:1;stroke-linecap:square;stroke-linejoin:bevel;stroke-miterlimit:10;stroke-dasharray:none;stroke-opacity:1"
               id="path4035" />
          </g>
        </g>
      </g>
      <g
         id="g4037"
         transform="matrix(0.6,0,0,-0.6,10.2,584.8)">
        <g
           id="g4039"
           transform="translate(0,451)">
          <path
             d="m 216,47 v 3"
             style="fill:none;stroke:#505050;stroke-width:1;stroke-linecap:square;stroke-linejoin:bevel;stroke-miterlimit:10;stroke-dasharray:none;stroke-opacity:1"
             id="path4041" />
          <path
             d="m 216,63 v 2"
             style="fill:none;stroke:#505050;stroke-width:1;stroke-linecap:square;stroke-linejoin:bevel;stroke-miterlimit:10;stroke-dasharray:none;stroke-opacity:1"
             id="path4043" />
          <path
             d="M 168,50 V 62"
             style="fill:none;stroke:#505050;stroke-width:1;stroke-linecap:square;stroke-linejoin:bevel;stroke-miterlimit:10;stroke-dasharray:none;stroke-opacity:1"
             id="path4045" />
          <path
             d="m 168,50 h 48"
             style="fill:none;stroke:#505050;stroke-width:1;stroke-linecap:square;stroke-linejoin:bevel;stroke-miterlimit:10;stroke-dasharray:none;stroke-opacity:1"
             id="path4047" />
          <path
             d="m 168,63 h 48"
             style="fill:none;stroke:#505050;stroke-width:1;stroke-linecap:square;stroke-linejoin:bevel;stroke-miterlimit:10;stroke-dasharray:none;stroke-opacity:1"
             id="path4049" />
        </g>
        <g
           id="g4051"
           transform="translate(0,451)">
          <g
             id="g4053">
            <text
               xml:space="preserve"
               transform="translate(182,58)"
               style="font-variant:normal;font-size:9px;font-family:Verdana;-inkscape-font-specification:Verdana-0-50;writing-mode:lr-tb;fill:#000000;fill-opacity:1;fill-rule:nonzero;stroke:none"
               id="text4057"><tspan
                 x="0 8.75 14.203125 19.796875"
                 y="0"
                 sodipodi:role="line"
                 id="tspan4055">mobA</tspan></text>
          </g>
        </g>
        <g
           id="g4059"
           transform="translate(0,-361)">
          <g
             id="g4061">
            <text
               xml:space="preserve"
               transform="translate(634,912)"
               style="font-variant:normal;font-size:10px;font-family:Verdana;-inkscape-font-specification:Verdana-0-75;writing-mode:lr-tb;fill:#000000;fill-opacity:1;fill-rule:nonzero;stroke:none"
               id="text4065"><tspan
                 x="0 6.828125 13.640625 21.25 27.75 34.859375 42.46875 50.96875 58.578125 65.6875 72.796875 79.90625 86.546875 93.53125 96.9375"
                 y="0"
                 sodipodi:role="line"
                 id="tspan4063">ETBF_BOB25_edit</tspan></text>
          </g>
          <g
             id="g4067">
            <text
               xml:space="preserve"
               transform="translate(657,922)"
               style="font-variant:normal;font-size:8px;font-family:Verdana;-inkscape-font-specification:Verdana-0-50;writing-mode:lr-tb;fill:#000000;fill-opacity:1;fill-rule:nonzero;stroke:none"
               id="text4071"><tspan
                 x="0 5.078125 7.984375 13.0625 18.140625 23.21875 26.125 31.203125 36.28125 41.359375 44.171875 49.15625"
                 y="0"
                 sodipodi:role="line"
                 id="tspan4069">5.282.232 bp</tspan></text>
          </g>
        </g>
        <g
           id="g4073" />
      </g>
    </g>
  </g>
</svg>
