<?xml version="1.0" encoding="UTF-8" standalone="no"?>
<!-- Created with Inkscape (http://www.inkscape.org/) -->

<svg
   version="1.1"
   id="svg182"
   width="369.47003"
   height="317.56952"
   viewBox="0 0 369.47003 317.56952"
   sodipodi:docname="VIBRGBnotaglinepos.png"
   xml:space="preserve"
   inkscape:version="0.0"
   inkscape:export-filename="../Downloads/vib_kul.svg"
   inkscape:export-xdpi="106.01173"
   inkscape:export-ydpi="106.01173"
   xmlns:inkscape="http://www.inkscape.org/namespaces/inkscape"
   xmlns:sodipodi="http://sodipodi.sourceforge.net/DTD/sodipodi-0.dtd"
   xmlns:xlink="http://www.w3.org/1999/xlink"
   xmlns="http://www.w3.org/2000/svg"
   xmlns:svg="http://www.w3.org/2000/svg"><defs
     id="defs186"><clipPath
       id="SVGID_2_-5">
		<use
   xlink:href="#SVGID_1_-0"
   style="overflow:visible"
   id="use1255" />
	</clipPath><rect
       id="SVGID_1_-0"
       x="0"
       y="0"
       width="133.17"
       height="47.560001" /></defs><sodipodi:namedview
     id="namedview184"
     pagecolor="#505050"
     bordercolor="#eeeeee"
     borderopacity="1"
     inkscape:showpageshadow="0"
     inkscape:pageopacity="0"
     inkscape:pagecheckerboard="0"
     inkscape:deskcolor="#505050"
     showgrid="false"
     inkscape:zoom="1.0109598"
     inkscape:cx="237.89275"
     inkscape:cy="37.093464"
     inkscape:window-width="1728"
     inkscape:window-height="1051"
     inkscape:window-x="0"
     inkscape:window-y="38"
     inkscape:window-maximized="0"
     inkscape:current-layer="g443" /><g
     inkscape:groupmode="layer"
     inkscape:label="Image"
     id="g188"
     transform="translate(-44.912037,68.903039)"><g
       id="g443"
       transform="translate(-5.7779378,5.3918113)"><path
         style="fill:#525c71;stroke-width:0.64"
         d="m 392.20001,226.76281 c 0.462,-0.18488 1.014,-0.16214 1.22667,0.0505 0.21266,0.21266 -0.16534,0.36393 -0.84,0.33614 -0.74557,-0.0307 -0.89722,-0.18237 -0.38667,-0.38667 z M 343.98558,172.16 c 0,-29.392 0.0784,-41.416 0.17424,-26.72 0.0958,14.696 0.0958,38.744 0,53.44 -0.0958,14.696 -0.17424,2.672 -0.17424,-26.72 z m 45.01443,31.56281 c 0.462,-0.18488 1.014,-0.16214 1.22667,0.0505 0.21266,0.21266 -0.16534,0.36393 -0.84,0.33614 -0.74557,-0.0307 -0.89722,-0.18237 -0.38667,-0.38667 z M 400.12478,193.6 c 0.0131,-1.056 0.15648,-1.41052 0.31874,-0.78782 0.16227,0.6227 0.1516,1.4867 -0.0237,1.92 -0.17532,0.4333 -0.30808,-0.0762 -0.29503,-1.13218 z m 18.35359,-16.8 c -0.79608,-1.01508 -0.77344,-1.03772 0.24164,-0.24164 0.616,0.48311 1.12,0.98711 1.12,1.12 0,0.52675 -0.52556,0.18772 -1.36164,-0.87836 z m -2.47836,-7.40026 c 0,-0.11015 0.936,-1.04615 2.08,-2.08 l 2.08,-1.87974 -1.87974,2.08 c -1.75218,1.93885 -2.28026,2.37418 -2.28026,1.87974 z M 400.10106,151.04 c 0,-0.88 0.14527,-1.24 0.32281,-0.8 0.17754,0.44 0.17754,1.16 0,1.6 -0.17754,0.44 -0.32281,0.08 -0.32281,-0.8 z m -3.38269,-7.52 c -0.79608,-1.01508 -0.77344,-1.03772 0.24164,-0.24164 1.06608,0.83608 1.40511,1.36164 0.87836,1.36164 -0.1329,0 -0.6369,-0.504 -1.12,-1.12 z m -22.76694,-3.19698 c 3.09729,-0.11757 7.99329,-0.11697 10.88,10e-4 2.88672,0.1183 0.35258,0.2145 -5.63142,0.21377 -5.984,-6.4e-4 -8.34586,-0.0975 -5.24858,-0.21511 z m 14.70076,-23.00653 c 0.6227,-0.16227 1.4867,-0.1516 1.92,0.0237 0.4333,0.17532 -0.0762,0.30808 -1.13218,0.29503 -1.056,-0.0131 -1.41052,-0.15648 -0.78782,-0.31874 z"
         id="path449" /><g
         id="g515"
         inkscape:export-filename="../Downloads/vib-large.svg"
         inkscape:export-xdpi="96"
         inkscape:export-ydpi="96"
         transform="matrix(0.84788116,0,0,0.84788116,42.962169,-79.992612)"><path
           style="fill:#41b6b9;stroke-width:0.64"
           d="M 58.724614,98.538438 C 36.477651,94.793146 21.903366,73.551162 26.546333,51.638677 29.544167,37.490397 40.92701,25.708594 55.221006,21.958979 c 2.40277,-0.630297 6.387505,-1.030941 10.058995,-1.011377 16.552398,0.0882 30.825364,10.393218 36.582489,26.412398 1.29114,3.592603 1.49325,5.33844 1.48178,12.8 -0.0125,8.158637 -0.12372,8.914234 -1.99564,13.562227 -7.044679,17.491987 -24.783406,27.819683 -42.624016,24.816211 z"
           id="path455" /><path
           style="fill:#eb6529;stroke-width:0.64"
           d="M 63.042555,174.09723 C 15.999447,127.03899 8.7407119,119.53071 9.3522613,118.56114 c 0.6632637,-1.05155 4.0492607,-1.1313 54.5538137,-1.28478 53.205125,-0.16168 53.861995,-0.14829 55.133905,1.12362 1.27204,1.27204 1.28532,1.92808 1.12364,55.52364 -0.16197,53.68875 -0.17654,54.23816 -1.44362,54.41246 -0.94901,0.13056 -15.34646,-13.8949 -55.677445,-54.23885 z"
           id="path453" /><path
           style="fill:#5a2981;stroke-width:0.64"
           d="m 122.01532,111.46532 c -0.97492,-1.07728 -1.04949,-5.38713 -0.8992,-51.975504 L 121.28,8.6889894 123.04264,7.7044947 124.80528,6.72 150.40264,32.336536 C 172.51275,54.463207 176,58.209856 176,59.837933 c 0,1.627696 -3.46948,5.358355 -25.42923,27.343462 C 136.5847,101.18363 124.67733,112.64 124.10997,112.64 c -0.56738,0 -1.50997,-0.52861 -2.09465,-1.17468 z"
           id="path447" /></g><path
         style="fill:#ffffff;fill-opacity:1;stroke-width:0.542644"
         d="M 213.76928,113.05297 C 213.28759,112.6799 203.57206,91.7938 192.17921,66.639422 175.23783,29.234365 171.58533,20.759106 172.12595,20.107704 c 0.53589,-0.645704 2.49254,-0.796474 10.33662,-0.796474 6.02526,0 10.18233,0.230869 11.01872,0.611958 1.37768,0.627712 3.16108,4.766856 17.29956,40.151056 2.45893,6.153913 4.69516,11.281898 4.96942,11.395523 0.27424,0.113633 5.05705,-11.099561 10.62846,-24.918201 5.5714,-13.818649 10.54413,-25.539758 11.05053,-26.046909 0.78237,-0.783561 2.35843,-0.947906 10.48977,-1.09381 9.87217,-0.177139 12.10072,0.02171 12.10072,1.079557 0,0.338711 -9.31207,21.09937 -20.69349,46.134773 -13.07983,28.771347 -21.11036,45.810893 -21.8265,46.312503 -1.38823,0.97236 -2.57645,1.00907 -3.73048,0.11529 z m 68.26631,-1.25972 c -0.76149,-0.76149 -0.85272,-5.66608 -0.85272,-45.840892 V 20.964183 l 1.31913,-0.86433 c 1.86011,-1.218796 18.51916,-0.962905 19.31383,0.296665 0.81622,1.293748 0.69799,90.779282 -0.12102,91.598292 -0.45457,0.45457 -3.39196,0.65118 -9.72884,0.65118 -7.52889,0 -9.22314,-0.14549 -9.93038,-0.85274 z m 53.54733,0.23919 c -0.53177,-0.53999 -0.6783,-10.50882 -0.6783,-46.143266 V 20.434706 l 1.16468,-0.623328 c 0.84289,-0.451098 6.72766,-0.551199 21.29877,-0.3623 22.36869,0.289984 24.96235,0.636454 32.25301,4.308492 11.6478,5.866557 17.44232,21.267843 12.09124,32.137417 -1.59522,3.240364 -7.39049,9.540978 -8.77573,9.540978 -1.09112,0 -0.42636,0.884459 1.40671,1.87163 2.73739,1.474185 6.08296,5.304242 7.76212,8.886201 1.29276,2.757717 1.43779,3.675116 1.38752,8.777351 -0.0431,4.368834 -0.32835,6.446932 -1.22331,8.909815 -2.50079,6.882008 -6.80291,11.628538 -13.37194,14.753288 -7.46165,3.54936 -8.15527,3.63468 -31.47335,3.87179 -16.61367,0.16894 -21.30893,0.0672 -21.84142,-0.4736 z m 39.74867,-19.528887 c 3.17068,-0.87821 5.15267,-2.505115 6.35034,-5.212654 1.30991,-2.961285 0.93268,-5.983447 -1.03942,-8.32716 -2.66842,-3.171245 -3.80428,-3.449842 -14.94285,-3.665161 l -10.17458,-0.196683 v 9.004455 9.004456 l 8.81797,-0.0034 c 4.84988,-0.0017 9.79472,-0.27356 10.98854,-0.604225 z m -0.0123,-35.269855 c 4.30408,-1.19491 7.93812,-6.70596 7.01235,-10.634278 -0.62615,-2.656937 -2.43195,-5.039119 -4.74855,-6.264256 -2.02908,-1.073062 -3.23012,-1.210562 -12.1548,-1.391492 l -9.90326,-0.20077 v 9.548024 9.548024 l 8.81797,-0.0034 c 4.84988,-0.0017 9.78921,-0.27267 10.97629,-0.602224 z"
         id="path445"
         inkscape:export-filename="../Downloads/vib-large-darkbg.svg"
         inkscape:export-xdpi="96"
         inkscape:export-ydpi="96" /><polygon
         class="st2"
         points="22.59,24.6 28.41,33.29 23.11,33.29 19.7,27.74 18.52,29.08 18.52,33.29 14.27,33.29 14.27,19.03 18.52,19.03 18.52,23.94 18.56,23.94 22.35,19.03 27.6,19.03 "
         id="polygon1250"
         style="fill:#ffffff"
         transform="matrix(3.3081077,0,0,3.3081077,3.4832796,132.0561)" /><g
         id="g1272"
         transform="matrix(3.3081077,0,0,3.3081077,3.4832796,132.0561)">
	<defs
   id="defs1253" />
	<clipPath
   id="clipPath1476">
		<use
   xlink:href="#SVGID_1_-0"
   style="overflow:visible"
   id="use1474" />
	</clipPath>
	<path
   class="st3"
   d="m 41.17,27.77 c 0,3.95 -2.07,5.85 -6.29,5.85 -4.22,0 -6.31,-1.9 -6.31,-5.85 v -8.75 h 4.26 v 7.77 c 0,1.46 0,3.27 2.07,3.27 2.01,0 2.01,-1.82 2.01,-3.27 v -7.77 h 4.26 z"
   clip-path="url(#SVGID_2_-5)"
   id="path1258"
   style="fill:#ffffff" />
	<polygon
   class="st3"
   points="51.67,19.03 51.67,29.64 57.68,29.64 57.68,33.29 47.42,33.29 47.42,19.03 "
   clip-path="url(#SVGID_2_-5)"
   id="polygon1260"
   style="fill:#ffffff" />
	<polygon
   class="st3"
   points="63.19,27.86 63.19,29.64 70.51,29.64 70.51,33.29 58.98,33.29 58.98,19.03 70.3,19.03 70.3,22.68 63.19,22.68 63.19,24.46 69.65,24.46 69.65,27.86 "
   clip-path="url(#SVGID_2_-5)"
   id="polygon1262"
   style="fill:#ffffff" />
	<path
   class="st3"
   d="m 84.2,27.77 c 0,3.95 -2.07,5.85 -6.29,5.85 -4.22,0 -6.3,-1.9 -6.3,-5.85 v -8.75 h 4.25 v 7.77 c 0,1.46 0,3.27 2.07,3.27 2.01,0 2.01,-1.82 2.01,-3.27 v -7.77 h 4.26 z"
   clip-path="url(#SVGID_2_-5)"
   id="path1264"
   style="fill:#ffffff" />
	<polygon
   class="st3"
   points="89.09,19.03 91.36,27.68 91.39,27.68 93.62,19.03 97.99,19.03 93.68,33.29 88.92,33.29 84.8,19.03 "
   clip-path="url(#SVGID_2_-5)"
   id="polygon1266"
   style="fill:#ffffff" />
	<polygon
   class="st3"
   points="102.81,27.86 102.81,29.64 110.13,29.64 110.13,33.29 98.59,33.29 98.59,19.03 109.91,19.03 109.91,22.68 102.81,22.68 102.81,24.46 109.26,24.46 109.26,27.86 "
   clip-path="url(#SVGID_2_-5)"
   id="polygon1268"
   style="fill:#ffffff" />
	<polygon
   class="st3"
   points="119.52,33.29 115.29,25.5 115.25,25.5 115.25,33.29 111.23,33.29 111.23,19.03 115.58,19.03 119.6,26.66 119.64,26.66 119.64,19.03 123.66,19.03 123.66,33.29 "
   clip-path="url(#SVGID_2_-5)"
   id="polygon1270"
   style="fill:#ffffff" />
</g></g></g></svg>
