<?xml version="1.0" encoding="UTF-8" standalone="no"?>
<!-- Created with Inkscape (http://www.inkscape.org/) -->

<svg
   width="122.44985mm"
   height="128.98376mm"
   viewBox="0 0 122.44985 128.98376"
   version="1.1"
   id="svg5"
   xml:space="preserve"
   xmlns:xlink="http://www.w3.org/1999/xlink"
   xmlns="http://www.w3.org/2000/svg"
   xmlns:svg="http://www.w3.org/2000/svg"><defs
     id="defs2"><linearGradient
       id="linearGradient11003"><stop
         style="stop-color:#4bab42;stop-opacity:1;"
         offset="0"
         id="stop10999" /><stop
         style="stop-color:#277663;stop-opacity:1;"
         offset="0.38955188"
         id="stop11038" /><stop
         style="stop-color:#155180;stop-opacity:1;"
         offset="1"
         id="stop11001" /></linearGradient><linearGradient
       id="linearGradient4459"><stop
         style="stop-color:#000000;stop-opacity:1;"
         offset="0"
         id="stop4457" /></linearGradient><linearGradient
       id="linearGradient2361"><stop
         style="stop-color:#000000;stop-opacity:1;"
         offset="0"
         id="stop2357" /><stop
         style="stop-color:#000000;stop-opacity:0;"
         offset="1"
         id="stop2359" /></linearGradient><linearGradient
       xlink:href="#linearGradient11003"
       id="linearGradient11005"
       x1="123.00284"
       y1="170.9169"
       x2="157.62222"
       y2="246.74554"
       gradientUnits="userSpaceOnUse"
       gradientTransform="translate(4.9189499,15.576675)" /></defs><g
     id="layer1"
     transform="translate(-82.625162,-154.8479)"><path
       style="fill:url(#linearGradient11005);fill-opacity:1;stroke:#000000;stroke-width:0.265;stroke-dasharray:none;stroke-opacity:1"
       d="m 159.28826,283.62663 c -1.75193,-0.34476 -2.82081,-3.02383 -1.79228,-4.49225 l 0.39276,-0.56076 -1.48749,-3.76784 c -1.71534,-4.34496 -1.39905,-3.97164 -5.50279,-6.49504 -3.97802,-2.44609 -3.97902,-2.4379 -0.4603,3.77517 l 1.22659,2.16581 0.98754,0.38792 c 2.05027,0.80537 2.60162,3.15135 1.10721,4.71117 -2.01887,2.10725 -5.58367,0.57145 -5.30836,-2.28696 l 0.10194,-1.05834 -0.98503,-1.71979 c -0.54177,-0.94588 -1.53622,-2.82112 -2.20989,-4.16719 -1.47393,-2.94509 -1.24058,-2.9211 -2.57321,-0.26458 -0.60224,1.20055 -1.60108,3.07578 -2.21964,4.16719 l -1.12465,1.98437 0.12489,0.95724 c 0.42848,3.28414 -4.48368,4.72419 -5.91024,1.73266 -0.76393,-1.60198 0.39636,-4.1451 1.89119,-4.1451 0.6641,0 5.23914,-7.67452 4.82307,-8.09058 -0.10619,-0.10619 -3.00164,1.6074 -6.28511,3.71966 l -0.92604,0.59572 -1.52285,3.89126 -1.52285,3.89126 0.39837,0.56875 c 0.7224,1.03137 0.51235,2.50661 -0.50122,3.52018 l -0.89958,0.89958 h -1.2905 c -3.13914,0 -4.58759,-4.49885 -1.73949,-5.4028 0.44178,-0.14022 0.8144,-0.8964 2.06517,-4.19096 0.12485,-0.32886 -0.47298,-0.0883 -2.03535,0.81906 -1.21667,0.70659 -3.24078,1.83793 -4.49803,2.5141 -1.72565,0.92808 -2.32722,1.39403 -2.45449,1.90112 -0.52527,2.09283 -4.50212,2.20734 -5.56078,0.16013 -1.15521,-2.23393 0.57668,-4.49282 3.2165,-4.19528 l 1.16201,0.13098 3.22592,-1.78426 c 4.4182,-2.44371 13.35721,-7.8239 17.45771,-10.50742 l 3.38806,-2.21727 -0.0787,-2.63574 c -0.0433,-1.44966 -0.11203,-2.63613 -0.15279,-2.63662 -0.0408,-5.3e-4 -0.85946,0.66536 -1.81933,1.47964 -4.68176,3.97166 -13.37064,9.8149 -21.33887,14.35031 l -1.00731,0.57334 H 106.27737 94.904688 l -0.8052,0.59531 c -0.57467,0.42488 -1.17263,0.59532 -2.08858,0.59532 h -1.28337 l -0.79827,-0.76479 c -2.65612,-2.54472 1.11265,-6.67421 4.01072,-4.39459 l 0.67272,0.52917 h 11.024512 11.02451 l 1.89403,-1.12448 1.89402,-1.12448 -3.65263,-0.0737 -3.65264,-0.0737 -0.82894,0.69751 c 0,0 -0.47258,0.38783 -0.75661,0.48047 -0.44192,0.14414 -1.39156,0.0903 -1.39156,0.0903 -1.74509,0.11322 -2.80586,-1.25719 -2.80586,-2.87121 v -1.08062 c 0,0 0.23798,-0.88911 0.53784,-1.18897 0.29986,-0.29986 1.26133,-0.6102 1.26133,-0.6102 l 1.15093,0.001 c 0.683,5.3e-4 1.50315,0.21573 2.01723,0.52917 l 0.86629,0.52817 h 6.38116 6.38116 l 1.74839,-1.09461 c 2.92965,-1.83417 9.55587,-6.91842 11.89227,-9.12486 l 2.20639,-2.08365 -0.0226,-14.6119 -0.0226,-14.61189 -1.12544,-1.02271 c -0.61899,-0.56248 -2.25643,-2.05362 -3.63875,-3.31362 l -2.51332,-2.29098 h -3.19001 -3.19002 l -4.87634,4.43687 -4.87634,4.43687 -0.16323,1.00423 c -0.48631,2.99181 -4.23262,4.04651 -6.17478,1.7384 -1.67536,-1.99102 -0.15442,-5.25949 2.44979,-5.26464 l 0.88163,-0.002 3.21941,-2.9699 c 1.77067,-1.63345 3.25909,-3.0622 3.3076,-3.175 0.0485,-0.1127 -1.76508,-0.20499 -4.03019,-0.20499 h -4.11838 l -2.48533,2.24896 -2.48532,2.24896 h -5.56087 -5.560872 l -0.15171,0.39536 c -1.2172,3.17197 -7.44553,1.22037 -7.44553,-2.33299 0,-3.69636 5.42712,-5.48884 7.41819,-2.4501 l 0.44788,0.68356 4.533632,-0.006 4.53364,-0.006 0.6575,-0.50519 c 0.36163,-0.27785 0.59975,-0.55375 0.52917,-0.6131 -0.0706,-0.0593 -0.82103,-0.62368 -1.66766,-1.25406 l -1.53931,-1.14616 c 0,0 -0.83761,-0.29214 -1.27438,-0.30882 -1.13838,0.20143 -2.08919,0.1833 -2.80842,-0.43306 -0.77542,-0.66451 -1.132492,-1.92069 -0.925039,-2.92059 0.276809,-1.33421 1.360639,-2.75465 2.682759,-3.08436 1.25,-0.31173 2.63732,0.53737 3.60868,1.38361 0.45259,0.39429 0.86899,1.23126 0.86899,1.57719 0,0.47182 0.46785,0.97686 1.87255,2.0214 l 1.87254,1.39244 0.65345,-0.29772 c 0.44151,-0.20117 3.58839,-0.30196 9.70297,-0.31077 l 9.04953,-0.013 -2.91042,-2.7624 -2.91041,-2.76239 -8.26017,-0.003 -8.26017,-0.003 -4.30754,-4.10063 -4.307542,-4.10063 -3.8743,-4.2e-4 -3.87429,-4.1e-4 -0.15657,0.40801 c -0.7741,2.01728 -5.4217,1.65622 -6.77037,-0.52598 -0.683058,-0.78479 -0.570191,-1.54365 -0.47182,-2.32993 0.101624,-0.81228 0.253574,-1.46874 1.06539,-2.21271 1.85933,-1.70395 4.38218,-1.68032 6.06976,0.0568 l 0.86845,0.89397 4.49792,0.009 4.497912,0.009 4.29176,4.09468 4.29175,4.0947 h 5.03481 c 2.76914,-2e-5 5.03481,-0.10255 5.03481,-0.22787 0,-0.21871 -5.25948,-5.0272 -13.58715,-12.42207 l -3.92985,-3.4896 h -2.11749 -2.117482 l -0.50394,0.64066 c -2.21742,2.81898 -7.46562,1.1905 -7.46562,-2.31652 0,-3.63753 4.84334,-5.34303 7.33972,-2.58457 l 0.50341,0.55626 h 1.67878 1.678782 v -1.84192 -1.84277 l -0.54332,-0.29078 c -2.224142,-1.19032 -1.965162,-4.89384 0.43858,-6.27192 4.31651,-2.47469 8.61843,3.17749 4.74024,6.22807 l -0.66675,0.52446 0.006,2.34317 0.006,2.34317 1.54111,1.32292 c 4.30298,3.69375 23.84929,21.38438 33.30484,30.14296 0.90951,0.84246 1.65467,1.48916 1.65592,1.43711 0.001,-0.0521 0.071,-2.016 0.15495,-4.36433 l 0.15268,-4.26968 -8.9403,-8.03344 c -4.91725,-4.4184 -9.7287,-8.74783 -10.6922,-9.62095 -0.9635,-0.87313 -3.43924,-3.07578 -5.50165,-4.89479 l -3.74982,-3.3073 -5.2e-4,-5.90406 -5.1e-4,-5.90406 -0.78897,-0.66387 c -1.6585,-1.39554 -1.65264,-4.09248 0.0119,-5.49313 4.07185,-3.42623 9.50249,1.69905 5.76279,5.43876 l -1.017,1.01699 v 4.8752 4.8752 l 4.56406,4.08431 c 2.51024,2.24637 4.79088,4.33878 5.0681,4.6498 0.90716,1.01779 0.95118,0.65432 0.95118,-7.85506 v -8.42054 l -0.69556,-0.64144 c -2.67283,-2.46484 -0.21318,-7.79659 3.11462,-6.75151 0.19748,0.062 0.67731,0.1822 1.06627,0.26707 2.84011,0.61971 3.67796,4.47721 1.40577,6.47222 l -0.92235,0.80983 0.0125,10.26069 0.0125,10.26069 4.8949,4.36562 c 2.6922,2.4011 4.97853,4.39548 5.08074,4.43195 0.1022,0.0365 0.15739,-2.52338 0.12265,-5.68855 l -0.0632,-5.75486 -0.86286,-0.75012 c -2.57697,-2.24028 -3.05777,-2.55717 -3.87982,-2.55717 -1.8552,0 -3.20075,-1.33472 -3.20075,-3.175 0,-1.97149 1.34547,-3.175 3.54952,-3.175 h 1.19456 l 0.93671,0.82244 c 0.65616,0.57612 0.98544,1.12719 1.09941,1.83992 0.12507,0.78217 1.12799,2.34111 1.16471,1.81042 0.004,-0.0589 0.0429,-5.10778 0.0862,-11.21965 l 0.0788,-11.1125 -1.00591,-1.15451 c -2.19061,-2.51425 -1.04165,-5.88489 2.15202,-6.31326 4.23371,-0.56785 6.62129,3.74505 3.61034,6.5217 l -0.69555,0.64143 v 11.38766 11.38766 l 0.43757,-0.43757 c 0.24066,-0.24067 0.62762,-1.00757 0.8599,-1.70422 0.77291,-2.31815 3.3394,-3.21358 5.34413,-1.86453 2.57431,1.73234 1.26645,5.74501 -1.87249,5.74501 h -0.97346 l -1.89643,1.65365 -1.89642,1.65364 -0.001,5.77528 -10e-4,5.77528 1.16893,-1.01278 c 0.64291,-0.55702 2.89961,-2.56059 5.01489,-4.45236 l 3.84595,-3.43958 0.0122,-10.31875 0.0122,-10.31875 -0.91692,-0.73161 c -2.44426,-1.95028 -1.48381,-5.6186 1.72261,-6.57927 3.88091,-1.16275 6.93127,3.82519 3.9589,6.47358 l -0.79601,0.70909 v 8.46462 c 0,4.65555 0.063,8.46463 0.13993,8.46463 0.077,0 2.45822,-2.09729 5.29167,-4.66064 l 5.15174,-4.66063 v -4.86437 -4.86436 l -1.017,-1.01699 c -3.1053,-3.10531 0.27087,-7.90297 4.39906,-6.2512 2.82331,1.12966 3.546,4.47934 1.36278,6.31641 l -0.77609,0.65303 v 5.90478 5.90479 l -4.31373,3.83573 c -2.37255,2.10966 -8.80192,7.86116 -14.2875,12.78112 l -9.97377,8.94539 v 4.53731 4.53731 l 1.12448,-1.06546 c 2.50809,-2.37647 11.39994,-10.48838 19.38073,-17.68078 4.65666,-4.19665 10.1633,-9.17067 12.23697,-11.05337 l 3.77032,-3.42309 v -2.23724 -2.23724 l -0.92235,-0.80984 c -2.68408,-2.35665 -0.90595,-6.58233 2.76979,-6.58233 3.74769,0 5.59846,3.95254 3.0223,6.45447 l -0.92762,0.90089 0.0795,1.68013 0.0795,1.68014 1.537,0.0798 1.537,0.0798 0.90692,-0.79629 c 2.84718,-2.49985 6.99929,-0.89754 6.99929,2.70106 0,3.63953 -5.10729,5.29872 -7.38747,2.39995 l -0.4939,-0.6279 h -2.17281 -2.17281 l -2.82461,2.57969 c -1.55354,1.41883 -5.46997,4.94721 -8.70318,7.84085 -3.2332,2.89363 -5.87856,5.36418 -5.87856,5.4901 0,0.12593 2.24541,0.22895 4.98979,0.22895 h 4.98978 l 4.33678,-4.09097 4.33678,-4.09097 4.68705,-0.0101 4.68704,-0.0101 0.27055,-0.50552 c 1.41069,-2.6359 6.17496,-2.05069 7.3006,0.89674 l 0.46351,1.21369 -0.31029,1.03567 c -0.84,2.80367 -4.94217,3.82184 -6.91922,1.71736 l -0.61419,-0.65376 -3.85648,0.0102 -3.85649,0.0101 -4.36259,4.09089 -4.3626,4.0909 -8.20511,0.0129 -8.20511,0.0129 -2.10297,1.96314 c -2.62516,2.45061 -3.31133,2.22129 6.74609,2.25461 l 8.58604,0.0284 2.38125,-0.58172 2.38125,-0.58172 0.86665,-1.00681 c 1.548,-1.79837 3.51503,-1.97463 5.23023,-0.46868 2.85747,2.5089 -0.0617,6.4957 -3.84252,5.2479 l -1.02056,-0.33681 -1.74138,0.47137 c -2.06086,0.55785 -2.03279,0.47275 -0.62795,1.90417 l 1.11342,1.13449 h 4.10094 4.10094 l 0.99292,-0.96955 1.27665,-0.8386 1.18057,-0.25239 c 1.74389,-0.37281 3.63213,-0.039 4.15499,1.48454 l 0.39968,1.16456 0.0873,1.03347 c 0.31385,3.71519 -5.66996,5.58139 -7.48763,2.447 -0.16823,-0.29011 -1.2541,-0.36486 -5.30004,-0.36486 H 179.708 l -3.16663,-2.90146 -3.16663,-2.90146 -4.56406,-0.009 c -2.51024,-0.005 -4.56406,0.0362 -4.56406,0.0914 0,0.0552 1.83806,1.7816 4.08459,3.83646 l 4.08458,3.73611 h 0.94638 c 1.48542,0.19028 3.26064,1.53358 3.34013,3.03607 0.0862,1.62876 -1.62904,3.50699 -3.25336,3.6549 -1.69868,0.15469 -3.26954,-0.12333 -4.03672,-3.14481 l -0.3127,-1.23156 -5.40301,-4.97975 -5.40302,-4.97974 -1.85208,-0.001 -1.85209,-10e-4 -4.29947,4.0035 -4.29948,4.00351 v 14.62881 14.62881 l 2.81996,2.42077 c 3.12061,2.67886 6.53742,5.26853 10.5269,7.97857 l 2.63123,1.78739 h 6.32641 6.3264 l 0.74689,-0.62847 c 1.71299,-1.44139 4.16139,-0.97427 5.11383,0.97564 l 0.49267,1.00863 -0.36056,0.94733 c -0.76406,2.00751 -3.15509,2.70978 -4.92669,1.44702 l -0.86233,-0.61465 -3.63558,0.21818 -3.63559,0.218 1.86747,1.12448 1.86747,1.12448 h 11.58455 11.58454 l 0.67273,-0.52917 c 1.58317,-1.24532 4.27727,-0.37736 4.85938,1.56556 0.81635,2.72472 -2.65869,4.74347 -5.08167,2.95209 l -0.74242,-0.5489 h -11.98962 -11.98962 l -3.34256,-1.95068 c -6.18407,-3.60895 -13.3979,-8.56218 -18.47254,-12.6838 l -2.24896,-1.8266 -0.0777,2.60815 -0.0777,2.60814 0.66273,0.52917 c 1.72293,1.3757 13.37648,8.53523 19.73333,12.12345 l 3.3073,1.86685 c 0,0 1.6242,-0.56013 2.40361,-0.34227 1.03402,0.28903 2.2595,0.99338 2.49118,2.04174 0.32004,1.44818 -0.61576,3.32486 -1.93223,4.00791 -1.12136,0.58181 -2.77053,0.1913 -3.73886,-0.62004 -0.41843,-0.3506 -0.41358,-1.48148 -0.54662,-1.54376 -2.24981,-1.05318 -8.30774,-5.08102 -8.48904,-4.89973 -0.31109,0.31109 1.62298,4.10836 2.28647,4.48914 0.47236,0.2711 0.85642,0.80209 1.05179,1.45416 l 0.30773,1.02713 -0.40064,0.95889 c -0.59549,1.4252 -2.16954,2.19831 -3.81605,1.87429 z m -74.557222,-74.4278 c -2.7721,-1.3722 -2.58526,-5.04101 0.3185,-6.25428 4.29492,-1.79454 7.29879,4.23546 3.1181,6.2593 -1.3633,0.65996 -2.09538,0.65889 -3.4366,-0.005 z m 114.815352,0.15249 c -2.46628,-1.07382 -2.86643,-4.26154 -0.73867,-5.88446 1.89331,-1.4441 4.42952,-0.98118 5.65733,1.0326 1.76309,2.89169 -1.66168,6.26995 -4.91866,4.85186 z m -39.19541,-45.14656 c -1.25145,-0.26509 -2.05111,-0.87959 -2.57138,-1.97599 -1.66417,-3.50696 3.28883,-6.53282 6.09694,-3.72471 2.55081,2.55081 0.1246,6.4739 -3.52556,5.7007 z m -35.97711,-0.50416 c -2.94879,-1.79797 -1.43148,-6.35623 2.11696,-6.35972 2.80602,-0.003 4.5222,2.78798 3.23966,5.26814 -0.7877,1.52323 -3.68154,2.11294 -5.35662,1.09158 z"
       id="path10901" /></g></svg>
