<?xml version="1.0" encoding="UTF-8" standalone="no"?>
<!-- Created with Inkscape (http://www.inkscape.org/) -->

<svg
   version="1.1"
   id="svg182"
   width="190.91501"
   height="65.336678"
   viewBox="0 0 190.91501 65.336678"
   sodipodi:docname="rega-logo.png"
   inkscape:version="1.2.1 (9c6d41e, 2022-07-14)"
   inkscape:export-filename="rega-logo.svg"
   inkscape:export-xdpi="96"
   inkscape:export-ydpi="96"
   inkscape:dataloss="true"
   xmlns:inkscape="http://www.inkscape.org/namespaces/inkscape"
   xmlns:sodipodi="http://sodipodi.sourceforge.net/DTD/sodipodi-0.dtd"
   xmlns="http://www.w3.org/2000/svg"
   xmlns:svg="http://www.w3.org/2000/svg">
  <defs
     id="defs186" />
  <sodipodi:namedview
     id="namedview184"
     pagecolor="#505050"
     bordercolor="#eeeeee"
     borderopacity="1"
     inkscape:showpageshadow="0"
     inkscape:pageopacity="0"
     inkscape:pagecheckerboard="0"
     inkscape:deskcolor="#505050"
     showgrid="false"
     inkscape:zoom="21.19524"
     inkscape:cx="60.72118"
     inkscape:cy="73.106036"
     inkscape:window-width="1728"
     inkscape:window-height="1051"
     inkscape:window-x="0"
     inkscape:window-y="38"
     inkscape:window-maximized="0"
     inkscape:current-layer="g188" />
  <g
     inkscape:groupmode="layer"
     inkscape:label="Image"
     id="g188"
     transform="translate(-4.0109205,-3.0366385)">
    <g
       id="g10740"
       transform="translate(6.9275611,-70.574531)"
       style="fill:#ffffff;stroke:#ffffff;stroke-opacity:1">
      <path
         style="fill:#ffffff;fill-opacity:1;stroke:#ffffff;stroke-width:1.9937;stroke-linecap:round;stroke-linejoin:round;stroke-dashoffset:47.4436;stroke-opacity:1;paint-order:stroke fill markers"
         d="m 0.60275758,119.2872 c -2.28543968,-1.92307 -2.52254828,-3.96026 -2.52254828,-21.673225 0,-17.813663 0.2817174,-20.162147 2.58674638,-21.563919 2.39097322,-1.454037 4.20114132,-0.867934 5.54569212,1.795606 0.9181364,1.818818 1.7937736,2.637873 2.8201032,2.637873 0.758468,0 2.494441,-1.121027 4.110432,-2.654364 1.522361,-1.444497 2.549,-1.945149 4.841,-2.360768 4.057629,-0.735788 8.77255,0.813365 9.764555,3.208281 0.300926,0.726493 0.278792,1.04442 -0.133142,1.912505 -0.938057,1.976809 -2.403006,2.45849 -8.634387,2.839021 -4.756079,0.290438 -6.51442,0.741328 -7.853837,2.013951 -2.1236279,2.017727 -2.5172854,4.08705 -2.8660662,15.065929 -0.3038878,9.56573 -0.629839,13.47897 -1.3242256,15.8981 -0.9297611,3.23914 -4.1617318,4.70912 -6.33432262,2.88101 z"
         id="path3554" />
      <path
         style="fill:#ffffff;fill-opacity:1;stroke:#ffffff;stroke-width:1.7008;stroke-linecap:round;stroke-linejoin:round;stroke-dashoffset:47.4436;stroke-opacity:1;paint-order:stroke fill markers"
         d="m 53.208454,120.29327 c -5.49195,-0.71272 -9.296759,-2.62205 -12.956982,-6.50208 -1.898105,-2.01209 -3.637362,-5.27054 -4.320922,-8.09512 -1.289174,-5.32709 -1.016572,-13.683664 0.620835,-19.031582 1.150239,-3.756784 3.397647,-6.992834 6.02924,-8.681523 2.222093,-1.425913 4.250418,-1.92564 11.173647,-2.752896 l 6.431515,-0.768501 2.201382,0.637936 c 4.140002,1.199725 7.006998,2.919862 10.051985,6.030974 3.466199,3.541473 4.999246,6.859041 5.007198,10.835752 0.0055,2.733008 -0.346604,3.88457 -1.496232,4.893958 -1.796056,1.576958 -5.164831,2.009286 -15.857118,2.035005 -13.054791,0.0314 -15.495679,0.578205 -15.495679,3.471307 0,1.44217 0.888926,4.20304 2.06175,6.40348 2.31357,4.3407 7.148543,6.67298 12.42608,5.99405 3.692034,-0.47497 6.393445,-1.66968 10.812525,-4.7819 2.795572,-1.96883 4.313272,-2.77218 5.237233,-2.77218 0.757985,0 1.965545,1.35086 1.965545,2.1988 0,1.19917 -1.248655,3.3311 -3.080443,5.2595 -3.101328,3.26489 -6.136002,4.79434 -10.953556,5.52049 -2.629828,0.3964 -7.232882,0.44521 -9.858003,0.10453 z m 9.105299,-25.695808 c 3.532334,-0.309885 4.608165,-0.62779 5.305834,-1.567859 1.826971,-2.461749 -1.496893,-8.827067 -5.663576,-10.845946 -4.102289,-1.987681 -8.806206,-1.857281 -12.117322,0.335912 -2.200784,1.457739 -3.905499,4.536288 -4.15413,7.501956 -0.267996,3.196649 0.209792,4.316227 1.963086,4.600011 1.73462,0.280762 11.37165,0.264943 14.666108,-0.02408 z"
         id="path8114" />
      <path
         style="fill:#ffffff;fill-opacity:1;stroke:#ffffff;stroke-width:1.7008;stroke-linecap:round;stroke-linejoin:round;stroke-dashoffset:47.4436;stroke-opacity:1;paint-order:stroke fill markers"
         d="m 104.77369,137.96033 c -7.506273,-1.374 -13.547455,-6.27273 -12.966114,-10.51408 0.238401,-1.73932 0.724862,-2.34698 1.878869,-2.34698 1.155037,0 2.467057,0.79285 5.961435,3.60248 4.14465,3.33248 5.79822,3.83922 11.84543,3.63004 5.96815,-0.20644 7.95482,-0.91898 9.44816,-3.38871 1.94238,-3.21234 3.92699,-11.09275 3.31121,-13.14801 -0.33796,-1.12801 -1.21151,-1.66521 -2.65625,-1.63349 -1.53796,0.0338 -2.61434,0.47046 -4.91969,1.99593 -2.69443,1.78293 -4.66983,2.40221 -8.20698,2.57284 -5.9902,0.28897 -10.776135,-1.65919 -13.648057,-5.55556 -3.725154,-5.05396 -5.516152,-12.31513 -4.868849,-19.739567 1.040713,-11.936792 7.494474,-18.447037 17.750716,-17.906074 4.08519,0.215473 7.60241,1.267678 9.83831,2.943208 1.87287,1.403485 2.73698,1.777627 4.10558,1.777627 0.9724,0 1.45654,-0.160827 2.28017,-0.757467 0.57511,-0.416607 1.04566,-0.854176 1.04566,-0.972375 0,-0.390965 2.0604,-2.563695 2.78792,-2.939908 1.55484,-0.804042 2.89696,-0.303526 3.76885,1.405518 1.50069,2.941594 1.86591,7.894021 1.68076,22.791309 -0.28352,22.813009 -1.33104,29.355879 -5.32401,33.254269 -3.3617,3.28207 -8.75477,4.86832 -17.14939,5.0441 -2.63301,0.0551 -5.31669,0.003 -5.96373,-0.1151 z m 9.40859,-25.71233 c 5.25883,-0.76066 7.95073,-3.50368 8.92089,-9.09026 0.52087,-2.9994 0.37614,-10.56322 -0.24946,-13.037122 -1.16304,-4.599164 -3.49886,-6.823638 -8.31267,-7.916415 -0.7062,-0.160314 -3.04143,-0.297101 -5.18941,-0.303972 -3.79885,-0.01215 -3.93696,0.0061 -5.06127,0.667015 -2.11478,1.243251 -4.03428,4.309815 -4.93694,7.88721 -0.351434,1.392787 -0.443617,2.797095 -0.438299,6.677001 0.0073,5.335043 0.355216,7.372713 1.746059,10.226623 0.77349,1.58715 2.69517,3.61796 4.01066,4.2384 1.77625,0.83776 6.15097,1.13746 9.51044,0.65152 z"
         id="path9835" />
      <path
         style="fill:#ffffff;fill-opacity:1;stroke:#ffffff;stroke-width:1.7008;stroke-linecap:round;stroke-linejoin:round;stroke-dashoffset:47.4436;stroke-opacity:1;paint-order:stroke fill markers"
         d="m 156.21661,119.91726 c -2.62097,-0.56758 -4.67847,-1.72983 -6.71549,-3.79346 -2.5565,-2.5899 -3.46112,-4.49411 -3.57315,-7.52143 -0.11064,-2.98997 0.46419,-4.60108 2.37994,-6.67032 2.54212,-2.745787 6.45452,-4.353562 15.97149,-6.563384 8.21121,-1.906624 11.26496,-2.947637 12.4305,-4.237514 1.36695,-1.512776 0.31299,-6.161709 -1.89823,-8.372933 -1.67404,-1.674039 -4.58238,-2.502635 -8.79713,-2.506331 -4.4862,-0.0039 -6.36847,0.750808 -9.92973,3.981581 -5.48452,4.975559 -5.86588,5.135297 -7.64694,3.20307 -0.57197,-0.620511 -1.03994,-1.369975 -1.03994,-1.665476 0,-0.91008 1.53223,-3.470715 2.92149,-4.882354 2.52562,-2.566299 5.32511,-4.079359 9.18533,-4.964459 3.51106,-0.805042 10.2918,-0.802226 14.34152,0.006 4.7868,0.95528 8.45774,2.672451 9.60524,4.493088 0.50568,0.802301 1.0339,3.667594 1.5938,8.645368 0.6247,5.553918 2.20935,26.986484 2.09174,28.290984 -0.19027,2.11037 -1.73262,3.11161 -3.59471,2.33358 -0.52043,-0.21745 -1.8125,-1.22299 -2.87127,-2.23453 -3.24416,-3.09945 -4.74166,-3.14284 -10.8485,-0.31433 -6.43935,2.98252 -9.63267,3.63332 -13.60596,2.77289 z m 12.09419,-5.65461 c 3.89933,-1.30419 6.35205,-3.22126 7.33457,-5.73276 0.50013,-1.27844 0.57804,-2.01813 0.6726,-6.38603 l 0.10695,-4.940113 -3.74211,0.600257 c -8.24643,1.322776 -12.69637,2.955526 -15.50244,5.688086 -1.65304,1.60973 -2.05457,2.64734 -1.92052,4.96293 0.19692,3.40167 1.72101,5.31448 4.97035,6.23805 1.70983,0.486 6.02844,0.25596 8.0806,-0.43042 z"
         id="path9837" />
    </g>
  </g>
</svg>
